<svg preserveAspectRatio="none" width="100%" height="100%" overflow="visible" style="display: block;" viewBox="0 0 59.5642 35.1562" fill="none" xmlns="http://www.w3.org/2000/svg">
<path id="Line 565" d="M0.5 34.1562C0.223858 34.1562 0 34.3801 0 34.6562C2.98023e-08 34.9324 0.223858 35.1562 0.5 35.1562L0.5 34.6562L0.5 34.1562ZM56.2358 0.146447C56.0405 -0.0488155 55.7239 -0.0488155 55.5287 0.146447L52.3467 3.32843C52.1514 3.52369 52.1514 3.84027 52.3467 4.03553C52.5419 4.2308 52.8585 4.2308 53.0538 4.03553L55.8822 1.20711L58.7106 4.03553C58.9059 4.2308 59.2225 4.2308 59.4177 4.03553C59.613 3.84027 59.613 3.52369 59.4177 3.32843L56.2358 0.146447ZM55.8822 34.6562V35.1562H56.3822V34.6562H55.8822ZM0.5 34.6562L0.5 35.1562L55.8822 35.1562V34.6562V34.1562L0.5 34.1562L0.5 34.6562ZM55.8822 34.6562H56.3822V0.5H55.8822H55.3822V34.6562H55.8822Z" fill="var(--stroke-0, #CACACA)"/>
</svg>
