<svg preserveAspectRatio="none" width="100%" height="100%" overflow="visible" style="display: block;" viewBox="0 0 25.8474 27.4699" fill="none" xmlns="http://www.w3.org/2000/svg">
<g id="Union">
<path d="M12.31 16.7813L17.2371 11.8469L15.9404 10.5483L12.31 14.1841L10.5133 12.3848L9.21662 13.6834L12.31 16.7813Z" fill="var(--fill-0, #7A7A7A)"/>
<path fill-rule="evenodd" clip-rule="evenodd" d="M15.0205 1.03549C14.5087 0.310762 13.6755 2.33522e-06 12.9216 0C12.1678 -2.33519e-06 11.3346 0.310751 10.8228 1.03547C8.77467 3.93562 5.58693 5.96752 1.91631 6.47963C0.854491 6.62777 -0.0991674 7.55415 0.0082896 8.78383C0.700991 16.7107 5.32494 23.5055 11.9121 27.2052C12.5406 27.5582 13.3069 27.5582 13.9354 27.2052C20.5224 23.5056 25.1462 16.7111 25.8391 8.78452C25.9466 7.55456 24.9926 6.62808 23.9305 6.4802C20.2584 5.96888 17.0693 3.93659 15.0205 1.03549ZM12.32 2.09592C12.4178 1.95736 12.63 1.83648 12.9216 1.83648C13.2133 1.83648 13.4255 1.95736 13.5233 2.09592C15.8549 5.39752 19.4879 7.71574 23.678 8.29918C23.7919 8.31504 23.8864 8.37088 23.9451 8.43791C24 8.50054 24.0177 8.56316 24.0123 8.62436C23.3741 15.9259 19.1144 22.1909 13.0384 25.6034C12.9671 25.6435 12.8804 25.6435 12.8091 25.6034C6.73295 22.1908 2.47316 15.9255 1.83508 8.62373C1.82973 8.56254 1.84743 8.49992 1.90229 8.4373C1.961 8.37028 2.05544 8.31443 2.16933 8.29855C6.35771 7.7142 9.98908 5.39643 12.32 2.09592Z" fill="var(--fill-0, #7A7A7A)"/>
</g>
</svg>
