<svg preserveAspectRatio="none" width="100%" height="100%" overflow="visible" style="display: block;" viewBox="0 0 152.411 35.1562" fill="none" xmlns="http://www.w3.org/2000/svg">
<path id="Line 567" d="M0.5 34.1562C0.223858 34.1562 0 34.3801 0 34.6562C0 34.9324 0.223858 35.1562 0.5 35.1562L0.5 34.6562L0.5 34.1562ZM149.082 0.146447C148.887 -0.0488155 148.571 -0.0488155 148.375 0.146447L145.193 3.32843C144.998 3.52369 144.998 3.84027 145.193 4.03553C145.389 4.2308 145.705 4.2308 145.9 4.03553L148.729 1.20711L151.557 4.03553C151.753 4.2308 152.069 4.2308 152.264 4.03553C152.46 3.84027 152.46 3.52369 152.264 3.32843L149.082 0.146447ZM148.729 34.6562V35.1562H149.229V34.6562H148.729ZM0.5 34.6562L0.5 35.1562L148.729 35.1562V34.6562V34.1562L0.5 34.1562L0.5 34.6562ZM148.729 34.6562H149.229V0.5H148.729H148.229V34.6562H148.729Z" fill="var(--stroke-0, #CACACA)"/>
</svg>
