<svg preserveAspectRatio="none" width="100%" height="100%" overflow="visible" style="display: block;" viewBox="0 0 20.4013 21.0912" fill="none" xmlns="http://www.w3.org/2000/svg">
<g id="Group">
<path id="Vector" d="M3.1372 2.67882L6.82523 2.35388C7.44004 2.30076 8.05587 2.24859 8.67391 2.19953L8.67679 2.20011C10.7214 2.01566 12.7605 1.6859 14.7281 1.74925L14.731 1.74885C16.4378 1.77726 17.9594 2.36024 18.9471 4.01127L19.137 4.35608C20.1581 6.35613 20.2076 8.67434 19.776 11.0429C19.3441 13.4133 18.4336 15.8198 17.5484 17.9863L17.5475 17.9874C17.4168 18.314 17.2478 18.4642 17.1026 18.5219C16.9534 18.5811 16.7787 18.5636 16.6147 18.4596C16.2845 18.2501 16.0645 17.7261 16.3205 17.1058L16.3215 17.1057C17.2627 14.8172 18.3405 12.2755 18.5071 9.65883C18.6173 7.93751 18.3543 6.08844 17.4018 4.91445L17.399 4.91192C16.2767 3.58976 14.5292 3.73739 13.0838 3.84131L13.0809 3.84171C11.1117 4.01666 9.133 4.19357 7.15441 4.36981C5.17584 4.54605 3.19709 4.722 1.22794 4.89694L1.226 4.89721C1.00126 4.91915 0.832879 4.82579 0.715686 4.65397C0.595473 4.47758 0.533141 4.22143 0.540738 3.94684C0.54834 3.67211 0.624999 3.40085 0.756417 3.19661C0.88255 3.00074 1.05778 2.86591 1.29047 2.83192C1.90803 2.78288 2.52323 2.73186 3.1372 2.67882Z" fill="var(--fill-0, #CDB285)" stroke="var(--stroke-0, #CCB185)" stroke-width="0.400844"/>
</g>
</svg>
