<svg preserveAspectRatio="none" width="100%" height="100%" overflow="visible" style="display: block;" viewBox="0 0 21.0704 19.0697" fill="none" xmlns="http://www.w3.org/2000/svg">
<g id="Group">
<path id="Vector" d="M0.941744 1.43156C2.18707 1.42189 3.42224 1.40132 4.65636 1.38062C5.89268 1.35987 7.12872 1.33912 8.3739 1.32948L8.37584 1.32936C10.4327 1.29194 12.4739 1.1133 14.4718 1.31123L14.4747 1.31104C16.2071 1.45703 17.7904 2.12966 18.9116 3.79994L19.1293 4.14702C20.31 6.15809 20.5309 8.41095 20.2689 10.6799C20.0067 12.9508 19.2628 15.2242 18.5264 17.2669L18.5255 17.2679C18.4182 17.5734 18.2598 17.7068 18.1161 17.7532C17.9676 17.801 17.7877 17.7716 17.6141 17.6592C17.2868 17.4474 17.0402 16.9772 17.1849 16.4421L17.2191 16.3342C18.0032 14.1773 18.9089 11.7813 18.8842 9.24923C18.8687 7.58372 18.4642 5.76775 17.4113 4.55985L17.4092 4.55705L17.2918 4.43347C16.0645 3.19573 14.3697 3.21706 12.9595 3.21778L12.9566 3.21797C10.9751 3.25139 8.98425 3.28551 6.9934 3.31954C5.00235 3.35357 3.01084 3.38775 1.02922 3.42118L1.02727 3.4213C0.799856 3.42698 0.623123 3.32437 0.493025 3.15133C0.359155 2.97303 0.277396 2.72102 0.264888 2.45655C0.252402 2.19209 0.310089 1.9362 0.427218 1.74842C0.539595 1.56838 0.706532 1.44844 0.941744 1.43156Z" fill="var(--fill-0, #CDB285)" stroke="var(--stroke-0, #CCB185)" stroke-width="0.400844"/>
</g>
</svg>
