<svg preserveAspectRatio="none" width="100%" height="100%" overflow="visible" style="display: block;" viewBox="0 0 384.273 45.5" fill="none" xmlns="http://www.w3.org/2000/svg">
<path id="Line 571" d="M0.75 44C0.335786 44 0 44.3358 0 44.75C0 45.1642 0.335786 45.5 0.75 45.5L0.75 44.75L0.75 44ZM379.28 0.21967C378.987 -0.0732233 378.513 -0.0732233 378.22 0.21967L373.447 4.99264C373.154 5.28553 373.154 5.76041 373.447 6.0533C373.74 6.34619 374.214 6.34619 374.507 6.0533L378.75 1.81066L382.993 6.0533C383.286 6.34619 383.76 6.34619 384.053 6.0533C384.346 5.76041 384.346 5.28553 384.053 4.99264L379.28 0.21967ZM378.75 44.75V45.5H379.5V44.75H378.75ZM0.75 44.75L0.75 45.5L378.75 45.5V44.75V44L0.75 44L0.75 44.75ZM378.75 44.75H379.5V0.75H378.75H378V44.75H378.75Z" fill="var(--stroke-0, #CACACA)"/>
</svg>
