<svg preserveAspectRatio="none" width="100%" height="100%" overflow="visible" style="display: block;" viewBox="0 0 29.773 19.4836" fill="none" xmlns="http://www.w3.org/2000/svg">
<path id="Vector 1212 (Stroke)" fill-rule="evenodd" clip-rule="evenodd" d="M16.3219 2.5928C15.374 1.6086 16.0926 -0.0316247 17.4577 0.000463868L28.0695 0.249912C28.888 0.269153 29.546 0.931002 29.5615 1.75078L29.7727 12.8835C29.7991 14.2729 28.1116 14.9754 27.1466 13.9768L24.6785 11.4227L16.5798 19.0669C15.9286 19.6815 14.8918 19.6068 14.3351 18.9052L10.2968 13.8153L2.35175 18.7993C0.934586 19.6883 -0.674225 17.9794 0.295441 16.615L9.12289 4.19444C9.72909 3.34149 10.9924 3.33625 11.6056 4.18415L15.3543 9.3673L18.8825 5.25139L16.3219 2.5928Z" fill="var(--fill-0, #00B852)"/>
</svg>
