<svg preserveAspectRatio="none" width="100%" height="100%" overflow="visible" style="display: block;" viewBox="0 0 199.649 35.1562" fill="none" xmlns="http://www.w3.org/2000/svg">
<path id="Line 568" d="M0.5 34.1562C0.223858 34.1562 0 34.3801 0 34.6562C0 34.9324 0.223858 35.1562 0.5 35.1562L0.5 34.6562L0.5 34.1562ZM196.32 0.146447C196.125 -0.0488155 195.808 -0.0488155 195.613 0.146447L192.431 3.32843C192.236 3.52369 192.236 3.84027 192.431 4.03553C192.626 4.2308 192.943 4.2308 193.138 4.03553L195.967 1.20711L198.795 4.03553C198.99 4.2308 199.307 4.2308 199.502 4.03553C199.697 3.84027 199.697 3.52369 199.502 3.32843L196.32 0.146447ZM195.967 34.6562V35.1562H196.467V34.6562H195.967ZM0.5 34.6562L0.5 35.1562L195.967 35.1562V34.6562V34.1562L0.5 34.1562L0.5 34.6562ZM195.967 34.6562H196.467V0.5H195.967H195.467V34.6562H195.967Z" fill="var(--stroke-0, #CACACA)"/>
</svg>
