<svg preserveAspectRatio="none" width="100%" height="100%" overflow="visible" style="display: block;" viewBox="0 0 76.6327 42.4909" fill="none" xmlns="http://www.w3.org/2000/svg">
<g id="Group">
<path id="Vector" d="M1.09215 9.35134C1.42899 9.31493 1.84333 9.55602 1.8899 10.2538L1.8899 10.2548C1.92018 11.2201 2.02467 12.1263 2.1649 13.0716L2.16585 13.0744C2.72964 16.4951 4.07165 19.6048 5.70479 22.2634L6.03535 22.7883C7.59803 25.2483 9.42081 27.3895 11.4681 29.167C15.5963 32.7633 20.3977 34.9288 25.429 35.8142L25.429 35.8152C30.6073 36.7791 36.0148 36.365 41.2816 34.7631L41.2807 34.7623C47.3909 32.9623 53.321 29.6935 58.9536 25.6966L58.9536 25.6956C64.3384 21.8456 69.4355 17.3568 74.3621 12.5331L75.3452 11.5641C75.5464 11.3651 75.7111 11.3384 75.8395 11.3754C75.9843 11.4174 76.1291 11.5534 76.2291 11.7702C76.432 12.2101 76.3949 12.8405 75.9865 13.2447C75.6565 13.5711 75.3166 13.8987 74.9761 14.2277C74.6368 14.5555 74.2964 14.8847 73.9648 15.2127C68.5624 20.4148 62.9488 25.2077 57.0168 29.1287C51.158 32.993 45.0218 35.9774 38.7216 37.4082C33.3352 38.6325 27.8474 38.5829 22.6952 37.2529C17.5453 35.9234 12.7303 33.2187 8.72349 29.0799L8.72252 29.0801C4.4592 24.5851 0.659258 18.0906 0.422551 10.3692L0.422565 10.3672L0.422453 10.2433C0.432442 9.96541 0.516631 9.76017 0.625333 9.6206C0.749518 9.46123 0.918182 9.37016 1.09215 9.35134Z" fill="var(--fill-0, #CDB285)" stroke="var(--stroke-0, #CCB185)" stroke-width="0.400844"/>
</g>
</svg>
