<svg preserveAspectRatio="none" width="100%" height="100%" overflow="visible" style="display: block;" viewBox="0 0 27.9692 24.8658" fill="none" xmlns="http://www.w3.org/2000/svg">
<path id="Union" fill-rule="evenodd" clip-rule="evenodd" d="M1.12313 1.096C4.95409 -0.842184 9.75099 -0.210355 12.9531 2.99647C14.1996 4.24486 15.0565 5.73534 15.524 7.31648C16.0991 6.46306 16.8317 5.69474 17.7143 5.05714C20.6399 2.94381 24.4055 2.85091 27.3554 4.50452C27.5913 4.63674 27.7569 4.86644 27.8079 5.13226C28.4473 8.4595 27.1713 12.0124 24.2436 14.1273C21.6602 15.9935 18.4216 16.2842 15.6682 15.188V24.8658H13.8345V14.8353C10.1939 16.2135 5.9243 15.4362 2.99204 12.4996C0.0446273 9.54788 -0.723981 5.24269 0.680825 1.58588C0.76249 1.3733 0.920132 1.1987 1.12313 1.096ZM2.27145 2.58112C1.28765 5.5094 1.96167 8.87058 4.28871 11.2011C6.82549 13.7416 10.5856 14.3144 13.6737 12.915C14.6575 9.9867 13.9834 6.62552 11.6564 4.29505C9.11962 1.75452 5.3595 1.18171 2.27145 2.58112ZM26.076 5.90701C23.7894 4.80212 20.9882 4.95658 18.7871 6.54658C16.5843 8.13783 15.5541 10.754 15.8819 13.2775C18.1685 14.3824 20.9697 14.2279 23.1708 12.6379C25.3736 11.0467 26.4038 8.43052 26.076 5.90701Z" fill="var(--fill-0, #7A7A7A)"/>
</svg>
