<svg preserveAspectRatio="none" width="100%" height="100%" overflow="visible" style="display: block;" viewBox="0 0 78.3884 35.7424" fill="none" xmlns="http://www.w3.org/2000/svg">
<g id="Group">
<path id="Vector" d="M0.874979 3.81454C1.21378 3.80255 1.64425 4.06499 1.74141 4.7348L1.74148 4.73578C1.84249 5.67099 2.01447 6.55482 2.22464 7.47789L2.22484 7.48082C3.09658 11.0479 4.83402 14.3335 6.82823 17.1335C8.58051 19.6185 10.5719 21.8137 12.7619 23.6726L12.7618 23.6716C17.1787 27.4316 22.1675 29.856 27.2942 31.059C32.573 32.3476 37.981 32.3215 43.1615 31.1392L43.1625 31.1402C49.1783 29.8243 54.9058 27.0756 60.2811 23.6044L60.2821 23.6043C65.4187 20.2579 70.2188 16.2736 74.8233 11.9549L75.7416 11.0868C75.9288 10.9091 76.0935 10.8943 76.2267 10.9394C76.3754 10.9898 76.5293 11.1309 76.6449 11.3455C76.8795 11.7812 76.8892 12.3822 76.5105 12.7419C76.2023 13.0344 75.8842 13.3278 75.5657 13.622C75.2482 13.9151 74.9296 14.2092 74.6199 14.5031C69.5645 19.1542 64.2664 23.3947 58.5846 26.7717C52.9722 30.0991 47.0165 32.5583 40.7818 33.5046C35.4516 34.3146 29.9268 33.8876 24.646 32.2467C19.5322 30.6575 14.6403 27.8434 10.4002 23.783L9.99232 23.3861C5.37493 18.7498 1.07861 12.2159 0.277043 4.74447L0.276909 4.74252L0.267801 4.6237C0.257623 4.35836 0.326686 4.16837 0.424735 4.04239C0.537177 3.89807 0.700069 3.82076 0.874979 3.81454Z" fill="var(--fill-0, #CDB285)" stroke="var(--stroke-0, #CCB185)" stroke-width="0.400844"/>
</g>
</svg>
