<svg width="812" height="527" viewBox="0 0 812 527" fill="none" xmlns="http://www.w3.org/2000/svg">
<rect x="0.782101" y="0.782101" width="810.436" height="525.436" rx="7.2179" fill="#F5F5F5"/>
<rect x="0.782101" y="0.782101" width="810.436" height="525.436" rx="7.2179" stroke="#DEDEDE" stroke-width="1.5642"/>
<path d="M191 131.75C190.586 131.75 190.25 131.414 190.25 131C190.25 130.586 190.586 130.25 191 130.25L191 131L191 131.75ZM445.53 175.53C445.237 175.823 444.763 175.823 444.47 175.53L439.697 170.757C439.404 170.464 439.404 169.99 439.697 169.697C439.99 169.404 440.464 169.404 440.757 169.697L445 173.939L449.243 169.697C449.536 169.404 450.01 169.404 450.303 169.697C450.596 169.99 450.596 170.464 450.303 170.757L445.53 175.53ZM445 131L445 130.25H445.75L445.75 131H445ZM191 131L191 130.25L445 130.25L445 131L445 131.75L191 131.75L191 131ZM445 131H445.75L445.75 175H445H444.25L444.25 131H445Z" fill="#CACACA"/>
<path d="M418 179C418 176.791 419.791 175 422 175H467C469.209 175 471 176.791 471 179V201H418V179Z" fill="#D22525"/>
<path d="M432.72 193V184.68H430.24V183.416C432.352 183.384 432.848 183.096 433.088 181.464H434.384V193H432.72ZM440.204 193.16C437.788 193.16 436.028 191.896 436.028 189.72C436.028 188.408 436.86 187.32 438.124 186.904C437.1 186.456 436.396 185.448 436.396 184.456C436.396 182.6 437.932 181.304 440.204 181.304C442.492 181.304 444.028 182.6 444.028 184.456C444.028 185.448 443.324 186.456 442.3 186.904C443.548 187.304 444.396 188.392 444.396 189.72C444.396 191.896 442.636 193.16 440.204 193.16ZM440.204 191.784C441.724 191.784 442.716 191 442.716 189.752C442.716 188.488 441.724 187.688 440.204 187.688C438.7 187.688 437.708 188.488 437.708 189.752C437.708 191 438.7 191.784 440.204 191.784ZM440.204 186.296C441.5 186.296 442.38 185.576 442.38 184.552C442.38 183.448 441.516 182.68 440.204 182.68C438.908 182.68 438.044 183.448 438.044 184.552C438.044 185.576 438.924 186.296 440.204 186.296ZM447.93 187.096C446.33 187.096 445.226 185.864 445.226 184.2C445.226 182.536 446.33 181.304 447.93 181.304C449.514 181.304 450.618 182.52 450.618 184.2C450.618 185.88 449.514 187.096 447.93 187.096ZM455.258 193.144C453.658 193.144 452.554 191.896 452.554 190.248C452.554 188.584 453.658 187.352 455.258 187.352C456.842 187.352 457.946 188.568 457.946 190.248C457.946 191.912 456.842 193.144 455.258 193.144ZM447.066 193L454.778 181.464H456.122L448.41 193H447.066ZM447.93 185.976C448.778 185.976 449.338 185.272 449.338 184.2C449.338 183.128 448.778 182.424 447.93 182.424C447.082 182.424 446.522 183.128 446.522 184.2C446.522 185.272 447.082 185.976 447.93 185.976ZM455.258 192.024C456.106 192.024 456.65 191.32 456.65 190.248C456.65 189.176 456.106 188.472 455.258 188.472C454.394 188.472 453.85 189.176 453.85 190.248C453.85 191.32 454.394 192.024 455.258 192.024Z" fill="white"/>
<path d="M191 131.75C190.586 131.75 190.25 131.414 190.25 131C190.25 130.586 190.586 130.25 191 130.25L191 131L191 131.75ZM321.53 175.53C321.237 175.823 320.763 175.823 320.47 175.53L315.697 170.757C315.404 170.464 315.404 169.99 315.697 169.697C315.99 169.404 316.464 169.404 316.757 169.697L321 173.939L325.243 169.697C325.536 169.404 326.01 169.404 326.303 169.697C326.596 169.99 326.596 170.464 326.303 170.757L321.53 175.53ZM321 131L321 130.25H321.75L321.75 131H321ZM191 131L191 130.25L321 130.25L321 131L321 131.75L191 131.75L191 131ZM321 131H321.75L321.75 175H321H320.25L320.25 131H321Z" fill="#CACACA"/>
<path d="M294 179C294 176.791 295.791 175 298 175H346C348.209 175 350 176.791 350 179V201H294V179Z" fill="#D22525"/>
<path d="M306.4 193V191.576L310.688 187.896C311.984 186.792 312.576 185.864 312.576 184.824C312.576 183.576 311.744 182.76 310.464 182.76C308.928 182.76 308.128 183.88 308.256 185.592H308.192L306.592 185.368C306.448 183 308.064 181.304 310.464 181.304C312.768 181.304 314.288 182.696 314.288 184.824C314.288 186.248 313.504 187.544 311.696 189.032L308.752 191.544H314.288V193H306.4ZM319.451 193.16C317.211 193.16 315.499 191.864 315.259 189.88L316.827 189.608H316.891C317.083 190.904 318.043 191.704 319.403 191.704C320.875 191.704 321.819 190.68 321.819 189.176C321.819 187.64 320.827 186.664 319.307 186.664C318.187 186.664 317.515 187.208 317.083 187.912H315.595L316.491 181.464H323.019V182.92H317.723L317.243 186.216C317.819 185.672 318.747 185.304 319.675 185.304C321.931 185.304 323.531 186.856 323.531 189.176C323.531 191.576 321.915 193.16 319.451 193.16ZM327.008 187.096C325.408 187.096 324.304 185.864 324.304 184.2C324.304 182.536 325.408 181.304 327.008 181.304C328.592 181.304 329.696 182.52 329.696 184.2C329.696 185.88 328.592 187.096 327.008 187.096ZM334.336 193.144C332.736 193.144 331.632 191.896 331.632 190.248C331.632 188.584 332.736 187.352 334.336 187.352C335.92 187.352 337.024 188.568 337.024 190.248C337.024 191.912 335.92 193.144 334.336 193.144ZM326.144 193L333.856 181.464H335.2L327.488 193H326.144ZM327.008 185.976C327.856 185.976 328.416 185.272 328.416 184.2C328.416 183.128 327.856 182.424 327.008 182.424C326.16 182.424 325.6 183.128 325.6 184.2C325.6 185.272 326.16 185.976 327.008 185.976ZM334.336 192.024C335.184 192.024 335.728 191.32 335.728 190.248C335.728 189.176 335.184 188.472 334.336 188.472C333.472 188.472 332.928 189.176 332.928 190.248C332.928 191.32 333.472 192.024 334.336 192.024Z" fill="white"/>
<path fill-rule="evenodd" clip-rule="evenodd" d="M321.101 282.51C321.329 282.556 321.5 282.758 321.5 283V337.882H353.949L351.621 335.554C351.426 335.358 351.426 335.042 351.621 334.847C351.816 334.652 352.133 334.651 352.328 334.847L355.51 338.028C355.705 338.224 355.705 338.54 355.51 338.735L352.328 341.918C352.133 342.113 351.816 342.113 351.621 341.918C351.426 341.723 351.426 341.406 351.621 341.211L353.95 338.882H321.5V385.12H353.949L351.621 382.792C351.426 382.597 351.426 382.279 351.621 382.084C351.816 381.889 352.133 381.889 352.328 382.084L355.51 385.267C355.705 385.462 355.705 385.778 355.51 385.974L352.328 389.155C352.133 389.351 351.816 389.35 351.621 389.155C351.426 388.96 351.426 388.644 351.621 388.448L353.949 386.12H321.5V430.729H353.949L351.621 428.4C351.426 428.205 351.426 427.889 351.621 427.693C351.816 427.498 352.133 427.498 352.328 427.693L355.51 430.875C355.705 431.07 355.705 431.387 355.51 431.582L352.328 434.765C352.133 434.96 351.816 434.96 351.621 434.765C351.426 434.569 351.426 434.253 351.621 434.058L353.95 431.729H321.5V477.967H353.949L351.621 475.639C351.426 475.443 351.426 475.126 351.621 474.931C351.816 474.736 352.133 474.736 352.328 474.931L355.51 478.113C355.705 478.309 355.705 478.625 355.51 478.82L352.328 482.002C352.133 482.197 351.816 482.197 351.621 482.002C351.426 481.807 351.426 481.49 351.621 481.295L353.949 478.967H320.5V283C320.5 282.758 320.671 282.556 320.899 282.51C320.932 282.503 320.966 282.5 321 282.5L321.101 282.51Z" fill="#CACACA"/>
<path d="M191 131.75C190.586 131.75 190.25 131.414 190.25 131C190.25 130.586 190.586 130.25 191 130.25L191 131L191 131.75ZM569.53 175.53C569.237 175.823 568.763 175.823 568.47 175.53L563.697 170.757C563.404 170.464 563.404 169.99 563.697 169.697C563.99 169.404 564.464 169.404 564.757 169.697L569 173.939L573.243 169.697C573.536 169.404 574.01 169.404 574.303 169.697C574.596 169.99 574.596 170.464 574.303 170.757L569.53 175.53ZM569 131L569 130.25H569.75L569.75 131H569ZM191 131L191 130.25L569 130.25L569 131L569 131.75L191 131.75L191 131ZM569 131H569.75L569.75 175H569H568.25L568.25 131H569Z" fill="#CACACA"/>
<path d="M191 131.75C190.586 131.75 190.25 131.414 190.25 131C190.25 130.586 190.586 130.25 191 130.25L191 131L191 131.75ZM692.53 175.53C692.237 175.823 691.763 175.823 691.47 175.53L686.697 170.757C686.404 170.464 686.404 169.99 686.697 169.697C686.99 169.404 687.464 169.404 687.757 169.697L692 173.939L696.243 169.697C696.536 169.404 697.01 169.404 697.303 169.697C697.596 169.99 697.596 170.464 697.303 170.757L692.53 175.53ZM692 131L692 130.25H692.75L692.75 131H692ZM191 131L191 130.25L692 130.25L692 131L692 131.75L191 131.75L191 131ZM692 131H692.75L692.75 175H692H691.25L691.25 131H692Z" fill="#CACACA"/>
<path d="M379.19 345.352V330.932H388.65V332.752H381.27V336.812H387.19V338.652H381.27V345.352H379.19ZM390.069 345.352V330.932H394.609C398.729 330.932 401.749 333.972 401.749 338.132C401.749 342.312 398.729 345.352 394.609 345.352H390.069ZM392.149 343.532H394.609C397.529 343.532 399.609 341.272 399.609 338.132C399.609 335.012 397.529 332.752 394.609 332.752H392.149V343.532ZM407.223 345.552C404.563 345.552 403.043 344.092 402.823 342.412L404.603 341.792H404.683C404.903 343.112 405.843 343.892 407.223 343.892C408.363 343.892 409.123 343.312 409.123 342.392C409.123 341.632 408.603 341.212 407.743 340.992L405.763 340.532C404.543 340.232 403.163 339.652 403.163 337.792C403.163 336.092 404.703 334.772 406.923 334.772C409.103 334.772 410.543 335.892 410.903 337.492L409.103 338.032H409.023C408.843 336.932 408.003 336.332 406.923 336.332C405.843 336.332 405.163 336.972 405.163 337.652C405.163 338.332 405.683 338.672 406.463 338.872L408.243 339.312C409.803 339.692 411.143 340.272 411.143 342.372C411.143 344.172 409.543 345.552 407.223 345.552Z" fill="black"/>
<path d="M427.02 345V341.58H419.5V339.74L426.74 330.58H429.1V339.76H431.1V341.58H429.1V345H427.02ZM421.72 339.76H427.02V333.02L421.72 339.76ZM431.95 342.72H434.31V345H431.95V342.72ZM440.831 345.2C437.811 345.2 435.691 343.4 435.611 340.96L437.651 340.52H437.731C437.791 342.26 438.971 343.38 440.811 343.38C442.611 343.38 443.851 342.38 443.851 340.92C443.851 339.34 442.531 338.4 440.651 338.4C440.231 338.4 439.871 338.4 439.431 338.42V336.66C439.871 336.68 440.111 336.68 440.371 336.68C442.111 336.68 443.291 335.5 443.291 334.28C443.291 333.08 442.231 332.2 440.791 332.2C439.251 332.2 438.111 333.3 437.991 334.74H437.911L435.931 334.34C436.031 332.34 438.011 330.38 440.791 330.38C443.471 330.38 445.411 331.94 445.411 334.14C445.411 335.8 444.211 337.16 442.731 337.46C444.651 337.58 445.971 339.12 445.971 341C445.971 343.5 443.851 345.2 440.831 345.2ZM447.137 345V343.22L452.497 338.62C454.117 337.24 454.857 336.08 454.857 334.78C454.857 333.22 453.817 332.2 452.217 332.2C450.297 332.2 449.297 333.6 449.457 335.74H449.377L447.377 335.46C447.197 332.5 449.217 330.38 452.217 330.38C455.097 330.38 456.997 332.12 456.997 334.78C456.997 336.56 456.017 338.18 453.757 340.04L450.077 343.18H456.997V345H447.137ZM461.47 337.62C459.47 337.62 458.09 336.08 458.09 334C458.09 331.92 459.47 330.38 461.47 330.38C463.45 330.38 464.83 331.9 464.83 334C464.83 336.1 463.45 337.62 461.47 337.62ZM470.63 345.18C468.63 345.18 467.25 343.62 467.25 341.56C467.25 339.48 468.63 337.94 470.63 337.94C472.61 337.94 473.99 339.46 473.99 341.56C473.99 343.64 472.61 345.18 470.63 345.18ZM460.39 345L470.03 330.58H471.71L462.07 345H460.39ZM461.47 336.22C462.53 336.22 463.23 335.34 463.23 334C463.23 332.66 462.53 331.78 461.47 331.78C460.41 331.78 459.71 332.66 459.71 334C459.71 335.34 460.41 336.22 461.47 336.22ZM470.63 343.78C471.69 343.78 472.37 342.9 472.37 341.56C472.37 340.22 471.69 339.34 470.63 339.34C469.55 339.34 468.87 340.22 468.87 341.56C468.87 342.9 469.55 343.78 470.63 343.78Z" fill="#D22525"/>
<path d="M448.64 387.82C446.58 387.82 446.06 386.28 444.76 386.28C444.1 386.28 443.54 386.7 443.38 387.7L441.76 387.46C441.88 385.72 443.06 384.56 444.76 384.56C446.8 384.56 447.34 386.1 448.64 386.1C449.32 386.1 449.86 385.66 450.02 384.68L451.64 384.92C451.54 386.68 450.32 387.82 448.64 387.82ZM460.387 393V389.58H452.867V387.74L460.107 378.58H462.467V387.76H464.467V389.58H462.467V393H460.387ZM455.087 387.76H460.387V381.02L455.087 387.76ZM468.06 385.62C466.06 385.62 464.68 384.08 464.68 382C464.68 379.92 466.06 378.38 468.06 378.38C470.04 378.38 471.42 379.9 471.42 382C471.42 384.1 470.04 385.62 468.06 385.62ZM477.22 393.18C475.22 393.18 473.84 391.62 473.84 389.56C473.84 387.48 475.22 385.94 477.22 385.94C479.2 385.94 480.58 387.46 480.58 389.56C480.58 391.64 479.2 393.18 477.22 393.18ZM466.98 393L476.62 378.58H478.3L468.66 393H466.98ZM468.06 384.22C469.12 384.22 469.82 383.34 469.82 382C469.82 380.66 469.12 379.78 468.06 379.78C467 379.78 466.3 380.66 466.3 382C466.3 383.34 467 384.22 468.06 384.22ZM477.22 391.78C478.28 391.78 478.96 390.9 478.96 389.56C478.96 388.22 478.28 387.34 477.22 387.34C476.14 387.34 475.46 388.22 475.46 389.56C475.46 390.9 476.14 391.78 477.22 391.78Z" fill="#D22525"/>
<path d="M379.19 392.586V378.166H384.47C385.843 378.166 386.95 378.479 387.79 379.106C388.63 379.733 389.05 380.639 389.05 381.826C389.05 382.519 388.856 383.126 388.47 383.646C388.096 384.166 387.623 384.553 387.05 384.806C387.823 385.086 388.436 385.526 388.89 386.126C389.343 386.713 389.57 387.459 389.57 388.366C389.57 389.739 389.143 390.786 388.29 391.506C387.436 392.226 386.256 392.586 384.75 392.586H379.19ZM381.27 390.766H384.37C385.383 390.766 386.143 390.553 386.65 390.126C387.17 389.686 387.43 389.073 387.43 388.286C387.43 387.513 387.17 386.919 386.65 386.506C386.143 386.079 385.383 385.866 384.37 385.866H381.27V390.766ZM381.27 384.066H384.37C385.196 384.066 385.83 383.893 386.27 383.546C386.71 383.199 386.93 382.699 386.93 382.046C386.93 381.393 386.71 380.886 386.27 380.526C385.83 380.166 385.196 379.986 384.37 379.986H381.27V384.066ZM395.936 392.786C394.936 392.786 394.042 392.553 393.256 392.086C392.482 391.619 391.876 390.979 391.436 390.166C390.996 389.339 390.776 388.413 390.776 387.386C390.776 386.359 390.996 385.439 391.436 384.626C391.876 383.813 392.482 383.173 393.256 382.706C394.042 382.239 394.936 382.006 395.936 382.006C396.936 382.006 397.822 382.239 398.596 382.706C399.382 383.173 399.996 383.813 400.436 384.626C400.889 385.439 401.116 386.359 401.116 387.386C401.116 388.413 400.889 389.339 400.436 390.166C399.996 390.979 399.382 391.619 398.596 392.086C397.822 392.553 396.936 392.786 395.936 392.786ZM395.936 391.086C396.562 391.086 397.109 390.926 397.576 390.606C398.056 390.286 398.429 389.846 398.696 389.286C398.976 388.726 399.116 388.093 399.116 387.386C399.116 386.666 398.976 386.033 398.696 385.486C398.429 384.926 398.056 384.493 397.576 384.186C397.096 383.866 396.549 383.706 395.936 383.706C395.322 383.706 394.776 383.866 394.296 384.186C393.816 384.493 393.442 384.926 393.176 385.486C392.909 386.033 392.776 386.666 392.776 387.386C392.776 388.093 392.909 388.726 393.176 389.286C393.442 389.846 393.816 390.286 394.296 390.606C394.776 390.926 395.322 391.086 395.936 391.086ZM402.879 392.586V382.206H404.799V383.726C405.132 383.259 405.572 382.859 406.119 382.526C406.679 382.179 407.312 382.006 408.019 382.006C408.779 382.006 409.445 382.153 410.019 382.446C410.605 382.739 411.065 383.159 411.399 383.706C411.732 384.253 411.899 384.906 411.899 385.666V392.586H409.959V386.106C409.959 385.359 409.752 384.773 409.339 384.346C408.925 383.919 408.352 383.706 407.619 383.706C406.925 383.706 406.325 383.959 405.819 384.466C405.312 384.973 404.972 385.586 404.799 386.306V392.586H402.879ZM418.429 392.786C417.496 392.786 416.656 392.553 415.909 392.086C415.176 391.619 414.596 390.979 414.169 390.166C413.756 389.353 413.549 388.426 413.549 387.386C413.549 386.346 413.756 385.419 414.169 384.606C414.596 383.793 415.176 383.159 415.909 382.706C416.656 382.239 417.496 382.006 418.429 382.006C419.136 382.006 419.789 382.166 420.389 382.486C421.003 382.806 421.456 383.213 421.749 383.706V377.966H423.689V392.586H421.749V391.066C421.456 391.559 421.003 391.973 420.389 392.306C419.789 392.626 419.136 392.786 418.429 392.786ZM418.709 391.086C419.549 391.086 420.249 390.799 420.809 390.226C421.369 389.653 421.683 388.926 421.749 388.046V386.706C421.696 385.826 421.383 385.106 420.809 384.546C420.249 383.986 419.549 383.706 418.709 383.706C418.096 383.706 417.549 383.859 417.069 384.166C416.603 384.473 416.229 384.899 415.949 385.446C415.683 385.993 415.549 386.633 415.549 387.366C415.549 388.099 415.683 388.746 415.949 389.306C416.229 389.866 416.603 390.306 417.069 390.626C417.549 390.933 418.096 391.086 418.709 391.086ZM429.684 392.786C428.804 392.786 428.044 392.639 427.404 392.346C426.777 392.053 426.284 391.673 425.924 391.206C425.577 390.726 425.364 390.206 425.284 389.646L427.064 389.026H427.144C427.25 389.679 427.524 390.193 427.964 390.566C428.417 390.939 428.99 391.126 429.684 391.126C430.257 391.126 430.717 390.993 431.064 390.726C431.41 390.446 431.584 390.079 431.584 389.626C431.584 389.239 431.457 388.939 431.204 388.726C430.964 388.499 430.63 388.333 430.204 388.226L428.224 387.766C427.824 387.659 427.424 387.513 427.024 387.326C426.624 387.139 426.29 386.866 426.024 386.506C425.757 386.133 425.624 385.639 425.624 385.026C425.624 384.453 425.784 383.939 426.104 383.486C426.424 383.033 426.864 382.673 427.424 382.406C427.997 382.139 428.65 382.006 429.384 382.006C430.477 382.006 431.37 382.259 432.064 382.766C432.757 383.273 433.19 383.926 433.364 384.726L431.564 385.266H431.484C431.39 384.719 431.15 384.299 430.764 384.006C430.39 383.713 429.93 383.566 429.384 383.566C428.85 383.566 428.424 383.699 428.104 383.966C427.784 384.233 427.624 384.539 427.624 384.886C427.624 385.219 427.744 385.479 427.984 385.666C428.224 385.853 428.537 385.999 428.924 386.106L430.704 386.546C431.224 386.666 431.704 386.833 432.144 387.046C432.584 387.259 432.937 387.566 433.204 387.966C433.47 388.353 433.604 388.899 433.604 389.606C433.604 390.206 433.437 390.746 433.104 391.226C432.77 391.706 432.31 392.086 431.724 392.366C431.137 392.646 430.457 392.786 429.684 392.786Z" fill="black"/>
<path d="M388.29 439.828L381.21 428.588L381.25 438.548L381.27 439.748V439.828H379.19V425.408H381.55L388.63 436.628L388.59 426.688L388.57 425.488V425.408H390.65V439.828H388.29ZM393.174 439.828V425.408H399.094C401.934 425.408 403.674 427.068 403.674 429.648C403.674 432.188 401.934 433.928 399.094 433.928H395.254V439.828H393.174ZM395.254 432.108H398.854C400.554 432.108 401.534 431.148 401.534 429.648C401.534 428.168 400.554 427.228 398.854 427.228H395.254V432.108ZM409.944 440.028C407.004 440.028 404.604 438.148 404.384 435.608L406.324 435.168H406.404C406.564 436.948 408.104 438.208 409.944 438.208C411.824 438.208 413.024 437.288 413.024 435.948C413.024 434.748 412.204 434.048 411.024 433.708L408.444 432.948C406.544 432.408 404.944 431.428 404.944 429.108C404.944 426.768 407.004 425.208 409.844 425.208C412.564 425.208 414.704 426.728 414.944 428.888L413.044 429.348H412.964C412.704 427.968 411.544 427.028 409.844 427.028C408.104 427.028 407.084 427.788 407.084 429.008C407.084 430.088 407.864 430.648 408.984 430.968L411.624 431.728C413.564 432.288 415.164 433.328 415.164 435.848C415.164 438.368 413.064 440.028 409.944 440.028Z" fill="black"/>
<path d="M383.89 487.263C380.95 487.263 378.55 485.382 378.33 482.842L380.27 482.402H380.35C380.51 484.182 382.05 485.442 383.89 485.442C385.77 485.442 386.97 484.522 386.97 483.182C386.97 481.982 386.15 481.282 384.97 480.942L382.39 480.182C380.49 479.642 378.89 478.662 378.89 476.342C378.89 474.002 380.95 472.442 383.79 472.442C386.51 472.442 388.65 473.962 388.89 476.122L386.99 476.582H386.91C386.65 475.202 385.49 474.262 383.79 474.262C382.05 474.262 381.03 475.022 381.03 476.242C381.03 477.322 381.81 477.882 382.93 478.202L385.57 478.962C387.51 479.522 389.11 480.562 389.11 483.082C389.11 485.602 387.01 487.263 383.89 487.263ZM393.933 487.062L389.933 473.922L389.573 472.722V472.642H391.793L391.833 472.722L392.153 473.922L394.513 482.222C394.933 483.742 395.113 484.842 395.113 484.842C395.113 484.842 395.313 483.742 395.713 482.222L397.933 474.242L398.013 473.922L398.333 472.722L398.353 472.642H400.773L401.093 473.922L403.393 482.222C403.773 483.762 403.973 484.862 403.973 484.862C403.973 484.862 404.173 483.762 404.573 482.222L406.913 473.922L407.233 472.722L407.273 472.642H409.473V472.722L409.093 473.922L405.153 487.062H402.773L400.193 478.002C399.773 476.482 399.573 475.382 399.573 475.382C399.573 475.382 399.353 476.482 398.913 478.002L396.293 487.062H393.933ZM410.869 487.062V472.642H416.789C419.629 472.642 421.369 474.302 421.369 476.882C421.369 479.422 419.629 481.162 416.789 481.162H412.949V487.062H410.869ZM412.949 479.342H416.549C418.249 479.342 419.229 478.382 419.229 476.882C419.229 475.402 418.249 474.462 416.549 474.462H412.949V479.342Z" fill="black"/>
<path d="M62.634 331.14C60.366 331.14 58.882 329.754 58.882 327.612V320.906H59.918V327.71C59.918 329.222 60.996 330.23 62.634 330.23C64.286 330.23 65.364 329.222 65.364 327.71V320.906H66.4V327.612C66.4 329.754 64.902 331.14 62.634 331.14ZM70.9048 331.14C69.0848 331.14 68.1468 330.146 67.9508 328.998L68.8188 328.564H68.8748C69.0288 329.586 69.7008 330.286 70.9048 330.286C71.8568 330.286 72.5008 329.782 72.5008 328.984C72.5008 328.298 72.0248 327.948 71.3248 327.78L69.9248 327.444C69.0428 327.22 68.1888 326.8 68.1888 325.582C68.1888 324.462 69.2108 323.594 70.6668 323.594C72.1368 323.594 73.0468 324.308 73.3268 325.47L72.4308 325.82H72.3748C72.2208 324.924 71.5768 324.42 70.6668 324.42C69.7708 324.42 69.1968 324.952 69.1968 325.554C69.1968 326.142 69.6448 326.45 70.2328 326.59L71.5908 326.926C72.5988 327.192 73.5088 327.598 73.5088 328.984C73.5088 330.272 72.4448 331.14 70.9048 331.14ZM75.7319 327.402C75.7599 329.194 76.7679 330.286 78.2519 330.286C79.4279 330.286 80.1279 329.782 80.4359 328.676L81.4019 329.012C80.9959 330.314 79.8759 331.14 78.2379 331.14C76.2079 331.14 74.7659 329.586 74.7659 327.36C74.7659 325.148 76.1659 323.594 78.1959 323.594C80.9679 323.594 81.5559 326.03 81.3879 327.402H75.7319ZM78.1959 324.406C76.8659 324.406 76.0119 325.302 75.7879 326.632H80.4079C80.3239 325.288 79.4979 324.406 78.1959 324.406ZM83.1601 331V323.734H84.0981V325.022C84.5041 324.224 85.2321 323.594 86.2261 323.594C86.3661 323.594 86.5061 323.594 86.6321 323.622V324.546C85.0921 324.28 84.3081 325.624 84.0981 326.548V331H83.1601ZM92.9895 331.14C91.5615 331.14 90.5395 330.328 90.5395 329.068C90.5395 327.836 91.4635 327.094 92.9615 326.856L95.4955 326.464V326.212C95.4955 324.98 94.7115 324.42 93.6755 324.42C92.4715 324.42 91.8415 325.05 91.6175 325.96L90.6795 325.652C91.0155 324.56 91.9675 323.594 93.6755 323.594C95.2575 323.594 96.4335 324.476 96.4335 326.142V331H95.4955V329.642C94.9915 330.594 94.0395 331.14 92.9895 331.14ZM95.4955 328.368V327.262L93.0875 327.654C92.1215 327.808 91.5335 328.228 91.5335 329.04C91.5335 329.824 92.1775 330.328 93.0875 330.328C94.4455 330.328 95.2435 329.334 95.4955 328.368ZM99.4622 330.104V330.944V331H98.5242V320.766H99.4622V330.104ZM103.129 331L101.155 324.56L100.917 323.79V323.734H101.883L101.897 323.79L102.121 324.56L103.619 329.67L105.131 324.742L105.173 324.56L105.411 323.79L105.439 323.734H106.377L106.405 323.804L106.643 324.56L108.211 329.67L109.681 324.56L109.905 323.79L109.919 323.734H110.927V323.79L110.689 324.56L108.715 331H107.707L105.901 325.134L104.095 331H103.129ZM114.205 331.14C112.777 331.14 111.755 330.328 111.755 329.068C111.755 327.836 112.679 327.094 114.177 326.856L116.711 326.464V326.212C116.711 324.98 115.927 324.42 114.891 324.42C113.687 324.42 113.057 325.05 112.833 325.96L111.895 325.652C112.231 324.56 113.183 323.594 114.891 323.594C116.473 323.594 117.649 324.476 117.649 326.142V331H116.711V329.642C116.207 330.594 115.255 331.14 114.205 331.14ZM116.711 328.368V327.262L114.303 327.654C113.337 327.808 112.749 328.228 112.749 329.04C112.749 329.824 113.393 330.328 114.303 330.328C115.661 330.328 116.459 329.334 116.711 328.368ZM119.926 333.758C119.464 333.758 119.03 333.646 118.806 333.478L119.114 332.68C119.296 332.806 119.618 332.876 119.94 332.876C120.486 332.876 121.06 332.512 121.368 331.588L121.522 331.14L119.1 324.588L118.806 323.79V323.734H119.772L119.786 323.79L120.066 324.588L121.984 329.936L123.874 324.588L124.14 323.79L124.168 323.734H125.162V323.79L124.854 324.588L122.222 331.868C121.76 333.114 121.046 333.758 119.926 333.758ZM128.755 331.14C126.935 331.14 125.997 330.146 125.801 328.998L126.669 328.564H126.725C126.879 329.586 127.551 330.286 128.755 330.286C129.707 330.286 130.351 329.782 130.351 328.984C130.351 328.298 129.875 327.948 129.175 327.78L127.775 327.444C126.893 327.22 126.039 326.8 126.039 325.582C126.039 324.462 127.061 323.594 128.517 323.594C129.987 323.594 130.897 324.308 131.177 325.47L130.281 325.82H130.225C130.071 324.924 129.427 324.42 128.517 324.42C127.621 324.42 127.047 324.952 127.047 325.554C127.047 326.142 127.495 326.45 128.083 326.59L129.441 326.926C130.449 327.192 131.359 327.598 131.359 328.984C131.359 330.272 130.295 331.14 128.755 331.14ZM59.82 347.104V347.944V348H58.882V337.766H59.82V347.104ZM63.991 348.14C62.563 348.14 61.541 347.328 61.541 346.068C61.541 344.836 62.465 344.094 63.963 343.856L66.497 343.464V343.212C66.497 341.98 65.713 341.42 64.677 341.42C63.473 341.42 62.843 342.05 62.619 342.96L61.681 342.652C62.017 341.56 62.969 340.594 64.677 340.594C66.259 340.594 67.435 341.476 67.435 343.142V348H66.497V346.642C65.993 347.594 65.041 348.14 63.991 348.14ZM66.497 345.368V344.262L64.089 344.654C63.123 344.808 62.535 345.228 62.535 346.04C62.535 346.824 63.179 347.328 64.089 347.328C65.447 347.328 66.245 346.334 66.497 345.368ZM69.5258 348V340.734H70.4638V341.966C70.9258 341.266 71.7938 340.594 72.8998 340.594C74.5098 340.594 75.5878 341.56 75.5878 343.128V348H74.6358V343.324C74.6358 342.162 73.9218 341.462 72.7738 341.462C71.6538 341.462 70.7578 342.372 70.4638 343.464V348H69.5258ZM80.6737 348.14C78.7137 348.14 77.2577 346.544 77.2577 344.36C77.2577 342.176 78.7137 340.594 80.6737 340.594C81.6957 340.594 82.7317 341.14 83.1797 341.952V337.766H84.1177V348H83.1797V346.754C82.7317 347.58 81.6957 348.14 80.6737 348.14ZM80.7577 347.272C82.1017 347.272 83.0817 346.25 83.1797 344.85V343.87C83.0817 342.456 82.1017 341.462 80.7577 341.462C79.2877 341.462 78.2517 342.61 78.2517 344.36C78.2517 346.11 79.2877 347.272 80.7577 347.272ZM86.8268 344.402C86.8548 346.194 87.8628 347.286 89.3468 347.286C90.5228 347.286 91.2228 346.782 91.5308 345.676L92.4968 346.012C92.0908 347.314 90.9708 348.14 89.3328 348.14C87.3028 348.14 85.8608 346.586 85.8608 344.36C85.8608 342.148 87.2608 340.594 89.2908 340.594C92.0628 340.594 92.6508 343.03 92.4828 344.402H86.8268ZM89.2908 341.406C87.9608 341.406 87.1068 342.302 86.8828 343.632H91.5028C91.4188 342.288 90.5928 341.406 89.2908 341.406ZM97.251 348.14C95.291 348.14 93.835 346.544 93.835 344.36C93.835 342.176 95.291 340.594 97.251 340.594C98.273 340.594 99.309 341.14 99.757 341.952V337.766H100.695V348H99.757V346.754C99.309 347.58 98.273 348.14 97.251 348.14ZM97.335 347.272C98.679 347.272 99.659 346.25 99.757 344.85V343.87C99.659 342.456 98.679 341.462 97.335 341.462C95.865 341.462 94.829 342.61 94.829 344.36C94.829 346.11 95.865 347.272 97.335 347.272ZM106.116 348V337.766H107.054V341.966C107.516 341.266 108.384 340.594 109.49 340.594C111.1 340.594 112.178 341.56 112.178 343.128V348H111.226V343.324C111.226 342.162 110.512 341.462 109.364 341.462C108.244 341.462 107.348 342.372 107.054 343.464V348H106.116ZM114.814 344.402C114.842 346.194 115.85 347.286 117.334 347.286C118.51 347.286 119.21 346.782 119.518 345.676L120.484 346.012C120.078 347.314 118.958 348.14 117.32 348.14C115.29 348.14 113.848 346.586 113.848 344.36C113.848 342.148 115.248 340.594 117.278 340.594C120.05 340.594 120.638 343.03 120.47 344.402H114.814ZM117.278 341.406C115.948 341.406 115.094 342.302 114.87 343.632H119.49C119.406 342.288 118.58 341.406 117.278 341.406ZM122.242 348V340.734H123.18V342.022C123.586 341.224 124.314 340.594 125.308 340.594C125.448 340.594 125.588 340.594 125.714 340.622V341.546C124.174 341.28 123.39 342.624 123.18 343.548V348H122.242ZM127.166 344.402C127.194 346.194 128.202 347.286 129.686 347.286C130.862 347.286 131.562 346.782 131.87 345.676L132.836 346.012C132.43 347.314 131.31 348.14 129.672 348.14C127.642 348.14 126.2 346.586 126.2 344.36C126.2 342.148 127.6 340.594 129.63 340.594C132.402 340.594 132.99 343.03 132.822 344.402H127.166ZM129.63 341.406C128.3 341.406 127.446 342.302 127.222 343.632H131.842C131.758 342.288 130.932 341.406 129.63 341.406Z" fill="black"/>
<path d="M533 179C533 176.791 534.791 175 537 175H601C603.209 175 605 176.791 605 179V201H533V179Z" fill="#D22525"/>
<path d="M547.72 193V184.68H545.24V183.416C547.352 183.384 547.848 183.096 548.088 181.464H549.384V193H547.72ZM556.791 193V190.264H550.775V188.792L556.567 181.464H558.455V188.808H560.055V190.264H558.455V193H556.791ZM552.551 188.808H556.791V183.416L552.551 188.808ZM560.735 191.176H562.623V193H560.735V191.176ZM564.776 193C564.696 189.528 566.072 185.752 568.904 182.92H562.552V181.464H570.648V182.952C567.624 186.088 566.312 189.848 566.44 193H564.776ZM571.15 193V191.576L575.438 187.896C576.734 186.792 577.326 185.864 577.326 184.824C577.326 183.576 576.494 182.76 575.214 182.76C573.678 182.76 572.878 183.88 573.006 185.592H572.942L571.342 185.368C571.198 183 572.814 181.304 575.214 181.304C577.518 181.304 579.038 182.696 579.038 184.824C579.038 186.248 578.254 187.544 576.446 189.032L573.502 191.544H579.038V193H571.15ZM582.617 187.096C581.017 187.096 579.913 185.864 579.913 184.2C579.913 182.536 581.017 181.304 582.617 181.304C584.201 181.304 585.305 182.52 585.305 184.2C585.305 185.88 584.201 187.096 582.617 187.096ZM589.945 193.144C588.345 193.144 587.241 191.896 587.241 190.248C587.241 188.584 588.345 187.352 589.945 187.352C591.529 187.352 592.633 188.568 592.633 190.248C592.633 191.912 591.529 193.144 589.945 193.144ZM581.753 193L589.465 181.464H590.809L583.097 193H581.753ZM582.617 185.976C583.465 185.976 584.025 185.272 584.025 184.2C584.025 183.128 583.465 182.424 582.617 182.424C581.769 182.424 581.209 183.128 581.209 184.2C581.209 185.272 581.769 185.976 582.617 185.976ZM589.945 192.024C590.793 192.024 591.337 191.32 591.337 190.248C591.337 189.176 590.793 188.472 589.945 188.472C589.081 188.472 588.537 189.176 588.537 190.248C588.537 191.32 589.081 192.024 589.945 192.024Z" fill="white"/>
<path d="M658 179C658 176.791 659.791 175 662 175H723C725.209 175 727 176.791 727 179V201H658V179Z" fill="#D22525"/>
<path d="M675.056 193.16C672.64 193.16 670.88 191.896 670.88 189.72C670.88 188.408 671.712 187.32 672.976 186.904C671.952 186.456 671.248 185.448 671.248 184.456C671.248 182.6 672.784 181.304 675.056 181.304C677.344 181.304 678.88 182.6 678.88 184.456C678.88 185.448 678.176 186.456 677.152 186.904C678.4 187.304 679.248 188.392 679.248 189.72C679.248 191.896 677.488 193.16 675.056 193.16ZM675.056 191.784C676.576 191.784 677.568 191 677.568 189.752C677.568 188.488 676.576 187.688 675.056 187.688C673.552 187.688 672.56 188.488 672.56 189.752C672.56 191 673.552 191.784 675.056 191.784ZM675.056 186.296C676.352 186.296 677.232 185.576 677.232 184.552C677.232 183.448 676.368 182.68 675.056 182.68C673.76 182.68 672.896 183.448 672.896 184.552C672.896 185.576 673.776 186.296 675.056 186.296ZM680.321 191.176H682.209V193H680.321V191.176ZM687.511 181.304C690.343 181.304 691.895 183.672 691.895 186.872C691.895 190.712 690.055 193.16 687.207 193.16C685.303 193.16 683.719 192.184 683.351 190.2L684.951 189.928H685.015C685.143 191.032 686.039 191.704 687.191 191.704C689.063 191.704 690.247 189.96 690.279 187.576C690.279 187.496 690.295 187.416 690.295 187.272C689.783 188.312 688.663 189.096 687.159 189.096C685.015 189.096 683.303 187.56 683.303 185.32C683.303 182.968 685.063 181.304 687.511 181.304ZM687.479 182.76C686.039 182.76 685.015 183.848 685.015 185.32C685.015 186.76 686.039 187.784 687.479 187.784C688.839 187.784 689.751 186.824 690.103 185.528C690.007 183.816 688.903 182.76 687.479 182.76ZM692.892 193V191.576L697.18 187.896C698.476 186.792 699.068 185.864 699.068 184.824C699.068 183.576 698.236 182.76 696.956 182.76C695.42 182.76 694.62 183.88 694.748 185.592H694.684L693.084 185.368C692.94 183 694.556 181.304 696.956 181.304C699.26 181.304 700.78 182.696 700.78 184.824C700.78 186.248 699.996 187.544 698.188 189.032L695.244 191.544H700.78V193H692.892ZM704.359 187.096C702.759 187.096 701.655 185.864 701.655 184.2C701.655 182.536 702.759 181.304 704.359 181.304C705.943 181.304 707.047 182.52 707.047 184.2C707.047 185.88 705.943 187.096 704.359 187.096ZM711.687 193.144C710.087 193.144 708.983 191.896 708.983 190.248C708.983 188.584 710.087 187.352 711.687 187.352C713.271 187.352 714.375 188.568 714.375 190.248C714.375 191.912 713.271 193.144 711.687 193.144ZM703.495 193L711.207 181.464H712.551L704.839 193H703.495ZM704.359 185.976C705.207 185.976 705.767 185.272 705.767 184.2C705.767 183.128 705.207 182.424 704.359 182.424C703.511 182.424 702.951 183.128 702.951 184.2C702.951 185.272 703.511 185.976 704.359 185.976ZM711.687 192.024C712.535 192.024 713.079 191.32 713.079 190.248C713.079 189.176 712.535 188.472 711.687 188.472C710.823 188.472 710.279 189.176 710.279 190.248C710.279 191.32 710.823 192.024 711.687 192.024Z" fill="white"/>
<g clip-path="url(#clip0_1583_26096)">
<path d="M631.777 196.997H754.721V282.699H631.777V196.997Z" fill="white"/>
<path d="M678.242 264.466C675.228 264.466 672.826 262.268 672.826 259.049C672.826 255.83 675.228 253.632 678.242 253.632C680.44 253.632 681.743 254.731 682.528 255.987L680.958 256.788C680.456 255.925 679.451 255.265 678.242 255.265C676.248 255.265 674.71 256.851 674.71 259.049C674.71 261.247 676.248 262.833 678.242 262.833C679.451 262.833 680.456 262.189 680.958 261.31L682.528 262.111C681.728 263.367 680.44 264.466 678.242 264.466ZM688.583 264.277V263.461C688.018 264.105 687.139 264.466 686.134 264.466C684.894 264.466 683.496 263.634 683.496 261.954C683.496 260.211 684.894 259.489 686.134 259.489C687.154 259.489 688.034 259.818 688.583 260.462V259.332C688.583 258.452 687.861 257.919 686.809 257.919C685.961 257.919 685.223 258.233 684.564 258.876L683.889 257.73C684.768 256.898 685.867 256.506 687.076 256.506C688.756 256.506 690.232 257.212 690.232 259.253V264.277H688.583ZM688.583 262.55V261.404C688.206 260.886 687.5 260.619 686.778 260.619C685.851 260.619 685.161 261.153 685.161 261.985C685.161 262.801 685.851 263.335 686.778 263.335C687.5 263.335 688.206 263.068 688.583 262.55ZM691.71 263.288L692.463 262.095C692.997 262.644 694.049 263.163 695.038 263.163C696.027 263.163 696.53 262.801 696.53 262.236C696.53 261.577 695.729 261.341 694.803 261.137C693.5 260.855 691.945 260.509 691.945 258.814C691.945 257.573 693.013 256.506 694.928 256.506C696.216 256.506 697.189 256.961 697.88 257.573L697.189 258.735C696.734 258.217 695.886 257.824 694.944 257.824C694.08 257.824 693.531 258.138 693.531 258.672C693.531 259.253 694.285 259.457 695.18 259.661C696.498 259.944 698.116 260.321 698.116 262.111C698.116 263.445 697.001 264.466 694.96 264.466C693.672 264.466 692.495 264.058 691.71 263.288ZM704.909 264.277V259.504C704.909 258.327 704.296 257.966 703.37 257.966C702.538 257.966 701.816 258.468 701.423 258.986V264.277H699.775V253.805H701.423V257.73C701.926 257.134 702.915 256.506 704.108 256.506C705.741 256.506 706.557 257.353 706.557 258.908V264.277H704.909Z" fill="#7A7A7A"/>
<path d="M695.172 219.202H684.57V220.916H691.238V222.541H684.57V224.255H691.238V224.511C691.238 225.267 690.626 225.88 689.871 225.88H685.426C685.065 225.88 684.744 226.106 684.621 226.445C684.498 226.784 684.601 227.164 684.878 227.395L691.546 232.96L692.642 231.643L687.789 227.594H689.871C691.571 227.594 692.95 226.213 692.95 224.511V224.255H695.172V222.541H692.95V220.916H695.172V219.202Z" fill="#7A7A7A"/>
<path fill-rule="evenodd" clip-rule="evenodd" d="M689.87 211.794C682.275 211.794 676.117 217.961 676.117 225.568C676.117 233.175 682.275 239.342 689.87 239.342C697.466 239.342 703.624 233.175 703.624 225.568C703.624 217.961 697.466 211.794 689.87 211.794ZM677.951 225.568C677.951 218.975 683.288 213.631 689.87 213.631C696.453 213.631 701.79 218.975 701.79 225.568C701.79 232.161 696.453 237.505 689.87 237.505C683.288 237.505 677.951 232.161 677.951 225.568Z" fill="#7A7A7A"/>
<path d="M508.832 196.997H631.776V282.699H508.832V196.997Z" fill="white"/>
<path d="M529.785 264.277V253.805H531.622V264.277H529.785ZM538.919 264.277V259.536C538.919 258.358 538.322 257.966 537.396 257.966C536.548 257.966 535.826 258.468 535.449 258.986V264.277H533.801V256.694H535.449V257.73C535.952 257.134 536.925 256.506 538.118 256.506C539.751 256.506 540.568 257.385 540.568 258.939V264.277H538.919ZM542.049 263.288L542.803 262.095C543.337 262.644 544.389 263.163 545.378 263.163C546.367 263.163 546.869 262.801 546.869 262.236C546.869 261.577 546.069 261.341 545.142 261.137C543.839 260.855 542.285 260.509 542.285 258.814C542.285 257.573 543.353 256.506 545.268 256.506C546.555 256.506 547.529 256.961 548.22 257.573L547.529 258.735C547.074 258.217 546.226 257.824 545.284 257.824C544.42 257.824 543.871 258.138 543.871 258.672C543.871 259.253 544.624 259.457 545.519 259.661C546.838 259.944 548.455 260.321 548.455 262.111C548.455 263.445 547.34 264.466 545.299 264.466C544.012 264.466 542.834 264.058 542.049 263.288ZM555.233 264.277V263.273C554.683 263.885 553.741 264.466 552.548 264.466C550.915 264.466 550.114 263.618 550.114 262.064V256.694H551.763V261.467C551.763 262.644 552.36 263.006 553.286 263.006C554.118 263.006 554.84 262.535 555.233 262.016V256.694H556.881V264.277H555.233ZM559.023 264.277V256.694H560.671V257.809C561.236 257.087 562.147 256.521 563.136 256.521V258.154C562.995 258.123 562.822 258.107 562.618 258.107C561.927 258.107 561.001 258.578 560.671 259.112V264.277H559.023ZM569.097 264.277V263.461C568.532 264.105 567.653 264.466 566.648 264.466C565.408 264.466 564.01 263.634 564.01 261.954C564.01 260.211 565.408 259.489 566.648 259.489C567.669 259.489 568.548 259.818 569.097 260.462V259.332C569.097 258.452 568.375 257.919 567.323 257.919C566.475 257.919 565.737 258.233 565.078 258.876L564.403 257.73C565.282 256.898 566.381 256.506 567.59 256.506C569.27 256.506 570.746 257.212 570.746 259.253V264.277H569.097ZM569.097 262.55V261.404C568.721 260.886 568.014 260.619 567.292 260.619C566.365 260.619 565.675 261.153 565.675 261.985C565.675 262.801 566.365 263.335 567.292 263.335C568.014 263.335 568.721 263.068 569.097 262.55ZM578.002 264.277V259.536C578.002 258.358 577.405 257.966 576.479 257.966C575.631 257.966 574.909 258.468 574.532 258.986V264.277H572.883V256.694H574.532V257.73C575.034 257.134 576.008 256.506 577.201 256.506C578.834 256.506 579.65 257.385 579.65 258.939V264.277H578.002ZM581.32 260.478C581.32 258.186 582.938 256.506 585.246 256.506C586.721 256.506 587.616 257.134 588.15 257.856L587.067 258.861C586.643 258.264 586.062 257.966 585.324 257.966C583.942 257.966 583.032 259.002 583.032 260.478C583.032 261.954 583.942 263.006 585.324 263.006C586.062 263.006 586.643 262.692 587.067 262.111L588.15 263.116C587.616 263.838 586.721 264.466 585.246 264.466C582.938 264.466 581.32 262.786 581.32 260.478ZM589.125 260.478C589.125 258.28 590.726 256.506 592.971 256.506C595.248 256.506 596.708 258.248 596.708 260.635V261.027H590.852C590.977 262.173 591.841 263.116 593.27 263.116C594.008 263.116 594.887 262.817 595.421 262.283L596.174 263.367C595.421 264.089 594.306 264.466 593.097 264.466C590.82 264.466 589.125 262.88 589.125 260.478ZM592.971 257.856C591.558 257.856 590.915 258.939 590.836 259.866H595.107C595.075 258.971 594.463 257.856 592.971 257.856Z" fill="#7A7A7A"/>
<path d="M566.318 228.705L571.245 223.77L569.948 222.472L566.318 226.107L564.521 224.308L563.224 225.607L566.318 228.705Z" fill="#7A7A7A"/>
<path fill-rule="evenodd" clip-rule="evenodd" d="M569.028 212.959C568.516 212.234 567.683 211.923 566.929 211.923C566.176 211.923 565.342 212.234 564.831 212.959C562.782 215.859 559.595 217.891 555.924 218.403C554.862 218.551 553.909 219.477 554.016 220.707C554.709 228.634 559.333 235.429 565.92 239.129C566.548 239.482 567.315 239.482 567.943 239.129C574.53 235.429 579.154 228.634 579.847 220.708C579.954 219.478 579 218.551 577.938 218.404C574.266 217.892 571.077 215.86 569.028 212.959ZM566.328 214.019C566.426 213.881 566.638 213.76 566.929 213.76C567.221 213.76 567.433 213.881 567.531 214.019C569.863 217.321 573.496 219.639 577.686 220.223C577.8 220.238 577.894 220.294 577.953 220.361C578.008 220.424 578.026 220.486 578.02 220.548C577.382 227.849 573.122 234.114 567.046 237.527C566.975 237.567 566.888 237.567 566.817 237.527C560.741 234.114 556.481 227.849 555.843 220.547C555.838 220.486 555.855 220.423 555.91 220.361C555.969 220.294 556.063 220.238 556.177 220.222C560.366 219.638 563.997 217.32 566.328 214.019Z" fill="#7A7A7A"/>
<path d="M385.891 196.997H508.835V282.699H385.891V196.997Z" fill="white"/>
<path d="M413.406 264.277V255.422H410.234V253.805H418.414V255.422H415.243V264.277H413.406ZM423.222 264.277V263.461C422.656 264.105 421.777 264.466 420.772 264.466C419.532 264.466 418.135 263.634 418.135 261.954C418.135 260.211 419.532 259.489 420.772 259.489C421.793 259.489 422.672 259.818 423.222 260.462V259.332C423.222 258.452 422.499 257.919 421.448 257.919C420.6 257.919 419.862 258.233 419.202 258.876L418.527 257.73C419.406 256.898 420.506 256.506 421.714 256.506C423.394 256.506 424.87 257.212 424.87 259.253V264.277H423.222ZM423.222 262.55V261.404C422.845 260.886 422.138 260.619 421.416 260.619C420.49 260.619 419.799 261.153 419.799 261.985C419.799 262.801 420.49 263.335 421.416 263.335C422.138 263.335 422.845 263.068 423.222 262.55ZM431.796 264.277L429.834 261.483L427.855 264.277H426.018L428.797 260.384L426.175 256.694H428.028L429.834 259.269L431.624 256.694H433.476L430.854 260.384L433.649 264.277H431.796ZM434.2 261.184V259.771H437.968V261.184H434.2ZM438.844 263.288L439.598 262.095C440.132 262.644 441.184 263.163 442.173 263.163C443.162 263.163 443.664 262.801 443.664 262.236C443.664 261.577 442.864 261.341 441.937 261.137C440.634 260.855 439.08 260.509 439.08 258.814C439.08 257.573 440.147 256.506 442.063 256.506C443.35 256.506 444.324 256.961 445.014 257.573L444.324 258.735C443.868 258.217 443.021 257.824 442.079 257.824C441.215 257.824 440.665 258.138 440.665 258.672C440.665 259.253 441.419 259.457 442.314 259.661C443.633 259.944 445.25 260.321 445.25 262.111C445.25 263.445 444.135 264.466 442.094 264.466C440.807 264.466 439.629 264.058 438.844 263.288ZM451.541 264.277V263.461C450.976 264.105 450.096 264.466 449.092 264.466C447.851 264.466 446.454 263.634 446.454 261.954C446.454 260.211 447.851 259.489 449.092 259.489C450.112 259.489 450.991 259.818 451.541 260.462V259.332C451.541 258.452 450.819 257.919 449.767 257.919C448.919 257.919 448.181 258.233 447.522 258.876L446.846 257.73C447.726 256.898 448.825 256.506 450.034 256.506C451.714 256.506 453.189 257.212 453.189 259.253V264.277H451.541ZM451.541 262.55V261.404C451.164 260.886 450.458 260.619 449.735 260.619C448.809 260.619 448.118 261.153 448.118 261.985C448.118 262.801 448.809 263.335 449.735 263.335C450.458 263.335 451.164 263.068 451.541 262.55ZM457.321 264.277L454.228 256.694H455.986L458.2 262.378L460.414 256.694H462.188L459.095 264.277H457.321ZM462.752 260.478C462.752 258.28 464.353 256.506 466.599 256.506C468.875 256.506 470.335 258.248 470.335 260.635V261.027H464.479C464.605 262.173 465.468 263.116 466.897 263.116C467.635 263.116 468.514 262.817 469.048 262.283L469.802 263.367C469.048 264.089 467.933 264.466 466.724 264.466C464.448 264.466 462.752 262.88 462.752 260.478ZM466.599 257.856C465.186 257.856 464.542 258.939 464.463 259.866H468.734C468.703 258.971 468.09 257.856 466.599 257.856ZM471.963 264.277V256.694H473.611V257.809C474.176 257.087 475.087 256.521 476.076 256.521V258.154C475.935 258.123 475.762 258.107 475.558 258.107C474.867 258.107 473.941 258.578 473.611 259.112V264.277H471.963Z" fill="#7A7A7A"/>
<path fill-rule="evenodd" clip-rule="evenodd" d="M452.668 220.502C453.026 220.861 453.026 221.442 452.668 221.801L442.888 231.595C442.53 231.954 441.949 231.954 441.591 231.595C441.233 231.237 441.233 230.655 441.591 230.297L451.371 220.502C451.729 220.144 452.31 220.144 452.668 220.502Z" fill="#7A7A7A"/>
<ellipse cx="442.783" cy="221.689" rx="1.83377" ry="1.83648" fill="#7A7A7A"/>
<path fill-rule="evenodd" clip-rule="evenodd" d="M446.838 213.677C440.281 213.677 434.965 219.001 434.965 225.568C434.965 232.135 440.281 237.459 446.838 237.459C453.396 237.459 458.712 232.135 458.712 225.568C458.712 219.001 453.396 213.677 446.838 213.677ZM433.039 225.568C433.039 217.936 439.217 211.749 446.838 211.749C454.459 211.749 460.637 217.936 460.637 225.568C460.637 233.2 454.459 239.388 446.838 239.388C439.217 239.388 433.039 233.2 433.039 225.568Z" fill="#7A7A7A"/>
<ellipse cx="451.338" cy="230.259" rx="1.83377" ry="1.83648" fill="#7A7A7A"/>
<path d="M262.941 196.997H385.886V282.699H262.941V196.997Z" fill="white"/>
<path d="M294.997 264.277V253.805H296.834V264.277H294.997ZM304.132 264.277V259.536C304.132 258.358 303.535 257.966 302.609 257.966C301.761 257.966 301.039 258.468 300.662 258.986V264.277H299.013V256.694H300.662V257.73C301.164 257.134 302.138 256.506 303.331 256.506C304.964 256.506 305.78 257.385 305.78 258.939V264.277H304.132ZM307.451 260.478C307.451 258.186 309.068 256.506 311.376 256.506C312.852 256.506 313.747 257.134 314.28 257.856L313.197 258.861C312.773 258.264 312.192 257.966 311.454 257.966C310.073 257.966 309.162 259.002 309.162 260.478C309.162 261.954 310.073 263.006 311.454 263.006C312.192 263.006 312.773 262.692 313.197 262.111L314.28 263.116C313.747 263.838 312.852 264.466 311.376 264.466C309.068 264.466 307.451 262.786 307.451 260.478ZM319.149 264.466C316.746 264.466 315.255 262.66 315.255 260.478C315.255 258.311 316.746 256.506 319.149 256.506C321.582 256.506 323.058 258.311 323.058 260.478C323.058 262.66 321.582 264.466 319.149 264.466ZM319.149 263.006C320.562 263.006 321.347 261.828 321.347 260.478C321.347 259.143 320.562 257.966 319.149 257.966C317.751 257.966 316.966 259.143 316.966 260.478C316.966 261.828 317.751 263.006 319.149 263.006ZM334.021 264.277V259.332C334.021 258.515 333.66 257.966 332.78 257.966C332.043 257.966 331.352 258.484 331.022 258.971V264.277H329.373V259.332C329.373 258.515 329.012 257.966 328.117 257.966C327.395 257.966 326.72 258.484 326.375 258.986V264.277H324.726V256.694H326.375V257.73C326.689 257.259 327.694 256.506 328.84 256.506C329.97 256.506 330.661 257.071 330.912 257.903C331.352 257.212 332.357 256.506 333.487 256.506C334.884 256.506 335.669 257.259 335.669 258.798V264.277H334.021ZM337.334 260.478C337.334 258.28 338.935 256.506 341.18 256.506C343.457 256.506 344.917 258.248 344.917 260.635V261.027H339.061C339.186 262.173 340.05 263.116 341.479 263.116C342.217 263.116 343.096 262.817 343.63 262.283L344.383 263.367C343.63 264.089 342.515 264.466 341.306 264.466C339.029 264.466 337.334 262.88 337.334 260.478ZM341.18 257.856C339.767 257.856 339.124 258.939 339.045 259.866H343.316C343.284 258.971 342.672 257.856 341.18 257.856Z" fill="#7A7A7A"/>
<path fill-rule="evenodd" clip-rule="evenodd" d="M308.303 215.229C312.134 213.291 316.931 213.923 320.133 217.13C321.379 218.378 322.236 219.869 322.704 221.45C323.279 220.596 324.011 219.828 324.894 219.19C327.82 217.077 331.585 216.984 334.535 218.638C334.771 218.77 334.937 219 334.988 219.266C335.627 222.593 334.351 226.146 331.423 228.261C328.84 230.127 325.601 230.418 322.848 229.321V238.999H321.014V228.969C317.374 230.347 313.104 229.57 310.172 226.633C307.224 223.681 306.456 219.376 307.861 215.719C307.942 215.507 308.1 215.332 308.303 215.229ZM309.451 216.714C308.467 219.643 309.141 223.004 311.468 225.334C314.005 227.875 317.765 228.448 320.853 227.048C321.837 224.12 321.163 220.759 318.836 218.428C316.299 215.888 312.539 215.315 309.451 216.714ZM333.256 220.04C330.969 218.935 328.168 219.09 325.967 220.68C323.764 222.271 322.734 224.887 323.062 227.411C325.348 228.516 328.149 228.361 330.351 226.771C332.553 225.18 333.583 222.564 333.256 220.04Z" fill="#7A7A7A"/>
<path d="M140 196.996H262.944V282.698H140V196.996Z" fill="white"/>
<path fill-rule="evenodd" clip-rule="evenodd" d="M197.856 218.104C196.777 217.267 197.252 215.54 198.608 215.375L209.145 214.094C209.958 213.995 210.704 214.555 210.837 215.364L212.645 226.351C212.87 227.722 211.301 228.661 210.203 227.811L207.394 225.639L200.477 234.37C199.921 235.073 198.884 235.148 198.233 234.534L193.505 230.078L186.359 236.155C185.084 237.239 183.247 235.779 184.01 234.289L190.962 220.726C191.44 219.795 192.689 219.608 193.418 220.358L197.871 224.948L200.772 220.367L197.856 218.104Z" fill="#00B852"/>
<path d="M166.814 259.048C166.814 255.767 169.279 253.631 172.309 253.631C174.35 253.631 175.685 254.605 176.533 255.814L175.026 256.662C174.476 255.877 173.487 255.264 172.309 255.264C170.237 255.264 168.698 256.85 168.698 259.048C168.698 261.246 170.237 262.848 172.309 262.848C173.377 262.848 174.319 262.345 174.79 261.906V260.273H171.666V258.656H176.627V262.581C175.591 263.727 174.131 264.48 172.309 264.48C169.279 264.48 166.814 262.33 166.814 259.048ZM178.021 260.477C178.021 258.279 179.623 256.505 181.868 256.505C184.144 256.505 185.605 258.247 185.605 260.634V261.026H179.748C179.874 262.172 180.737 263.115 182.166 263.115C182.904 263.115 183.783 262.816 184.317 262.282L185.071 263.366C184.317 264.088 183.202 264.465 181.993 264.465C179.717 264.465 178.021 262.879 178.021 260.477ZM181.868 257.855C180.455 257.855 179.811 258.938 179.733 259.865H184.003C183.972 258.97 183.359 257.855 181.868 257.855ZM192.35 264.276V259.535C192.35 258.357 191.753 257.965 190.827 257.965C189.979 257.965 189.257 258.467 188.88 258.985V264.276H187.232V256.693H188.88V257.729C189.383 257.133 190.356 256.505 191.549 256.505C193.182 256.505 193.999 257.384 193.999 258.938V264.276H192.35ZM196.956 255.437C196.407 255.437 195.936 254.982 195.936 254.416C195.936 253.851 196.407 253.396 196.956 253.396C197.522 253.396 197.977 253.851 197.977 254.416C197.977 254.982 197.522 255.437 196.956 255.437ZM196.14 264.276V256.693H197.788V264.276H196.14ZM205.045 264.276V263.272C204.496 263.884 203.554 264.465 202.361 264.465C200.728 264.465 199.927 263.617 199.927 262.063V256.693H201.576V261.466C201.576 262.644 202.172 263.005 203.099 263.005C203.931 263.005 204.653 262.534 205.045 262.015V256.693H206.694V264.276H205.045ZM208.176 263.287L208.929 262.094C209.463 262.644 210.515 263.162 211.504 263.162C212.493 263.162 212.996 262.801 212.996 262.235C212.996 261.576 212.195 261.34 211.269 261.136C209.966 260.854 208.411 260.508 208.411 258.813C208.411 257.572 209.479 256.505 211.394 256.505C212.682 256.505 213.655 256.96 214.346 257.572L213.655 258.734C213.2 258.216 212.352 257.823 211.41 257.823C210.547 257.823 209.997 258.137 209.997 258.671C209.997 259.252 210.751 259.456 211.646 259.66C212.965 259.943 214.582 260.32 214.582 262.11C214.582 263.444 213.467 264.465 211.426 264.465C210.138 264.465 208.961 264.057 208.176 263.287Z" fill="#00B852"/>
<path d="M140 197.714H754.721" stroke="#DDDDDD" stroke-width="1.42732"/>
<path d="M140 196.998H262.944C262.944 199.363 261.027 201.283 258.662 201.283H144.282C141.917 201.283 140 199.363 140 196.998Z" fill="#00B852"/>
</g>
<path d="M92.209 310.336C92.5123 310.166 92.7792 309.654 92.5805 308.891C92.2841 307.869 92.0693 306.863 91.8711 305.795L91.8709 305.791C91.1546 301.625 91.2972 297.296 91.8611 293.336C92.3464 289.831 93.1559 286.502 94.2748 283.419C96.5271 277.187 99.8206 272.044 103.734 268.099C107.745 263.984 112.407 261.168 117.348 259.676L117.348 259.677C123.062 257.884 129.117 257.732 135.167 258.518L135.168 258.517C140.961 259.298 146.727 260.919 152.463 262.992L153.61 263.413C153.848 263.501 154 263.429 154.099 263.308C154.21 263.173 154.286 262.941 154.297 262.653C154.32 262.069 154.078 261.429 153.595 261.251C153.21 261.108 152.816 260.97 152.421 260.831C152.027 260.693 151.632 260.554 151.245 260.411C145.375 258.366 139.469 256.808 133.581 256.188L132.404 256.076C126.207 255.564 120.072 256.137 114.318 258.431C109.398 260.391 104.82 263.741 100.95 268.226C97.0828 272.709 93.9559 278.427 91.9855 285.155L91.9847 285.155C89.9188 292.408 88.9092 301.47 91.2937 309.671L91.2943 309.673L91.3357 309.802C91.4375 310.088 91.5777 310.254 91.7177 310.335C91.8778 310.429 92.0534 310.423 92.209 310.336Z" fill="#CDB285" stroke="#CCB185" stroke-width="0.400844"/>
<path d="M139.485 270.694L142.798 268.858C143.35 268.551 143.903 268.242 144.456 267.928L144.458 267.927C146.293 266.915 148.182 266.046 149.868 264.832L149.87 264.831C151.447 263.731 152.611 262.132 152.78 259.676L152.779 259.675C152.956 257.113 152.18 254.806 150.968 252.73C149.755 250.651 148.113 248.817 146.578 247.202L146.577 247.201C146.351 246.959 146.148 246.904 145.989 246.935C145.826 246.966 145.673 247.094 145.565 247.297C145.349 247.703 145.35 248.341 145.785 248.795C147.309 250.39 149.02 252.135 150.111 254.391L150.32 254.849C151.026 256.481 151.452 258.456 151.042 260.168L151.041 260.171L150.991 260.351C150.441 262.174 148.942 263.011 147.692 263.731L147.69 263.733C145.92 264.712 144.142 265.694 142.363 266.677C140.585 267.66 138.807 268.643 137.037 269.622L137.036 269.622C136.821 269.739 136.706 269.939 136.666 270.176C136.624 270.42 136.66 270.706 136.763 270.969C136.866 271.232 137.027 271.454 137.214 271.578C137.393 271.697 137.601 271.732 137.828 271.622C138.381 271.31 138.934 271.001 139.485 270.694Z" fill="#CDB285" stroke="#CCB185" stroke-width="0.400844"/>
<path d="M237.984 68V67.688L240.144 66.56V51.368L236.376 51.8L234.36 54.824H234.048L234.864 50.696H248.424L249.24 54.824H248.928L246.888 51.8L243.12 51.368V66.56L245.28 67.688V68H237.984ZM249.641 68V67.688L251.321 66.824V52.424L249.641 51.848V51.536L254.105 50.216V58.472C254.409 57.528 254.905 56.768 255.593 56.192C256.281 55.6 257.081 55.304 257.993 55.304C259.129 55.304 260.049 55.672 260.753 56.408C261.457 57.144 261.809 58.168 261.809 59.48V66.824L263.489 67.688V68H257.345V67.688L259.025 66.824V59.456C259.025 58.608 258.825 57.992 258.425 57.608C258.041 57.224 257.537 57.032 256.913 57.032C256.273 57.032 255.689 57.28 255.161 57.776C254.633 58.272 254.281 58.976 254.105 59.888V66.824L255.785 67.688V68H249.641ZM267.206 61.04C267.206 62.16 267.398 63.12 267.782 63.92C268.166 64.704 268.67 65.304 269.294 65.72C269.934 66.136 270.638 66.344 271.406 66.344C272.35 66.344 273.166 66.048 273.854 65.456C274.542 64.848 275.062 64.08 275.414 63.152L275.726 63.224C275.502 64.712 274.918 65.92 273.974 66.848C273.03 67.776 271.846 68.24 270.422 68.24C269.414 68.24 268.526 68.064 267.758 67.712C267.006 67.344 266.366 66.856 265.838 66.248C265.326 65.624 264.934 64.928 264.662 64.16C264.406 63.376 264.278 62.576 264.278 61.76C264.278 60.944 264.398 60.152 264.638 59.384C264.878 58.616 265.238 57.928 265.718 57.32C266.198 56.696 266.798 56.208 267.518 55.856C268.254 55.488 269.11 55.304 270.086 55.304C271.798 55.304 273.15 55.8 274.142 56.792C275.134 57.784 275.614 59.16 275.582 60.92H267.206C267.206 60.968 267.206 61.008 267.206 61.04ZM267.23 60.32H272.726C272.694 59.568 272.574 58.856 272.366 58.184C272.158 57.512 271.862 56.968 271.478 56.552C271.11 56.12 270.646 55.904 270.086 55.904C269.51 55.904 269.014 56.12 268.598 56.552C268.198 56.968 267.886 57.512 267.662 58.184C267.438 58.856 267.294 59.568 267.23 60.32ZM287.376 68.24C286.336 68.24 285.416 67.976 284.616 67.448C283.816 66.92 283.192 66.168 282.744 65.192C282.296 64.216 282.072 63.072 282.072 61.76C282.072 60.48 282.344 59.36 282.888 58.4C283.432 57.424 284.184 56.664 285.144 56.12C286.104 55.576 287.2 55.304 288.432 55.304C288.944 55.304 289.424 55.376 289.872 55.52C290.336 55.648 290.808 55.912 291.288 56.312V52.424L289.608 51.848V51.536L294.096 50.216V66.824L295.776 67.688V68H291.288V65.288C290.984 66.184 290.48 66.904 289.776 67.448C289.088 67.976 288.288 68.24 287.376 68.24ZM288.312 66.776C289 66.776 289.624 66.544 290.184 66.08C290.744 65.616 291.112 64.976 291.288 64.16V58.088C290.984 57.32 290.6 56.76 290.136 56.408C289.688 56.056 289.168 55.88 288.576 55.88C287.824 55.88 287.176 56.144 286.632 56.672C286.104 57.2 285.696 57.912 285.408 58.808C285.12 59.688 284.976 60.672 284.976 61.76C284.976 63.28 285.272 64.496 285.864 65.408C286.472 66.32 287.288 66.776 288.312 66.776ZM300.298 68.24C299.178 68.24 298.29 67.952 297.634 67.376C296.994 66.8 296.674 66.056 296.674 65.144C296.674 64.12 297.05 63.296 297.802 62.672C298.554 62.032 299.658 61.528 301.114 61.16L304.33 60.344V58.688C304.33 57.792 304.114 57.104 303.682 56.624C303.266 56.144 302.722 55.904 302.05 55.904C301.602 55.904 301.186 56.032 300.802 56.288C300.418 56.544 300.122 56.952 299.914 57.512C299.722 58.072 299.682 58.816 299.794 59.744L296.914 59.264C296.946 58.496 297.186 57.816 297.634 57.224C298.082 56.632 298.69 56.168 299.458 55.832C300.226 55.48 301.114 55.304 302.122 55.304C303.69 55.304 304.914 55.696 305.794 56.48C306.674 57.248 307.114 58.376 307.114 59.864V66.824L308.794 67.688V68H304.33V65.528C304.138 65.96 303.866 66.384 303.514 66.8C303.178 67.216 302.746 67.56 302.218 67.832C301.69 68.104 301.05 68.24 300.298 68.24ZM304.33 64.52V60.92L302.602 61.376C301.546 61.696 300.778 62.128 300.298 62.672C299.818 63.2 299.578 63.864 299.578 64.664C299.578 65.256 299.762 65.752 300.13 66.152C300.498 66.552 300.994 66.752 301.618 66.752C302.306 66.752 302.882 66.552 303.346 66.152C303.81 65.752 304.138 65.208 304.33 64.52ZM314.013 68.24C313.405 68.24 312.837 68.136 312.309 67.928C311.797 67.704 311.389 67.344 311.085 66.848C310.781 66.352 310.629 65.688 310.629 64.856V56.432H308.637V56.12C309.629 55.896 310.517 55.488 311.301 54.896C312.101 54.288 312.701 53.448 313.101 52.376H313.437V55.544L316.245 55.16L316.437 56.432H313.437V65.24C313.437 65.896 313.597 66.368 313.917 66.656C314.237 66.944 314.637 67.088 315.117 67.088C315.357 67.088 315.597 67.056 315.837 66.992C316.093 66.928 316.301 66.84 316.461 66.728L316.629 66.992C316.357 67.312 316.005 67.6 315.573 67.856C315.157 68.112 314.637 68.24 314.013 68.24ZM321.091 68.24C319.971 68.24 319.083 67.952 318.427 67.376C317.787 66.8 317.467 66.056 317.467 65.144C317.467 64.12 317.843 63.296 318.595 62.672C319.347 62.032 320.451 61.528 321.907 61.16L325.123 60.344V58.688C325.123 57.792 324.907 57.104 324.475 56.624C324.059 56.144 323.515 55.904 322.843 55.904C322.395 55.904 321.979 56.032 321.595 56.288C321.211 56.544 320.915 56.952 320.707 57.512C320.515 58.072 320.475 58.816 320.587 59.744L317.707 59.264C317.739 58.496 317.979 57.816 318.427 57.224C318.875 56.632 319.483 56.168 320.251 55.832C321.019 55.48 321.907 55.304 322.915 55.304C324.483 55.304 325.707 55.696 326.587 56.48C327.467 57.248 327.907 58.376 327.907 59.864V66.824L329.587 67.688V68H325.123V65.528C324.931 65.96 324.659 66.384 324.307 66.8C323.971 67.216 323.539 67.56 323.011 67.832C322.483 68.104 321.843 68.24 321.091 68.24ZM325.123 64.52V60.92L323.395 61.376C322.339 61.696 321.571 62.128 321.091 62.672C320.611 63.2 320.371 63.864 320.371 64.664C320.371 65.256 320.555 65.752 320.923 66.152C321.291 66.552 321.787 66.752 322.411 66.752C323.099 66.752 323.675 66.552 324.139 66.152C324.603 65.752 324.931 65.208 325.123 64.52ZM340.182 68.24C339.27 68.24 338.462 68.136 337.758 67.928C337.07 67.704 336.502 67.44 336.054 67.136C335.606 66.816 335.286 66.52 335.094 66.248L336.126 63.776L336.438 63.8C336.71 64.952 337.182 65.88 337.854 66.584C338.526 67.288 339.302 67.64 340.182 67.64C340.87 67.64 341.422 67.432 341.838 67.016C342.27 66.6 342.486 66.064 342.486 65.408C342.486 64.848 342.326 64.36 342.006 63.944C341.686 63.528 341.174 63.2 340.47 62.96L338.67 62.36C338.174 62.2 337.686 61.984 337.206 61.712C336.726 61.424 336.326 61.048 336.006 60.584C335.702 60.12 335.55 59.528 335.55 58.808C335.55 58.104 335.742 57.496 336.126 56.984C336.51 56.456 337.03 56.048 337.686 55.76C338.358 55.456 339.118 55.304 339.966 55.304C340.814 55.304 341.63 55.464 342.414 55.784C343.214 56.088 343.846 56.472 344.31 56.936L343.542 59.168L343.23 59.144C343.038 58.152 342.638 57.368 342.03 56.792C341.438 56.2 340.75 55.904 339.966 55.904C339.358 55.904 338.854 56.08 338.454 56.432C338.054 56.768 337.854 57.216 337.854 57.776C337.854 58.256 337.998 58.656 338.286 58.976C338.59 59.296 339.086 59.576 339.774 59.816L341.646 60.416C342.254 60.608 342.814 60.864 343.326 61.184C343.854 61.504 344.27 61.92 344.574 62.432C344.894 62.928 345.054 63.56 345.054 64.328C345.054 65.048 344.846 65.704 344.43 66.296C344.014 66.888 343.438 67.36 342.702 67.712C341.982 68.064 341.142 68.24 340.182 68.24ZM351.319 68.24C350.183 68.24 349.263 67.872 348.559 67.136C347.855 66.4 347.503 65.376 347.503 64.064V57.512L345.823 56.936V56.624L350.287 55.304V64.088C350.287 64.92 350.479 65.528 350.863 65.912C351.263 66.296 351.767 66.488 352.375 66.488C353.031 66.488 353.623 66.248 354.151 65.768C354.695 65.272 355.047 64.568 355.207 63.656V57.536L353.527 56.936V56.624L357.991 55.304V66.824L359.671 67.688V68H355.207V65.048C354.903 65.992 354.399 66.76 353.695 67.352C353.007 67.944 352.215 68.24 351.319 68.24ZM360.146 72.488V72.176L361.826 71.312V57.512L360.146 56.936V56.624L364.61 55.304V58.256C364.914 57.36 365.418 56.648 366.122 56.12C366.826 55.576 367.642 55.304 368.57 55.304C369.61 55.304 370.522 55.568 371.306 56.096C372.106 56.624 372.73 57.376 373.178 58.352C373.626 59.312 373.85 60.456 373.85 61.784C373.85 63.064 373.578 64.192 373.034 65.168C372.49 66.128 371.738 66.88 370.778 67.424C369.818 67.968 368.714 68.24 367.466 68.24C366.97 68.24 366.49 68.168 366.026 68.024C365.562 67.88 365.09 67.624 364.61 67.256V71.312L366.89 72.176V72.488H360.146ZM367.322 67.664C368.074 67.664 368.714 67.4 369.242 66.872C369.786 66.344 370.202 65.64 370.49 64.76C370.778 63.864 370.922 62.872 370.922 61.784C370.922 60.264 370.626 59.048 370.034 58.136C369.442 57.224 368.634 56.768 367.61 56.768C366.922 56.768 366.298 57 365.738 57.464C365.178 57.928 364.802 58.568 364.61 59.384V65.456C364.93 66.224 365.314 66.784 365.762 67.136C366.226 67.488 366.746 67.664 367.322 67.664ZM374.82 72.488V72.176L376.5 71.312V57.512L374.82 56.936V56.624L379.284 55.304V58.256C379.588 57.36 380.092 56.648 380.796 56.12C381.5 55.576 382.316 55.304 383.244 55.304C384.284 55.304 385.196 55.568 385.98 56.096C386.78 56.624 387.404 57.376 387.852 58.352C388.3 59.312 388.524 60.456 388.524 61.784C388.524 63.064 388.252 64.192 387.708 65.168C387.164 66.128 386.412 66.88 385.452 67.424C384.492 67.968 383.388 68.24 382.14 68.24C381.644 68.24 381.164 68.168 380.7 68.024C380.236 67.88 379.764 67.624 379.284 67.256V71.312L381.564 72.176V72.488H374.82ZM381.996 67.664C382.748 67.664 383.388 67.4 383.916 66.872C384.46 66.344 384.876 65.64 385.164 64.76C385.452 63.864 385.596 62.872 385.596 61.784C385.596 60.264 385.3 59.048 384.708 58.136C384.116 57.224 383.308 56.768 382.284 56.768C381.596 56.768 380.972 57 380.412 57.464C379.852 57.928 379.476 58.568 379.284 59.384V65.456C379.604 66.224 379.988 66.784 380.436 67.136C380.9 67.488 381.42 67.664 381.996 67.664ZM396.19 68.24C394.99 68.24 393.918 67.96 392.974 67.4C392.046 66.84 391.318 66.072 390.79 65.096C390.262 64.104 389.998 62.992 389.998 61.76C389.998 60.528 390.262 59.424 390.79 58.448C391.318 57.472 392.046 56.704 392.974 56.144C393.918 55.584 394.99 55.304 396.19 55.304C397.39 55.304 398.454 55.584 399.382 56.144C400.326 56.704 401.062 57.472 401.59 58.448C402.134 59.424 402.406 60.528 402.406 61.76C402.406 62.992 402.134 64.104 401.59 65.096C401.062 66.072 400.326 66.84 399.382 67.4C398.454 67.96 397.39 68.24 396.19 68.24ZM396.19 67.64C396.83 67.64 397.398 67.392 397.894 66.896C398.39 66.384 398.782 65.688 399.07 64.808C399.358 63.912 399.502 62.896 399.502 61.76C399.502 60.608 399.358 59.592 399.07 58.712C398.782 57.832 398.39 57.144 397.894 56.648C397.398 56.152 396.83 55.904 396.19 55.904C395.566 55.904 395.006 56.152 394.51 56.648C394.014 57.144 393.622 57.832 393.334 58.712C393.062 59.592 392.926 60.608 392.926 61.76C392.926 62.912 393.062 63.936 393.334 64.832C393.622 65.712 394.014 66.4 394.51 66.896C395.006 67.392 395.566 67.64 396.19 67.64ZM403.494 68V67.688L405.174 66.824V57.512L403.494 56.936V56.624L407.958 55.304V59.072C408.198 57.92 408.598 57.008 409.158 56.336C409.718 55.648 410.47 55.304 411.414 55.304C411.558 55.304 411.71 55.312 411.87 55.328C412.03 55.344 412.19 55.376 412.35 55.424L411.942 58.16C411.222 57.824 410.59 57.736 410.046 57.896C409.502 58.056 409.054 58.36 408.702 58.808C408.35 59.256 408.102 59.744 407.958 60.272V66.8L410.262 67.688V68H403.494ZM418.002 68.24C417.394 68.24 416.826 68.136 416.298 67.928C415.786 67.704 415.378 67.344 415.074 66.848C414.77 66.352 414.618 65.688 414.618 64.856V56.432H412.626V56.12C413.618 55.896 414.506 55.488 415.29 54.896C416.09 54.288 416.69 53.448 417.09 52.376H417.426V55.544L420.234 55.16L420.426 56.432H417.426V65.24C417.426 65.896 417.586 66.368 417.906 66.656C418.226 66.944 418.626 67.088 419.106 67.088C419.346 67.088 419.586 67.056 419.826 66.992C420.082 66.928 420.29 66.84 420.45 66.728L420.618 66.992C420.346 67.312 419.994 67.6 419.562 67.856C419.146 68.112 418.626 68.24 418.002 68.24ZM423.847 61.04C423.847 62.16 424.039 63.12 424.423 63.92C424.807 64.704 425.311 65.304 425.935 65.72C426.575 66.136 427.279 66.344 428.047 66.344C428.991 66.344 429.807 66.048 430.495 65.456C431.183 64.848 431.703 64.08 432.055 63.152L432.367 63.224C432.143 64.712 431.559 65.92 430.615 66.848C429.671 67.776 428.487 68.24 427.063 68.24C426.055 68.24 425.167 68.064 424.399 67.712C423.647 67.344 423.007 66.856 422.479 66.248C421.967 65.624 421.575 64.928 421.303 64.16C421.047 63.376 420.919 62.576 420.919 61.76C420.919 60.944 421.039 60.152 421.279 59.384C421.519 58.616 421.879 57.928 422.359 57.32C422.839 56.696 423.439 56.208 424.159 55.856C424.895 55.488 425.751 55.304 426.727 55.304C428.439 55.304 429.791 55.8 430.783 56.792C431.775 57.784 432.255 59.16 432.223 60.92H423.847C423.847 60.968 423.847 61.008 423.847 61.04ZM423.871 60.32H429.367C429.335 59.568 429.215 58.856 429.007 58.184C428.799 57.512 428.503 56.968 428.119 56.552C427.751 56.12 427.287 55.904 426.727 55.904C426.151 55.904 425.655 56.12 425.239 56.552C424.839 56.968 424.527 57.512 424.303 58.184C424.079 58.856 423.935 59.568 423.871 60.32ZM439.07 68.24C438.03 68.24 437.11 67.976 436.31 67.448C435.51 66.92 434.886 66.168 434.438 65.192C433.99 64.216 433.766 63.072 433.766 61.76C433.766 60.48 434.038 59.36 434.582 58.4C435.126 57.424 435.878 56.664 436.838 56.12C437.798 55.576 438.894 55.304 440.126 55.304C440.638 55.304 441.118 55.376 441.566 55.52C442.03 55.648 442.502 55.912 442.982 56.312V52.424L441.302 51.848V51.536L445.79 50.216V66.824L447.47 67.688V68H442.982V65.288C442.678 66.184 442.174 66.904 441.47 67.448C440.782 67.976 439.982 68.24 439.07 68.24ZM440.006 66.776C440.694 66.776 441.318 66.544 441.878 66.08C442.438 65.616 442.806 64.976 442.982 64.16V58.088C442.678 57.32 442.294 56.76 441.83 56.408C441.382 56.056 440.862 55.88 440.27 55.88C439.518 55.88 438.87 56.144 438.326 56.672C437.798 57.2 437.39 57.912 437.102 58.808C436.814 59.688 436.67 60.672 436.67 61.76C436.67 63.28 436.966 64.496 437.558 65.408C438.166 66.32 438.982 66.776 440.006 66.776ZM457.831 68.24C457.223 68.24 456.655 68.136 456.127 67.928C455.615 67.704 455.207 67.344 454.903 66.848C454.599 66.352 454.447 65.688 454.447 64.856V56.432H452.455V56.12C453.447 55.896 454.335 55.488 455.119 54.896C455.919 54.288 456.519 53.448 456.919 52.376H457.255V55.544L460.063 55.16L460.255 56.432H457.255V65.24C457.255 65.896 457.415 66.368 457.735 66.656C458.055 66.944 458.455 67.088 458.935 67.088C459.175 67.088 459.415 67.056 459.655 66.992C459.911 66.928 460.119 66.84 460.279 66.728L460.447 66.992C460.175 67.312 459.823 67.6 459.391 67.856C458.975 68.112 458.455 68.24 457.831 68.24ZM460.95 68V67.688L462.63 66.824V52.424L460.95 51.848V51.536L465.414 50.216V58.472C465.718 57.528 466.214 56.768 466.902 56.192C467.59 55.6 468.39 55.304 469.302 55.304C470.438 55.304 471.358 55.672 472.062 56.408C472.766 57.144 473.118 58.168 473.118 59.48V66.824L474.798 67.688V68H468.654V67.688L470.334 66.824V59.456C470.334 58.608 470.134 57.992 469.734 57.608C469.35 57.224 468.846 57.032 468.222 57.032C467.582 57.032 466.998 57.28 466.47 57.776C465.942 58.272 465.59 58.976 465.414 59.888V66.824L467.094 67.688V68H460.95ZM479.856 66.824L481.536 67.688V68H475.392V67.688L477.072 66.824V57.512L475.392 56.936V56.624L479.856 55.304V66.824ZM478.392 53.912C477.912 53.912 477.496 53.744 477.144 53.408C476.808 53.072 476.64 52.672 476.64 52.208C476.64 51.744 476.808 51.352 477.144 51.032C477.496 50.696 477.912 50.528 478.392 50.528C478.888 50.528 479.312 50.696 479.664 51.032C480.016 51.352 480.192 51.744 480.192 52.208C480.192 52.672 480.016 53.072 479.664 53.408C479.312 53.744 478.888 53.912 478.392 53.912ZM487.492 68.24C486.58 68.24 485.772 68.136 485.068 67.928C484.38 67.704 483.812 67.44 483.364 67.136C482.916 66.816 482.596 66.52 482.404 66.248L483.436 63.776L483.748 63.8C484.02 64.952 484.492 65.88 485.164 66.584C485.836 67.288 486.612 67.64 487.492 67.64C488.18 67.64 488.732 67.432 489.149 67.016C489.58 66.6 489.796 66.064 489.796 65.408C489.796 64.848 489.636 64.36 489.317 63.944C488.997 63.528 488.484 63.2 487.78 62.96L485.98 62.36C485.484 62.2 484.996 61.984 484.516 61.712C484.036 61.424 483.636 61.048 483.316 60.584C483.012 60.12 482.86 59.528 482.86 58.808C482.86 58.104 483.052 57.496 483.436 56.984C483.82 56.456 484.34 56.048 484.996 55.76C485.668 55.456 486.428 55.304 487.276 55.304C488.124 55.304 488.941 55.464 489.724 55.784C490.525 56.088 491.157 56.472 491.62 56.936L490.852 59.168L490.541 59.144C490.348 58.152 489.948 57.368 489.34 56.792C488.748 56.2 488.06 55.904 487.276 55.904C486.668 55.904 486.164 56.08 485.764 56.432C485.364 56.768 485.164 57.216 485.164 57.776C485.164 58.256 485.308 58.656 485.596 58.976C485.9 59.296 486.396 59.576 487.084 59.816L488.956 60.416C489.565 60.608 490.125 60.864 490.636 61.184C491.164 61.504 491.581 61.92 491.885 62.432C492.205 62.928 492.365 63.56 492.365 64.328C492.365 65.048 492.157 65.704 491.74 66.296C491.324 66.888 490.748 67.36 490.012 67.712C489.293 68.064 488.452 68.24 487.492 68.24ZM498.105 72.488V72.176L499.785 71.312V57.512L498.105 56.936V56.624L502.569 55.304V58.256C502.873 57.36 503.377 56.648 504.081 56.12C504.785 55.576 505.601 55.304 506.529 55.304C507.569 55.304 508.481 55.568 509.265 56.096C510.065 56.624 510.689 57.376 511.137 58.352C511.585 59.312 511.809 60.456 511.809 61.784C511.809 63.064 511.537 64.192 510.993 65.168C510.449 66.128 509.697 66.88 508.737 67.424C507.777 67.968 506.673 68.24 505.425 68.24C504.929 68.24 504.449 68.168 503.985 68.024C503.521 67.88 503.049 67.624 502.569 67.256V71.312L504.849 72.176V72.488H498.105ZM505.281 67.664C506.033 67.664 506.673 67.4 507.201 66.872C507.745 66.344 508.161 65.64 508.449 64.76C508.737 63.864 508.881 62.872 508.881 61.784C508.881 60.264 508.585 59.048 507.993 58.136C507.401 57.224 506.593 56.768 505.569 56.768C504.881 56.768 504.257 57 503.697 57.464C503.137 57.928 502.761 58.568 502.569 59.384V65.456C502.889 66.224 503.273 66.784 503.721 67.136C504.185 67.488 504.705 67.664 505.281 67.664ZM516.835 68.24C515.715 68.24 514.827 67.952 514.171 67.376C513.531 66.8 513.211 66.056 513.211 65.144C513.211 64.12 513.587 63.296 514.339 62.672C515.091 62.032 516.195 61.528 517.651 61.16L520.867 60.344V58.688C520.867 57.792 520.651 57.104 520.219 56.624C519.803 56.144 519.259 55.904 518.587 55.904C518.139 55.904 517.723 56.032 517.339 56.288C516.955 56.544 516.659 56.952 516.451 57.512C516.259 58.072 516.219 58.816 516.331 59.744L513.451 59.264C513.483 58.496 513.723 57.816 514.171 57.224C514.619 56.632 515.227 56.168 515.995 55.832C516.763 55.48 517.651 55.304 518.659 55.304C520.227 55.304 521.451 55.696 522.331 56.48C523.211 57.248 523.651 58.376 523.651 59.864V66.824L525.331 67.688V68H520.867V65.528C520.675 65.96 520.403 66.384 520.051 66.8C519.715 67.216 519.283 67.56 518.755 67.832C518.227 68.104 517.587 68.24 516.835 68.24ZM520.867 64.52V60.92L519.139 61.376C518.083 61.696 517.315 62.128 516.835 62.672C516.355 63.2 516.115 63.864 516.115 64.664C516.115 65.256 516.299 65.752 516.667 66.152C517.035 66.552 517.531 66.752 518.155 66.752C518.843 66.752 519.419 66.552 519.883 66.152C520.347 65.752 520.675 65.208 520.867 64.52ZM530.55 68.24C529.942 68.24 529.374 68.136 528.846 67.928C528.334 67.704 527.926 67.344 527.622 66.848C527.318 66.352 527.166 65.688 527.166 64.856V56.432H525.174V56.12C526.166 55.896 527.054 55.488 527.838 54.896C528.638 54.288 529.238 53.448 529.638 52.376H529.974V55.544L532.782 55.16L532.974 56.432H529.974V65.24C529.974 65.896 530.134 66.368 530.454 66.656C530.774 66.944 531.174 67.088 531.654 67.088C531.894 67.088 532.134 67.056 532.374 66.992C532.63 66.928 532.838 66.84 532.998 66.728L533.166 66.992C532.894 67.312 532.542 67.6 532.11 67.856C531.694 68.112 531.174 68.24 530.55 68.24ZM538.755 68.24C538.147 68.24 537.579 68.136 537.051 67.928C536.539 67.704 536.131 67.344 535.827 66.848C535.523 66.352 535.371 65.688 535.371 64.856V56.432H533.379V56.12C534.371 55.896 535.259 55.488 536.043 54.896C536.843 54.288 537.443 53.448 537.843 52.376H538.179V55.544L540.987 55.16L541.179 56.432H538.179V65.24C538.179 65.896 538.339 66.368 538.659 66.656C538.979 66.944 539.379 67.088 539.859 67.088C540.099 67.088 540.339 67.056 540.579 66.992C540.835 66.928 541.043 66.84 541.203 66.728L541.371 66.992C541.099 67.312 540.747 67.6 540.315 67.856C539.899 68.112 539.379 68.24 538.755 68.24ZM544.6 61.04C544.6 62.16 544.792 63.12 545.176 63.92C545.56 64.704 546.064 65.304 546.688 65.72C547.328 66.136 548.032 66.344 548.8 66.344C549.744 66.344 550.56 66.048 551.248 65.456C551.936 64.848 552.456 64.08 552.808 63.152L553.12 63.224C552.896 64.712 552.312 65.92 551.368 66.848C550.424 67.776 549.24 68.24 547.816 68.24C546.808 68.24 545.92 68.064 545.152 67.712C544.4 67.344 543.76 66.856 543.232 66.248C542.72 65.624 542.328 64.928 542.056 64.16C541.8 63.376 541.672 62.576 541.672 61.76C541.672 60.944 541.792 60.152 542.032 59.384C542.272 58.616 542.632 57.928 543.112 57.32C543.592 56.696 544.192 56.208 544.912 55.856C545.648 55.488 546.504 55.304 547.48 55.304C549.192 55.304 550.544 55.8 551.536 56.792C552.528 57.784 553.008 59.16 552.976 60.92H544.6C544.6 60.968 544.6 61.008 544.6 61.04ZM544.624 60.32H550.12C550.088 59.568 549.968 58.856 549.76 58.184C549.552 57.512 549.256 56.968 548.872 56.552C548.504 56.12 548.04 55.904 547.48 55.904C546.904 55.904 546.408 56.12 545.992 56.552C545.592 56.968 545.28 57.512 545.056 58.184C544.832 58.856 544.688 59.568 544.624 60.32ZM554.207 68V67.688L555.887 66.824V57.512L554.207 56.936V56.624L558.671 55.304V59.072C558.911 57.92 559.311 57.008 559.871 56.336C560.431 55.648 561.183 55.304 562.127 55.304C562.271 55.304 562.423 55.312 562.583 55.328C562.743 55.344 562.903 55.376 563.063 55.424L562.655 58.16C561.935 57.824 561.303 57.736 560.759 57.896C560.215 58.056 559.767 58.36 559.415 58.808C559.063 59.256 558.815 59.744 558.671 60.272V66.8L560.975 67.688V68H554.207ZM563.655 68V67.688L565.335 66.824V57.512L563.655 56.936V56.624L568.119 55.304V58.472C568.423 57.528 568.919 56.768 569.607 56.192C570.295 55.6 571.095 55.304 572.007 55.304C573.143 55.304 574.063 55.672 574.767 56.408C575.471 57.144 575.823 58.168 575.823 59.48V66.824L577.503 67.688V68H571.359V67.688L573.039 66.824V59.456C573.039 58.608 572.839 57.992 572.439 57.608C572.055 57.224 571.559 57.032 570.951 57.032C570.311 57.032 569.719 57.28 569.175 57.776C568.647 58.272 568.295 58.976 568.119 59.888V66.824L569.799 67.688V68H563.655Z" fill="#0F0F0F"/>
<defs>
<clipPath id="clip0_1583_26096">
<path d="M140 197H754.721V271.284C754.721 277.59 749.608 282.702 743.302 282.702H151.419C145.112 282.702 140 277.59 140 271.284V197Z" fill="white"/>
</clipPath>
</defs>
</svg>
