<svg width="4724" height="4724" viewBox="0 0 4724 4724" fill="none" xmlns="http://www.w3.org/2000/svg">
<rect x="2478.16" width="2245.84" height="645.355" fill="white"/>
<rect x="2478.16" y="800.24" width="2245.84" height="645.355" fill="white"/>
<rect x="2478.16" y="1600.48" width="2245.84" height="645.355" fill="white"/>
<rect y="2478.16" width="2245.84" height="645.355" fill="white"/>
<rect y="3278.4" width="2245.84" height="645.355" fill="white"/>
<rect y="4078.64" width="2245.84" height="645.355" fill="white"/>
<rect x="2478.16" y="4724" width="2245.84" height="645.355" transform="rotate(-90 2478.16 4724)" fill="white"/>
<rect x="3278.4" y="4724" width="2245.84" height="645.355" transform="rotate(-90 3278.4 4724)" fill="white"/>
<rect x="4078.64" y="4724" width="2245.84" height="645.355" transform="rotate(-90 4078.64 4724)" fill="white"/>
<rect y="2245.84" width="2245.84" height="645.355" transform="rotate(-90 0 2245.84)" fill="white"/>
<rect x="800.24" y="2245.84" width="2245.84" height="645.355" transform="rotate(-90 800.24 2245.84)" fill="white"/>
<rect x="1600.48" y="2245.84" width="2245.84" height="645.355" transform="rotate(-90 1600.48 2245.84)" fill="white"/>
</svg>
