<svg preserveAspectRatio="none" width="100%" height="100%" overflow="visible" style="display: block;" viewBox="0 0 507.273 45.5" fill="none" xmlns="http://www.w3.org/2000/svg">
<path id="Line 572" d="M0.75 44C0.335786 44 0 44.3358 0 44.75C0 45.1642 0.335786 45.5 0.75 45.5L0.75 44.75L0.75 44ZM502.28 0.21967C501.987 -0.0732233 501.513 -0.0732233 501.22 0.21967L496.447 4.99264C496.154 5.28553 496.154 5.76041 496.447 6.0533C496.74 6.34619 497.214 6.34619 497.507 6.0533L501.75 1.81066L505.993 6.0533C506.286 6.34619 506.76 6.34619 507.053 6.0533C507.346 5.76041 507.346 5.28553 507.053 4.99264L502.28 0.21967ZM501.75 44.75V45.5H502.5V44.75H501.75ZM0.75 44.75L0.75 45.5L501.75 45.5V44.75V44L0.75 44L0.75 44.75ZM501.75 44.75H502.5V0.75H501.75H501V44.75H501.75Z" fill="var(--stroke-0, #CACACA)"/>
</svg>
