<svg preserveAspectRatio="none" width="100%" height="100%" overflow="visible" style="display: block;" viewBox="0 0 27.5066 27.5472" fill="none" xmlns="http://www.w3.org/2000/svg">
<g id="Union">
<path d="M19.0551 7.40719H8.45254V9.12124H15.1209V10.7463H8.45254V12.4603H15.1209V12.7162C15.1209 13.4723 14.5088 14.0852 13.7539 14.0852H9.30835C8.94806 14.0852 8.62635 14.3112 8.5037 14.6505C8.38105 14.9898 8.48372 15.3696 8.7605 15.6006L15.4288 21.1657L16.5245 19.849L11.672 15.7993H13.7539C15.4541 15.7993 16.8324 14.4189 16.8324 12.7162V12.4603H19.0551V10.7463H16.8324V9.12124H19.0551V7.40719Z" fill="var(--fill-0, #7A7A7A)"/>
<path fill-rule="evenodd" clip-rule="evenodd" d="M13.7533 0C6.15756 0 0 6.16665 0 13.7736C0 21.3805 6.15756 27.5472 13.7533 27.5472C21.349 27.5472 27.5066 21.3805 27.5066 13.7736C27.5066 6.16665 21.349 0 13.7533 0ZM1.83377 13.7736C1.83377 7.1809 7.17032 1.83648 13.7533 1.83648C20.3363 1.83648 25.6728 7.1809 25.6728 13.7736C25.6728 20.3663 20.3363 25.7107 13.7533 25.7107C7.17032 25.7107 1.83377 20.3663 1.83377 13.7736Z" fill="var(--fill-0, #7A7A7A)"/>
</g>
</svg>
