<svg preserveAspectRatio="none" width="100%" height="100%" overflow="visible" style="display: block;" viewBox="0 0 106.802 35.1562" fill="none" xmlns="http://www.w3.org/2000/svg">
<path id="Line 566" d="M0.5 34.1562C0.223858 34.1562 0 34.3801 0 34.6562C0 34.9324 0.223858 35.1562 0.5 35.1562L0.5 34.6562L0.5 34.1562ZM103.474 0.146447C103.278 -0.0488155 102.962 -0.0488155 102.766 0.146447L99.5844 3.32843C99.3892 3.52369 99.3892 3.84027 99.5844 4.03553C99.7797 4.2308 100.096 4.2308 100.292 4.03553L103.12 1.20711L105.948 4.03553C106.144 4.2308 106.46 4.2308 106.656 4.03553C106.851 3.84027 106.851 3.52369 106.656 3.32843L103.474 0.146447ZM103.12 34.6562V35.1562H103.62V34.6562H103.12ZM0.5 34.6562L0.5 35.1562L103.12 35.1562V34.6562V34.1562L0.5 34.1562L0.5 34.6562ZM103.12 34.6562H103.62V0.5H103.12H102.62V34.6562H103.12Z" fill="var(--stroke-0, #CACACA)"/>
</svg>
