<svg preserveAspectRatio="none" width="100%" height="100%" overflow="visible" style="display: block;" viewBox="0 0 260.273 45.5" fill="none" xmlns="http://www.w3.org/2000/svg">
<path id="Line 570" d="M0.75 44C0.335786 44 0 44.3358 0 44.75C0 45.1642 0.335786 45.5 0.75 45.5L0.75 44.75L0.75 44ZM255.28 0.21967C254.987 -0.0732233 254.513 -0.0732233 254.22 0.21967L249.447 4.99264C249.154 5.28553 249.154 5.76041 249.447 6.0533C249.74 6.34619 250.214 6.34619 250.507 6.0533L254.75 1.81066L258.993 6.0533C259.286 6.34619 259.76 6.34619 260.053 6.0533C260.346 5.76041 260.346 5.28553 260.053 4.99264L255.28 0.21967ZM254.75 44.75V45.5H255.5V44.75H254.75ZM0.75 44.75L0.75 45.5L254.75 45.5V44.75V44L0.75 44L0.75 44.75ZM254.75 44.75H255.5V0.75H254.75H254V44.75H254.75Z" fill="var(--stroke-0, #CACACA)"/>
</svg>
