<svg width="37" height="36" viewBox="0 0 37 36" fill="none" xmlns="http://www.w3.org/2000/svg">
<path d="M22.3348 27.409C22.7676 27.8168 23.1929 28.2247 23.6183 28.6324C24.0438 29.0404 24.4695 29.4481 24.9022 29.8559L24.9025 29.8561C25.605 30.5314 26.2645 31.2555 27.0357 31.8474L27.0359 31.8476C27.7498 32.4113 28.6168 32.7339 29.6936 32.5079L29.6938 32.5081C30.8112 32.2743 31.6691 31.6501 32.3589 30.8671C32.9629 30.1815 33.4368 29.3757 33.842 28.6064L34.0115 28.2792C34.0838 28.1411 34.079 28.029 34.0319 27.9458C33.9843 27.8618 33.8912 27.8031 33.778 27.7778C33.5512 27.7273 33.2573 27.8131 33.1221 28.0803C32.6569 28.9955 32.1569 30.0123 31.2893 30.7703C30.7173 31.2705 29.9656 31.6845 29.2033 31.7106L29.2027 31.7106L29.1224 31.7104C28.2998 31.6905 27.7338 31.1552 27.2368 30.6934L27.2366 30.6931C26.5545 30.0391 25.8691 29.3818 25.1839 28.7245C24.4987 28.0673 23.8135 27.4102 23.1314 26.7562L23.1312 26.756C23.0355 26.6627 22.9159 26.6324 22.7953 26.6446C22.6735 26.6569 22.5491 26.7128 22.4481 26.7944C22.3472 26.8759 22.2722 26.9812 22.2457 27.0896C22.2195 27.1969 22.2402 27.3093 22.3348 27.409Z" fill="#EA0065" stroke="#CCB185" stroke-width="0.187805"/>
<path d="M0.31157 9.35623C0.444623 9.49165 0.695278 9.54776 0.954736 9.40079L1.00694 9.36853C1.35557 9.11779 1.71117 8.90529 2.09445 8.69273L2.09475 8.6925C3.50069 7.94151 5.08467 7.51281 6.61853 7.29499L6.92458 7.25415C8.36318 7.06834 9.78491 7.04889 11.161 7.19623C13.9414 7.4902 16.4669 8.3766 18.6271 9.67941L18.6268 9.67964C20.7983 10.9647 22.5959 12.6648 23.9566 14.631L24.0871 14.8219C25.6029 17.0347 26.6082 19.5497 27.2816 22.1735L27.4121 22.6997C28.0864 25.5766 28.3845 28.5507 28.4888 31.5666C28.4936 31.7002 28.5559 31.7821 28.6431 31.8247C28.7316 31.8679 28.8505 31.8728 28.9711 31.843C29.2131 31.7831 29.4447 31.589 29.435 31.3231C29.4281 31.1325 29.4179 30.9389 29.408 30.745C29.3981 30.5513 29.388 30.3573 29.381 30.1664C29.2171 27.0906 28.8309 24.0588 28.0192 21.1645C27.2145 18.3082 25.9965 15.6021 24.1671 13.2667C22.6027 11.2688 20.551 9.58696 18.1715 8.35746C15.7922 7.12809 13.0515 6.37715 10.1056 6.26629C6.94082 6.17311 3.23878 6.76645 0.422261 8.7961L0.42166 8.79657L0.375487 8.83183C0.274836 8.91567 0.226676 9.00625 0.215953 9.09132C0.203614 9.18922 0.240339 9.28373 0.31157 9.35623Z" fill="#EA0065" stroke="#CCB185" stroke-width="0.187805"/>
</svg>
