<svg width="16" height="16" viewBox="0 0 16 16" fill="none" xmlns="http://www.w3.org/2000/svg">
<g clip-path="url(#clip0_40001106_15585)">
<path d="M15.4644 7.31097C15.5607 7.13097 16.3694 5.71347 15.7707 5.62597C14.6319 5.45847 13.3982 5.61097 12.3369 6.09472C12.2969 5.33347 12.1619 4.57722 11.9769 3.83972C11.7719 3.01847 11.5394 2.19347 11.1182 1.45347C10.9807 1.21222 10.7857 0.853467 10.4969 0.767217C10.2919 0.707217 10.0407 0.948467 9.90941 1.08972C9.71066 1.30097 9.52816 1.53472 9.36316 1.77972C9.02191 2.28722 8.74191 2.87347 8.54316 3.47222C8.44941 3.75347 8.38566 4.04097 8.33441 4.33222C7.84795 3.72158 7.27628 3.184 6.63691 2.73597C5.66941 2.05972 4.54066 1.37972 3.39691 1.05597C3.19941 0.999717 3.04691 0.989717 2.92816 1.01472C2.57941 1.09222 2.53441 1.49847 2.53566 2.02222C2.54316 4.01972 3.07441 6.15847 4.33566 7.74097C4.12441 7.73222 3.91566 7.72722 3.71066 7.72722C3.00816 7.72847 2.29941 7.73222 1.60566 7.86097C1.21691 7.93347 0.0219116 8.15597 0.0156616 8.71347C0.0119116 9.01472 0.296912 9.30722 0.486912 9.50972C1.07066 10.1297 1.78941 10.5947 2.51316 11.0335C3.11816 11.3997 3.74816 11.731 4.40691 11.9872C3.68566 12.7947 3.18566 13.821 2.97066 14.8647C2.84941 15.4572 4.45691 15.1822 4.65941 15.1535C5.56566 15.0272 6.48691 14.871 7.30816 14.446C7.60566 14.2922 7.91816 14.0922 8.21816 13.8547C8.26566 14.2297 8.34691 14.586 8.46566 14.8872C8.56316 15.1372 9.09441 14.6472 9.16316 14.5872C9.90816 13.941 10.4294 13.021 10.5382 12.0397C10.5394 12.031 10.5394 12.0235 10.5394 12.0147C10.6832 12.066 10.8307 12.1022 10.9744 12.116C11.9582 12.2097 12.9644 11.8885 13.7494 11.2922C13.8219 11.2372 14.4094 10.8185 14.1857 10.671C13.8794 10.4697 13.4969 10.3035 13.0844 10.1722C13.3844 9.98097 13.6594 9.76847 13.8894 9.55597C14.5719 8.93222 15.0357 8.11972 15.4644 7.31097Z" fill="#ED6C30"/>
<path d="M8.84406 14.0214C8.84406 14.0214 9.33031 12.8252 10.3153 12.0352C11.1916 11.3302 12.5478 11.0252 13.0053 10.9702C13.0053 10.9702 11.9016 11.0102 10.6353 11.5139C10.6353 11.5139 11.8966 7.88891 15.1003 6.42766C15.1003 6.42766 12.3778 6.99891 10.4153 11.2439C10.4153 11.2439 9.43281 8.59016 10.4153 2.60266C10.4153 2.60266 9.27281 7.82891 10.1453 11.2852C10.1453 11.2852 7.77281 9.85141 3.49406 2.03516C3.49406 2.03516 6.44531 8.55516 9.76906 11.4589C9.76906 11.4589 6.60906 9.95266 1.66406 9.11016C7.13281 10.6514 7.72656 11.0464 9.65406 11.7339C9.65406 11.7339 6.06906 12.3352 3.98656 14.4577C3.98656 14.4577 7.17531 12.3077 9.77781 12.0677C9.77906 12.0677 9.05406 12.8964 8.84406 14.0214Z" fill="#F79329"/>
<path d="M3.99016 14.5371C3.96641 14.5371 3.94391 14.5271 3.92766 14.5084C3.91508 14.493 3.90863 14.4735 3.90955 14.4537C3.91048 14.4338 3.91871 14.415 3.93266 14.4009C5.66766 12.6321 8.46641 11.9059 9.35891 11.7109C9.02641 11.5896 8.73141 11.4771 8.42266 11.3584C7.15266 10.8721 5.83891 10.3696 1.64516 9.18713C1.6254 9.18182 1.60844 9.16914 1.59774 9.1517C1.58705 9.13427 1.58344 9.1134 1.58766 9.09338C1.59766 9.05213 1.63641 9.02463 1.68016 9.03213C5.52516 9.68713 8.32016 10.7559 9.36016 11.1921C6.20766 8.17338 3.45141 2.13088 3.42266 2.06838C3.41434 2.0494 3.41358 2.02795 3.42055 2.00843C3.42753 1.98891 3.44169 1.9728 3.46016 1.96338C3.49766 1.94463 3.54516 1.95838 3.56641 1.99713C7.14266 8.53088 9.40391 10.6071 10.0189 11.0921C9.24891 7.65838 10.3277 2.63588 10.3389 2.58463C10.3489 2.54213 10.3902 2.51213 10.4327 2.52338C10.4752 2.53213 10.5039 2.57213 10.4964 2.61463C9.67641 7.61838 10.2402 10.3084 10.4339 11.0221C12.3852 6.95963 15.0589 6.35463 15.0864 6.34838C15.1302 6.34213 15.1664 6.36338 15.1789 6.40213C15.1927 6.44088 15.1739 6.48338 15.1364 6.49963C12.3902 7.75213 11.0702 10.6509 10.7764 11.3746C11.9714 10.9334 12.9939 10.8909 13.0039 10.8896H13.0077C13.0489 10.8896 13.0852 10.9209 13.0877 10.9634C13.0914 11.0071 13.0602 11.0446 13.0177 11.0496C12.6077 11.0984 11.2389 11.3959 10.3677 12.0971C9.41141 12.8646 8.92516 14.0396 8.92016 14.0521C8.90516 14.0896 8.86266 14.1096 8.82266 14.0996C8.80364 14.0937 8.78745 14.081 8.7771 14.064C8.76675 14.047 8.76295 14.0268 8.76641 14.0071C8.92766 13.1446 9.37891 12.4609 9.59766 12.1684C7.08141 12.4859 4.06391 14.5034 4.03266 14.5246C4.02007 14.533 4.00526 14.5373 3.99016 14.5371ZM3.45016 9.53838C6.29891 10.3734 7.40516 10.7971 8.48016 11.2084C8.86891 11.3584 9.23766 11.4984 9.68391 11.6571C9.71766 11.6696 9.74016 11.7034 9.73641 11.7396C9.73391 11.7759 9.70641 11.8059 9.67016 11.8121C9.63891 11.8171 6.80141 12.3084 4.74266 13.8984C5.86266 13.2446 7.96641 12.1534 9.77391 11.9871C9.80391 11.9809 9.83766 12.0009 9.85266 12.0309C9.86766 12.0596 9.86266 12.0946 9.84141 12.1196C9.83641 12.1259 9.45141 12.5721 9.16766 13.2421C9.41516 12.8459 9.78016 12.3621 10.2677 11.9709C10.5789 11.7196 10.9477 11.5196 11.3152 11.3634C11.1077 11.4259 10.8889 11.4996 10.6664 11.5871C10.6389 11.5996 10.6052 11.5921 10.5814 11.5709C10.5704 11.5603 10.5627 11.5468 10.5592 11.5319C10.5556 11.5171 10.5564 11.5015 10.5614 11.4871C10.5714 11.4571 11.4114 9.10213 13.4027 7.41963C12.5077 8.10588 11.4114 9.28338 10.4902 11.2759C10.4764 11.3059 10.4477 11.3221 10.4152 11.3234C10.3992 11.3229 10.3838 11.3176 10.3709 11.3082C10.358 11.2989 10.3481 11.2859 10.3427 11.2709C10.3352 11.2534 9.93391 10.1259 9.90516 7.74463C9.88016 8.95213 9.95516 10.1971 10.2239 11.2646C10.2327 11.2959 10.2202 11.3284 10.1939 11.3496C10.1677 11.3684 10.1327 11.3709 10.1052 11.3534C10.0214 11.3034 8.27141 10.2021 5.07766 4.94588C6.25266 7.05463 7.98766 9.79588 9.82266 11.3996C9.85266 11.4259 9.85891 11.4709 9.83766 11.5046C9.81516 11.5371 9.77266 11.5496 9.73641 11.5321C9.71141 11.5184 7.29641 10.3809 3.45016 9.53838Z" fill="#F79329"/>
<path d="M14.0603 14.7459C14.2366 14.4797 14.2928 13.6747 14.0391 13.7647C13.7478 13.8684 13.4378 13.7784 13.1478 13.7122C12.8291 13.6397 12.5103 13.5509 12.2141 13.4084C12.0228 13.3159 11.8403 13.2084 11.6728 13.0772C11.1428 12.6597 10.7691 12.2297 10.4466 11.3434L10.4091 11.2422L9.85156 11.6584L9.87156 11.7134C9.89406 11.7759 10.2641 13.1384 11.6416 13.9147C11.9291 14.0772 12.2378 14.2009 12.5491 14.3072C12.9641 14.4484 13.5278 14.4897 13.8653 14.7959C13.9391 14.8597 14.0053 14.8284 14.0603 14.7459Z" fill="#F79329"/>
</g>
<defs>
<clipPath id="clip0_40001106_15585">
<rect width="16" height="16" fill="white"/>
</clipPath>
</defs>
</svg>
