<svg preserveAspectRatio="none" width="100%" height="100%" overflow="visible" style="display: block;" viewBox="0 0 20.4081 17.9928" fill="none" xmlns="http://www.w3.org/2000/svg">
<path id="Vector" d="M0.945313 0.200195C2.20667 0.271201 3.45834 0.330504 4.70898 0.389648C5.96163 0.448888 7.2136 0.508086 8.47461 0.579102H8.47656C10.5606 0.674732 12.6377 0.626915 14.6494 0.956055H14.6523C16.515 1.233 18.1726 2.10366 19.208 4.11914V4.12012C20.2908 6.22518 20.3892 8.51092 19.9971 10.7822C19.6045 13.0558 18.7232 15.3001 17.8633 17.3125V17.3145C17.7374 17.6159 17.5683 17.7406 17.4189 17.7783C17.2648 17.8171 17.084 17.7752 16.9141 17.6504C16.5723 17.3993 16.3401 16.8572 16.5869 16.2861H16.5879C17.5024 14.1617 18.5522 11.8048 18.6689 9.25C18.7465 7.56952 18.4392 5.71271 17.4414 4.42676L17.4395 4.42383L17.3271 4.29102C16.1548 2.96419 14.4395 2.87587 13.0117 2.78516H13.0088L0.922852 2.2168H0.920898C0.688843 2.20779 0.514938 2.09176 0.392578 1.9082C0.266801 1.71937 0.198086 1.46005 0.200195 1.19238C0.202334 0.924591 0.274884 0.669516 0.404297 0.487305C0.528436 0.312603 0.705076 0.202037 0.945313 0.200195Z" fill="var(--fill-0, #CDB285)" stroke="var(--stroke-0, #CCB185)" stroke-width="0.400844"/>
</svg>
