<svg width="19" height="19" viewBox="0 0 19 19" fill="none" xmlns="http://www.w3.org/2000/svg">
<path d="M9.56335 1.89343C12.4904 2.03709 14.7468 4.5264 14.6031 7.45345C14.5279 8.98571 13.8005 10.3596 12.4504 11.5554C12.3914 11.6076 12.3446 11.6716 12.3128 11.743L12.2862 11.8167L11.2837 15.3549C11.0863 16.0515 10.4595 16.5325 9.74538 16.5521L9.61853 16.5507L8.07331 16.4749C7.34995 16.4394 6.74015 15.9368 6.56041 15.2452L6.53321 15.1213L5.8831 11.5026C5.86452 11.3992 5.81665 11.3032 5.74516 11.2262C4.57633 9.96693 3.98573 8.60217 3.9971 7.15145L4.00332 6.9332L4.01474 6.7584C4.24673 3.91685 6.69483 1.75264 9.56335 1.89343ZM10.5175 14.0297L7.42457 13.8779L7.61377 14.9272C7.65444 15.1536 7.83093 15.3278 8.05194 15.3695L8.12713 15.3784L9.67235 15.4542C9.90207 15.4655 10.1114 15.3327 10.2018 15.1268L10.2274 15.0556L10.5175 14.0297ZM9.50953 2.98996C7.24206 2.87867 5.30581 4.58336 5.1108 6.82594L5.09985 6.98702L5.09482 7.18976C5.0944 8.33534 5.57168 9.42553 6.54982 10.4794C6.73364 10.6774 6.86543 10.9171 6.93443 11.177L6.96365 11.3085L7.22546 12.7689L10.8243 12.9456L11.2299 11.5174C11.3035 11.2577 11.4396 11.0207 11.6254 10.8268L11.7225 10.7335C12.7985 9.7805 13.38 8.7422 13.4917 7.60192L13.5066 7.39963L13.5115 7.23825C13.537 4.98735 11.777 3.10125 9.50953 2.98996Z" fill="#333333"/>
</svg>
