<svg preserveAspectRatio="none" width="100%" height="100%" overflow="visible" style="display: block;" viewBox="0 0 136.273 45.5" fill="none" xmlns="http://www.w3.org/2000/svg">
<path id="Line 569" d="M0.75 44C0.335786 44 0 44.3358 0 44.75C0 45.1642 0.335786 45.5 0.75 45.5L0.75 44.75L0.75 44ZM131.28 0.21967C130.987 -0.0732233 130.513 -0.0732233 130.22 0.21967L125.447 4.99264C125.154 5.28553 125.154 5.76041 125.447 6.0533C125.74 6.34619 126.214 6.34619 126.507 6.0533L130.75 1.81066L134.993 6.0533C135.286 6.34619 135.76 6.34619 136.053 6.0533C136.346 5.76041 136.346 5.28553 136.053 4.99264L131.28 0.21967ZM130.75 44.75V45.5H131.5V44.75H130.75ZM0.75 44.75L0.75 45.5L130.75 45.5V44.75V44L0.75 44L0.75 44.75ZM130.75 44.75H131.5V0.75H130.75H130V44.75H130.75Z" fill="var(--stroke-0, #CACACA)"/>
</svg>
