<svg width="812" height="466" viewBox="0 0 812 466" fill="none" xmlns="http://www.w3.org/2000/svg">
<rect x="0.782101" y="0.782101" width="810.436" height="464.436" rx="7.2179" fill="#F5F5F5"/>
<rect x="0.782101" y="0.782101" width="810.436" height="464.436" rx="7.2179" stroke="#DEDEDE" stroke-width="1.5642"/>
<path d="M191 52.75C190.586 52.75 190.25 52.4142 190.25 52C190.25 51.5858 190.586 51.25 191 51.25L191 52L191 52.75ZM445.53 96.5303C445.237 96.8232 444.763 96.8232 444.47 96.5303L439.697 91.7574C439.404 91.4645 439.404 90.9896 439.697 90.6967C439.99 90.4038 440.464 90.4038 440.757 90.6967L445 94.9393L449.243 90.6967C449.536 90.4038 450.01 90.4038 450.303 90.6967C450.596 90.9896 450.596 91.4645 450.303 91.7574L445.53 96.5303ZM445 52L445 51.25H445.75L445.75 52H445ZM191 52L191 51.25L445 51.25L445 52L445 52.75L191 52.75L191 52ZM445 52H445.75L445.75 96H445H444.25L444.25 52H445Z" fill="#CACACA"/>
<path d="M418 100C418 97.7909 419.791 96 422 96H467C469.209 96 471 97.7909 471 100V122H418V100Z" fill="#D22525"/>
<path d="M432.72 114V105.68H430.24V104.416C432.352 104.384 432.848 104.096 433.088 102.464H434.384V114H432.72ZM440.204 114.16C437.788 114.16 436.028 112.896 436.028 110.72C436.028 109.408 436.86 108.32 438.124 107.904C437.1 107.456 436.396 106.448 436.396 105.456C436.396 103.6 437.932 102.304 440.204 102.304C442.492 102.304 444.028 103.6 444.028 105.456C444.028 106.448 443.324 107.456 442.3 107.904C443.548 108.304 444.396 109.392 444.396 110.72C444.396 112.896 442.636 114.16 440.204 114.16ZM440.204 112.784C441.724 112.784 442.716 112 442.716 110.752C442.716 109.488 441.724 108.688 440.204 108.688C438.7 108.688 437.708 109.488 437.708 110.752C437.708 112 438.7 112.784 440.204 112.784ZM440.204 107.296C441.5 107.296 442.38 106.576 442.38 105.552C442.38 104.448 441.516 103.68 440.204 103.68C438.908 103.68 438.044 104.448 438.044 105.552C438.044 106.576 438.924 107.296 440.204 107.296ZM447.93 108.096C446.33 108.096 445.226 106.864 445.226 105.2C445.226 103.536 446.33 102.304 447.93 102.304C449.514 102.304 450.618 103.52 450.618 105.2C450.618 106.88 449.514 108.096 447.93 108.096ZM455.258 114.144C453.658 114.144 452.554 112.896 452.554 111.248C452.554 109.584 453.658 108.352 455.258 108.352C456.842 108.352 457.946 109.568 457.946 111.248C457.946 112.912 456.842 114.144 455.258 114.144ZM447.066 114L454.778 102.464H456.122L448.41 114H447.066ZM447.93 106.976C448.778 106.976 449.338 106.272 449.338 105.2C449.338 104.128 448.778 103.424 447.93 103.424C447.082 103.424 446.522 104.128 446.522 105.2C446.522 106.272 447.082 106.976 447.93 106.976ZM455.258 113.024C456.106 113.024 456.65 112.32 456.65 111.248C456.65 110.176 456.106 109.472 455.258 109.472C454.394 109.472 453.85 110.176 453.85 111.248C453.85 112.32 454.394 113.024 455.258 113.024Z" fill="white"/>
<path d="M191 52.75C190.586 52.75 190.25 52.4142 190.25 52C190.25 51.5858 190.586 51.25 191 51.25L191 52L191 52.75ZM321.53 96.5303C321.237 96.8232 320.763 96.8232 320.47 96.5303L315.697 91.7574C315.404 91.4645 315.404 90.9896 315.697 90.6967C315.99 90.4038 316.464 90.4038 316.757 90.6967L321 94.9393L325.243 90.6967C325.536 90.4038 326.01 90.4038 326.303 90.6967C326.596 90.9896 326.596 91.4645 326.303 91.7574L321.53 96.5303ZM321 52L321 51.25H321.75L321.75 52H321ZM191 52L191 51.25L321 51.25L321 52L321 52.75L191 52.75L191 52ZM321 52H321.75L321.75 96H321H320.25L320.25 52H321Z" fill="#CACACA"/>
<path d="M294 100C294 97.7909 295.791 96 298 96H346C348.209 96 350 97.7909 350 100V122H294V100Z" fill="#D22525"/>
<path d="M306.4 114V112.576L310.688 108.896C311.984 107.792 312.576 106.864 312.576 105.824C312.576 104.576 311.744 103.76 310.464 103.76C308.928 103.76 308.128 104.88 308.256 106.592H308.192L306.592 106.368C306.448 104 308.064 102.304 310.464 102.304C312.768 102.304 314.288 103.696 314.288 105.824C314.288 107.248 313.504 108.544 311.696 110.032L308.752 112.544H314.288V114H306.4ZM319.451 114.16C317.211 114.16 315.499 112.864 315.259 110.88L316.827 110.608H316.891C317.083 111.904 318.043 112.704 319.403 112.704C320.875 112.704 321.819 111.68 321.819 110.176C321.819 108.64 320.827 107.664 319.307 107.664C318.187 107.664 317.515 108.208 317.083 108.912H315.595L316.491 102.464H323.019V103.92H317.723L317.243 107.216C317.819 106.672 318.747 106.304 319.675 106.304C321.931 106.304 323.531 107.856 323.531 110.176C323.531 112.576 321.915 114.16 319.451 114.16ZM327.008 108.096C325.408 108.096 324.304 106.864 324.304 105.2C324.304 103.536 325.408 102.304 327.008 102.304C328.592 102.304 329.696 103.52 329.696 105.2C329.696 106.88 328.592 108.096 327.008 108.096ZM334.336 114.144C332.736 114.144 331.632 112.896 331.632 111.248C331.632 109.584 332.736 108.352 334.336 108.352C335.92 108.352 337.024 109.568 337.024 111.248C337.024 112.912 335.92 114.144 334.336 114.144ZM326.144 114L333.856 102.464H335.2L327.488 114H326.144ZM327.008 106.976C327.856 106.976 328.416 106.272 328.416 105.2C328.416 104.128 327.856 103.424 327.008 103.424C326.16 103.424 325.6 104.128 325.6 105.2C325.6 106.272 326.16 106.976 327.008 106.976ZM334.336 113.024C335.184 113.024 335.728 112.32 335.728 111.248C335.728 110.176 335.184 109.472 334.336 109.472C333.472 109.472 332.928 110.176 332.928 111.248C332.928 112.32 333.472 113.024 334.336 113.024Z" fill="white"/>
<path d="M321.5 204C321.5 203.724 321.276 203.5 321 203.5C320.724 203.5 320.5 203.724 320.5 204L321 204L321.5 204ZM355.51 259.736C355.705 259.541 355.705 259.224 355.51 259.029L352.328 255.847C352.133 255.651 351.816 255.651 351.621 255.847C351.425 256.042 351.425 256.359 351.621 256.554L354.449 259.382L351.621 262.211C351.425 262.406 351.425 262.722 351.621 262.918C351.816 263.113 352.133 263.113 352.328 262.918L355.51 259.736ZM321 259.382L320.5 259.382L320.5 259.882L321 259.882L321 259.382ZM321 204L320.5 204L320.5 259.382L321 259.382L321.5 259.382L321.5 204L321 204ZM321 259.382L321 259.882L355.156 259.882L355.156 259.382L355.156 258.882L321 258.882L321 259.382Z" fill="#CACACA"/>
<path d="M321.5 204C321.5 203.724 321.276 203.5 321 203.5C320.724 203.5 320.5 203.724 320.5 204L321 204L321.5 204ZM355.51 306.974C355.705 306.778 355.705 306.462 355.51 306.266L352.328 303.084C352.133 302.889 351.816 302.889 351.621 303.084C351.425 303.28 351.425 303.596 351.621 303.792L354.449 306.62L351.621 309.448C351.425 309.644 351.425 309.96 351.621 310.156C351.816 310.351 352.133 310.351 352.328 310.156L355.51 306.974ZM321 306.62L320.5 306.62L320.5 307.12L321 307.12L321 306.62ZM321 204L320.5 204L320.5 306.62L321 306.62L321.5 306.62L321.5 204L321 204ZM321 306.62L321 307.12L355.156 307.12L355.156 306.62L355.156 306.12L321 306.12L321 306.62Z" fill="#CACACA"/>
<path d="M321.5 204C321.5 203.724 321.276 203.5 321 203.5C320.724 203.5 320.5 203.724 320.5 204L321 204L321.5 204ZM355.51 352.582C355.705 352.387 355.705 352.071 355.51 351.875L352.328 348.693C352.133 348.498 351.816 348.498 351.621 348.693C351.425 348.889 351.425 349.205 351.621 349.4L354.449 352.229L351.621 355.057C351.425 355.253 351.425 355.569 351.621 355.764C351.816 355.96 352.133 355.96 352.328 355.764L355.51 352.582ZM321 352.229L320.5 352.229L320.5 352.729L321 352.729L321 352.229ZM321 204L320.5 204L320.5 352.229L321 352.229L321.5 352.229L321.5 204L321 204ZM321 352.229L321 352.729L355.156 352.729L355.156 352.229L355.156 351.729L321 351.729L321 352.229Z" fill="#CACACA"/>
<path d="M321.5 204C321.5 203.724 321.276 203.5 321 203.5C320.724 203.5 320.5 203.724 320.5 204L321 204L321.5 204ZM355.51 399.82C355.705 399.625 355.705 399.308 355.51 399.113L352.328 395.931C352.133 395.736 351.816 395.736 351.621 395.931C351.425 396.126 351.425 396.443 351.621 396.638L354.449 399.467L351.621 402.295C351.425 402.49 351.425 402.807 351.621 403.002C351.816 403.197 352.133 403.197 352.328 403.002L355.51 399.82ZM321 399.467L320.5 399.467L320.5 399.967L321 399.967L321 399.467ZM321 204L320.5 204L320.5 399.467L321 399.467L321.5 399.467L321.5 204L321 204ZM321 399.467L321 399.967L355.156 399.967L355.156 399.467L355.156 398.967L321 398.967L321 399.467Z" fill="#CACACA"/>
<path d="M191 52.75C190.586 52.75 190.25 52.4142 190.25 52C190.25 51.5858 190.586 51.25 191 51.25L191 52L191 52.75ZM569.53 96.5303C569.237 96.8232 568.763 96.8232 568.47 96.5303L563.697 91.7574C563.404 91.4645 563.404 90.9896 563.697 90.6967C563.99 90.4038 564.464 90.4038 564.757 90.6967L569 94.9393L573.243 90.6967C573.536 90.4038 574.01 90.4038 574.303 90.6967C574.596 90.9896 574.596 91.4645 574.303 91.7574L569.53 96.5303ZM569 52L569 51.25H569.75L569.75 52H569ZM191 52L191 51.25L569 51.25L569 52L569 52.75L191 52.75L191 52ZM569 52H569.75L569.75 96H569H568.25L568.25 52H569Z" fill="#CACACA"/>
<path d="M191 52.75C190.586 52.75 190.25 52.4142 190.25 52C190.25 51.5858 190.586 51.25 191 51.25L191 52L191 52.75ZM692.53 96.5303C692.237 96.8232 691.763 96.8232 691.47 96.5303L686.697 91.7574C686.404 91.4645 686.404 90.9896 686.697 90.6967C686.99 90.4038 687.464 90.4038 687.757 90.6967L692 94.9393L696.243 90.6967C696.536 90.4038 697.01 90.4038 697.303 90.6967C697.596 90.9896 697.596 91.4645 697.303 91.7574L692.53 96.5303ZM692 52L692 51.25H692.75L692.75 52H692ZM191 52L191 51.25L692 51.25L692 52L692 52.75L191 52.75L191 52ZM692 52H692.75L692.75 96H692H691.25L691.25 52H692Z" fill="#CACACA"/>
<path d="M379.19 266.352V251.932H388.65V253.752H381.27V257.812H387.19V259.652H381.27V266.352H379.19ZM390.069 266.352V251.932H394.609C398.729 251.932 401.749 254.972 401.749 259.132C401.749 263.312 398.729 266.352 394.609 266.352H390.069ZM392.149 264.532H394.609C397.529 264.532 399.609 262.272 399.609 259.132C399.609 256.012 397.529 253.752 394.609 253.752H392.149V264.532ZM407.223 266.552C404.563 266.552 403.043 265.092 402.823 263.412L404.603 262.792H404.683C404.903 264.112 405.843 264.892 407.223 264.892C408.363 264.892 409.123 264.312 409.123 263.392C409.123 262.632 408.603 262.212 407.743 261.992L405.763 261.532C404.543 261.232 403.163 260.652 403.163 258.792C403.163 257.092 404.703 255.772 406.923 255.772C409.103 255.772 410.543 256.892 410.903 258.492L409.103 259.032H409.023C408.843 257.932 408.003 257.332 406.923 257.332C405.843 257.332 405.163 257.972 405.163 258.652C405.163 259.332 405.683 259.672 406.463 259.872L408.243 260.312C409.803 260.692 411.143 261.272 411.143 263.372C411.143 265.172 409.543 266.552 407.223 266.552Z" fill="black"/>
<path d="M427.02 266V262.58H419.5V260.74L426.74 251.58H429.1V260.76H431.1V262.58H429.1V266H427.02ZM421.72 260.76H427.02V254.02L421.72 260.76ZM431.95 263.72H434.31V266H431.95V263.72ZM440.831 266.2C437.811 266.2 435.691 264.4 435.611 261.96L437.651 261.52H437.731C437.791 263.26 438.971 264.38 440.811 264.38C442.611 264.38 443.851 263.38 443.851 261.92C443.851 260.34 442.531 259.4 440.651 259.4C440.231 259.4 439.871 259.4 439.431 259.42V257.66C439.871 257.68 440.111 257.68 440.371 257.68C442.111 257.68 443.291 256.5 443.291 255.28C443.291 254.08 442.231 253.2 440.791 253.2C439.251 253.2 438.111 254.3 437.991 255.74H437.911L435.931 255.34C436.031 253.34 438.011 251.38 440.791 251.38C443.471 251.38 445.411 252.94 445.411 255.14C445.411 256.8 444.211 258.16 442.731 258.46C444.651 258.58 445.971 260.12 445.971 262C445.971 264.5 443.851 266.2 440.831 266.2ZM447.137 266V264.22L452.497 259.62C454.117 258.24 454.857 257.08 454.857 255.78C454.857 254.22 453.817 253.2 452.217 253.2C450.297 253.2 449.297 254.6 449.457 256.74H449.377L447.377 256.46C447.197 253.5 449.217 251.38 452.217 251.38C455.097 251.38 456.997 253.12 456.997 255.78C456.997 257.56 456.017 259.18 453.757 261.04L450.077 264.18H456.997V266H447.137ZM461.47 258.62C459.47 258.62 458.09 257.08 458.09 255C458.09 252.92 459.47 251.38 461.47 251.38C463.45 251.38 464.83 252.9 464.83 255C464.83 257.1 463.45 258.62 461.47 258.62ZM470.63 266.18C468.63 266.18 467.25 264.62 467.25 262.56C467.25 260.48 468.63 258.94 470.63 258.94C472.61 258.94 473.99 260.46 473.99 262.56C473.99 264.64 472.61 266.18 470.63 266.18ZM460.39 266L470.03 251.58H471.71L462.07 266H460.39ZM461.47 257.22C462.53 257.22 463.23 256.34 463.23 255C463.23 253.66 462.53 252.78 461.47 252.78C460.41 252.78 459.71 253.66 459.71 255C459.71 256.34 460.41 257.22 461.47 257.22ZM470.63 264.78C471.69 264.78 472.37 263.9 472.37 262.56C472.37 261.22 471.69 260.34 470.63 260.34C469.55 260.34 468.87 261.22 468.87 262.56C468.87 263.9 469.55 264.78 470.63 264.78Z" fill="#D22525"/>
<path d="M448.64 308.82C446.58 308.82 446.06 307.28 444.76 307.28C444.1 307.28 443.54 307.7 443.38 308.7L441.76 308.46C441.88 306.72 443.06 305.56 444.76 305.56C446.8 305.56 447.34 307.1 448.64 307.1C449.32 307.1 449.86 306.66 450.02 305.68L451.64 305.92C451.54 307.68 450.32 308.82 448.64 308.82ZM460.387 314V310.58H452.867V308.74L460.107 299.58H462.467V308.76H464.467V310.58H462.467V314H460.387ZM455.087 308.76H460.387V302.02L455.087 308.76ZM468.06 306.62C466.06 306.62 464.68 305.08 464.68 303C464.68 300.92 466.06 299.38 468.06 299.38C470.04 299.38 471.42 300.9 471.42 303C471.42 305.1 470.04 306.62 468.06 306.62ZM477.22 314.18C475.22 314.18 473.84 312.62 473.84 310.56C473.84 308.48 475.22 306.94 477.22 306.94C479.2 306.94 480.58 308.46 480.58 310.56C480.58 312.64 479.2 314.18 477.22 314.18ZM466.98 314L476.62 299.58H478.3L468.66 314H466.98ZM468.06 305.22C469.12 305.22 469.82 304.34 469.82 303C469.82 301.66 469.12 300.78 468.06 300.78C467 300.78 466.3 301.66 466.3 303C466.3 304.34 467 305.22 468.06 305.22ZM477.22 312.78C478.28 312.78 478.96 311.9 478.96 310.56C478.96 309.22 478.28 308.34 477.22 308.34C476.14 308.34 475.46 309.22 475.46 310.56C475.46 311.9 476.14 312.78 477.22 312.78Z" fill="#D22525"/>
<path d="M379.19 313.586V299.166H384.47C387.21 299.166 389.05 300.466 389.05 302.826C389.05 304.226 388.19 305.306 387.05 305.806C388.59 306.366 389.57 307.566 389.57 309.366C389.57 312.106 387.75 313.586 384.75 313.586H379.19ZM381.27 311.766H384.37C386.39 311.766 387.43 310.866 387.43 309.286C387.43 307.746 386.39 306.866 384.37 306.866H381.27V311.766ZM381.27 305.066H384.37C386.03 305.066 386.93 304.366 386.93 303.046C386.93 301.746 386.01 300.986 384.37 300.986H381.27V305.066ZM395.936 313.786C392.936 313.786 390.776 311.486 390.776 308.386C390.776 305.306 392.936 303.006 395.936 303.006C398.916 303.006 401.116 305.306 401.116 308.386C401.116 311.486 398.916 313.786 395.936 313.786ZM395.936 312.086C397.796 312.086 399.116 310.526 399.116 308.386C399.116 306.246 397.776 304.706 395.936 304.706C394.076 304.706 392.776 306.246 392.776 308.386C392.776 310.526 394.076 312.086 395.936 312.086ZM402.879 313.586V303.206H404.799V304.726C405.459 303.786 406.599 303.006 408.019 303.006C410.279 303.006 411.899 304.406 411.899 306.666V313.586H409.959V307.106C409.959 305.606 409.079 304.706 407.619 304.706C406.239 304.706 405.139 305.866 404.799 307.306V313.586H402.879ZM418.429 313.786C415.609 313.786 413.549 311.506 413.549 308.386C413.549 305.266 415.609 303.006 418.429 303.006C419.829 303.006 421.169 303.726 421.749 304.706V298.966H423.689V313.586H421.749V312.066C421.169 313.046 419.829 313.786 418.429 313.786ZM418.709 312.086C420.389 312.086 421.609 310.806 421.749 309.046V307.706C421.629 305.946 420.389 304.706 418.709 304.706C416.869 304.706 415.549 306.186 415.549 308.366C415.549 310.586 416.869 312.086 418.709 312.086ZM429.684 313.786C427.024 313.786 425.504 312.326 425.284 310.646L427.064 310.026H427.144C427.364 311.346 428.304 312.126 429.684 312.126C430.824 312.126 431.584 311.546 431.584 310.626C431.584 309.866 431.064 309.446 430.204 309.226L428.224 308.766C427.004 308.466 425.624 307.886 425.624 306.026C425.624 304.326 427.164 303.006 429.384 303.006C431.564 303.006 433.004 304.126 433.364 305.726L431.564 306.266H431.484C431.304 305.166 430.464 304.566 429.384 304.566C428.304 304.566 427.624 305.206 427.624 305.886C427.624 306.566 428.144 306.906 428.924 307.106L430.704 307.546C432.264 307.926 433.604 308.506 433.604 310.606C433.604 312.406 432.004 313.786 429.684 313.786Z" fill="black"/>
<path d="M388.29 360.828L381.21 349.588L381.25 359.548L381.27 360.748V360.828H379.19V346.408H381.55L388.63 357.628L388.59 347.688L388.57 346.488V346.408H390.65V360.828H388.29ZM393.174 360.828V346.408H399.094C401.934 346.408 403.674 348.068 403.674 350.648C403.674 353.188 401.934 354.928 399.094 354.928H395.254V360.828H393.174ZM395.254 353.108H398.854C400.554 353.108 401.534 352.148 401.534 350.648C401.534 349.168 400.554 348.228 398.854 348.228H395.254V353.108ZM409.944 361.028C407.004 361.028 404.604 359.148 404.384 356.608L406.324 356.168H406.404C406.564 357.948 408.104 359.208 409.944 359.208C411.824 359.208 413.024 358.288 413.024 356.948C413.024 355.748 412.204 355.048 411.024 354.708L408.444 353.948C406.544 353.408 404.944 352.428 404.944 350.108C404.944 347.768 407.004 346.208 409.844 346.208C412.564 346.208 414.704 347.728 414.944 349.888L413.044 350.348H412.964C412.704 348.968 411.544 348.028 409.844 348.028C408.104 348.028 407.084 348.788 407.084 350.008C407.084 351.088 407.864 351.648 408.984 351.968L411.624 352.728C413.564 353.288 415.164 354.328 415.164 356.848C415.164 359.368 413.064 361.028 409.944 361.028Z" fill="black"/>
<path d="M383.89 408.263C380.95 408.263 378.55 406.382 378.33 403.842L380.27 403.402H380.35C380.51 405.182 382.05 406.442 383.89 406.442C385.77 406.442 386.97 405.522 386.97 404.182C386.97 402.982 386.15 402.282 384.97 401.942L382.39 401.182C380.49 400.642 378.89 399.662 378.89 397.342C378.89 395.002 380.95 393.442 383.79 393.442C386.51 393.442 388.65 394.962 388.89 397.122L386.99 397.582H386.91C386.65 396.202 385.49 395.262 383.79 395.262C382.05 395.262 381.03 396.022 381.03 397.242C381.03 398.322 381.81 398.882 382.93 399.202L385.57 399.962C387.51 400.522 389.11 401.562 389.11 404.082C389.11 406.602 387.01 408.263 383.89 408.263ZM393.933 408.062L389.933 394.922L389.573 393.722V393.642H391.793L391.833 393.722L392.153 394.922L394.513 403.222C394.933 404.742 395.113 405.842 395.113 405.842C395.113 405.842 395.313 404.742 395.713 403.222L397.933 395.242L398.013 394.922L398.333 393.722L398.353 393.642H400.773L401.093 394.922L403.393 403.222C403.773 404.762 403.973 405.862 403.973 405.862C403.973 405.862 404.173 404.762 404.573 403.222L406.913 394.922L407.233 393.722L407.273 393.642H409.473V393.722L409.093 394.922L405.153 408.062H402.773L400.193 399.002C399.773 397.482 399.573 396.382 399.573 396.382C399.573 396.382 399.353 397.482 398.913 399.002L396.293 408.062H393.933ZM410.869 408.062V393.642H416.789C419.629 393.642 421.369 395.302 421.369 397.882C421.369 400.422 419.629 402.162 416.789 402.162H412.949V408.062H410.869ZM412.949 400.342H416.549C418.249 400.342 419.229 399.382 419.229 397.882C419.229 396.402 418.249 395.462 416.549 395.462H412.949V400.342Z" fill="black"/>
<path d="M62.634 252.14C60.366 252.14 58.882 250.754 58.882 248.612V241.906H59.918V248.71C59.918 250.222 60.996 251.23 62.634 251.23C64.286 251.23 65.364 250.222 65.364 248.71V241.906H66.4V248.612C66.4 250.754 64.902 252.14 62.634 252.14ZM70.9048 252.14C69.0848 252.14 68.1468 251.146 67.9508 249.998L68.8188 249.564H68.8748C69.0288 250.586 69.7008 251.286 70.9048 251.286C71.8568 251.286 72.5008 250.782 72.5008 249.984C72.5008 249.298 72.0248 248.948 71.3248 248.78L69.9248 248.444C69.0428 248.22 68.1888 247.8 68.1888 246.582C68.1888 245.462 69.2108 244.594 70.6668 244.594C72.1368 244.594 73.0468 245.308 73.3268 246.47L72.4308 246.82H72.3748C72.2208 245.924 71.5768 245.42 70.6668 245.42C69.7708 245.42 69.1968 245.952 69.1968 246.554C69.1968 247.142 69.6448 247.45 70.2328 247.59L71.5908 247.926C72.5988 248.192 73.5088 248.598 73.5088 249.984C73.5088 251.272 72.4448 252.14 70.9048 252.14ZM75.7319 248.402C75.7599 250.194 76.7679 251.286 78.2519 251.286C79.4279 251.286 80.1279 250.782 80.4359 249.676L81.4019 250.012C80.9959 251.314 79.8759 252.14 78.2379 252.14C76.2079 252.14 74.7659 250.586 74.7659 248.36C74.7659 246.148 76.1659 244.594 78.1959 244.594C80.9679 244.594 81.5559 247.03 81.3879 248.402H75.7319ZM78.1959 245.406C76.8659 245.406 76.0119 246.302 75.7879 247.632H80.4079C80.3239 246.288 79.4979 245.406 78.1959 245.406ZM83.1601 252V244.734H84.0981V246.022C84.5041 245.224 85.2321 244.594 86.2261 244.594C86.3661 244.594 86.5061 244.594 86.6321 244.622V245.546C85.0921 245.28 84.3081 246.624 84.0981 247.548V252H83.1601ZM92.9895 252.14C91.5615 252.14 90.5395 251.328 90.5395 250.068C90.5395 248.836 91.4635 248.094 92.9615 247.856L95.4955 247.464V247.212C95.4955 245.98 94.7115 245.42 93.6755 245.42C92.4715 245.42 91.8415 246.05 91.6175 246.96L90.6795 246.652C91.0155 245.56 91.9675 244.594 93.6755 244.594C95.2575 244.594 96.4335 245.476 96.4335 247.142V252H95.4955V250.642C94.9915 251.594 94.0395 252.14 92.9895 252.14ZM95.4955 249.368V248.262L93.0875 248.654C92.1215 248.808 91.5335 249.228 91.5335 250.04C91.5335 250.824 92.1775 251.328 93.0875 251.328C94.4455 251.328 95.2435 250.334 95.4955 249.368ZM99.4622 251.104V251.944V252H98.5242V241.766H99.4622V251.104ZM103.129 252L101.155 245.56L100.917 244.79V244.734H101.883L101.897 244.79L102.121 245.56L103.619 250.67L105.131 245.742L105.173 245.56L105.411 244.79L105.439 244.734H106.377L106.405 244.804L106.643 245.56L108.211 250.67L109.681 245.56L109.905 244.79L109.919 244.734H110.927V244.79L110.689 245.56L108.715 252H107.707L105.901 246.134L104.095 252H103.129ZM114.205 252.14C112.777 252.14 111.755 251.328 111.755 250.068C111.755 248.836 112.679 248.094 114.177 247.856L116.711 247.464V247.212C116.711 245.98 115.927 245.42 114.891 245.42C113.687 245.42 113.057 246.05 112.833 246.96L111.895 246.652C112.231 245.56 113.183 244.594 114.891 244.594C116.473 244.594 117.649 245.476 117.649 247.142V252H116.711V250.642C116.207 251.594 115.255 252.14 114.205 252.14ZM116.711 249.368V248.262L114.303 248.654C113.337 248.808 112.749 249.228 112.749 250.04C112.749 250.824 113.393 251.328 114.303 251.328C115.661 251.328 116.459 250.334 116.711 249.368ZM119.926 254.758C119.464 254.758 119.03 254.646 118.806 254.478L119.114 253.68C119.296 253.806 119.618 253.876 119.94 253.876C120.486 253.876 121.06 253.512 121.368 252.588L121.522 252.14L119.1 245.588L118.806 244.79V244.734H119.772L119.786 244.79L120.066 245.588L121.984 250.936L123.874 245.588L124.14 244.79L124.168 244.734H125.162V244.79L124.854 245.588L122.222 252.868C121.76 254.114 121.046 254.758 119.926 254.758ZM128.755 252.14C126.935 252.14 125.997 251.146 125.801 249.998L126.669 249.564H126.725C126.879 250.586 127.551 251.286 128.755 251.286C129.707 251.286 130.351 250.782 130.351 249.984C130.351 249.298 129.875 248.948 129.175 248.78L127.775 248.444C126.893 248.22 126.039 247.8 126.039 246.582C126.039 245.462 127.061 244.594 128.517 244.594C129.987 244.594 130.897 245.308 131.177 246.47L130.281 246.82H130.225C130.071 245.924 129.427 245.42 128.517 245.42C127.621 245.42 127.047 245.952 127.047 246.554C127.047 247.142 127.495 247.45 128.083 247.59L129.441 247.926C130.449 248.192 131.359 248.598 131.359 249.984C131.359 251.272 130.295 252.14 128.755 252.14ZM59.82 268.104V268.944V269H58.882V258.766H59.82V268.104ZM63.991 269.14C62.563 269.14 61.541 268.328 61.541 267.068C61.541 265.836 62.465 265.094 63.963 264.856L66.497 264.464V264.212C66.497 262.98 65.713 262.42 64.677 262.42C63.473 262.42 62.843 263.05 62.619 263.96L61.681 263.652C62.017 262.56 62.969 261.594 64.677 261.594C66.259 261.594 67.435 262.476 67.435 264.142V269H66.497V267.642C65.993 268.594 65.041 269.14 63.991 269.14ZM66.497 266.368V265.262L64.089 265.654C63.123 265.808 62.535 266.228 62.535 267.04C62.535 267.824 63.179 268.328 64.089 268.328C65.447 268.328 66.245 267.334 66.497 266.368ZM69.5258 269V261.734H70.4638V262.966C70.9258 262.266 71.7938 261.594 72.8998 261.594C74.5098 261.594 75.5878 262.56 75.5878 264.128V269H74.6358V264.324C74.6358 263.162 73.9218 262.462 72.7738 262.462C71.6538 262.462 70.7578 263.372 70.4638 264.464V269H69.5258ZM80.6737 269.14C78.7137 269.14 77.2577 267.544 77.2577 265.36C77.2577 263.176 78.7137 261.594 80.6737 261.594C81.6957 261.594 82.7317 262.14 83.1797 262.952V258.766H84.1177V269H83.1797V267.754C82.7317 268.58 81.6957 269.14 80.6737 269.14ZM80.7577 268.272C82.1017 268.272 83.0817 267.25 83.1797 265.85V264.87C83.0817 263.456 82.1017 262.462 80.7577 262.462C79.2877 262.462 78.2517 263.61 78.2517 265.36C78.2517 267.11 79.2877 268.272 80.7577 268.272ZM86.8268 265.402C86.8548 267.194 87.8628 268.286 89.3468 268.286C90.5228 268.286 91.2228 267.782 91.5308 266.676L92.4968 267.012C92.0908 268.314 90.9708 269.14 89.3328 269.14C87.3028 269.14 85.8608 267.586 85.8608 265.36C85.8608 263.148 87.2608 261.594 89.2908 261.594C92.0628 261.594 92.6508 264.03 92.4828 265.402H86.8268ZM89.2908 262.406C87.9608 262.406 87.1068 263.302 86.8828 264.632H91.5028C91.4188 263.288 90.5928 262.406 89.2908 262.406ZM97.251 269.14C95.291 269.14 93.835 267.544 93.835 265.36C93.835 263.176 95.291 261.594 97.251 261.594C98.273 261.594 99.309 262.14 99.757 262.952V258.766H100.695V269H99.757V267.754C99.309 268.58 98.273 269.14 97.251 269.14ZM97.335 268.272C98.679 268.272 99.659 267.25 99.757 265.85V264.87C99.659 263.456 98.679 262.462 97.335 262.462C95.865 262.462 94.829 263.61 94.829 265.36C94.829 267.11 95.865 268.272 97.335 268.272ZM106.116 269V258.766H107.054V262.966C107.516 262.266 108.384 261.594 109.49 261.594C111.1 261.594 112.178 262.56 112.178 264.128V269H111.226V264.324C111.226 263.162 110.512 262.462 109.364 262.462C108.244 262.462 107.348 263.372 107.054 264.464V269H106.116ZM114.814 265.402C114.842 267.194 115.85 268.286 117.334 268.286C118.51 268.286 119.21 267.782 119.518 266.676L120.484 267.012C120.078 268.314 118.958 269.14 117.32 269.14C115.29 269.14 113.848 267.586 113.848 265.36C113.848 263.148 115.248 261.594 117.278 261.594C120.05 261.594 120.638 264.03 120.47 265.402H114.814ZM117.278 262.406C115.948 262.406 115.094 263.302 114.87 264.632H119.49C119.406 263.288 118.58 262.406 117.278 262.406ZM122.242 269V261.734H123.18V263.022C123.586 262.224 124.314 261.594 125.308 261.594C125.448 261.594 125.588 261.594 125.714 261.622V262.546C124.174 262.28 123.39 263.624 123.18 264.548V269H122.242ZM127.166 265.402C127.194 267.194 128.202 268.286 129.686 268.286C130.862 268.286 131.562 267.782 131.87 266.676L132.836 267.012C132.43 268.314 131.31 269.14 129.672 269.14C127.642 269.14 126.2 267.586 126.2 265.36C126.2 263.148 127.6 261.594 129.63 261.594C132.402 261.594 132.99 264.03 132.822 265.402H127.166ZM129.63 262.406C128.3 262.406 127.446 263.302 127.222 264.632H131.842C131.758 263.288 130.932 262.406 129.63 262.406Z" fill="black"/>
<path d="M533 100C533 97.7909 534.791 96 537 96H601C603.209 96 605 97.7909 605 100V122H533V100Z" fill="#D22525"/>
<path d="M547.72 114V105.68H545.24V104.416C547.352 104.384 547.848 104.096 548.088 102.464H549.384V114H547.72ZM556.791 114V111.264H550.775V109.792L556.567 102.464H558.455V109.808H560.055V111.264H558.455V114H556.791ZM552.551 109.808H556.791V104.416L552.551 109.808ZM560.735 112.176H562.623V114H560.735V112.176ZM564.776 114C564.696 110.528 566.072 106.752 568.904 103.92H562.552V102.464H570.648V103.952C567.624 107.088 566.312 110.848 566.44 114H564.776ZM571.15 114V112.576L575.438 108.896C576.734 107.792 577.326 106.864 577.326 105.824C577.326 104.576 576.494 103.76 575.214 103.76C573.678 103.76 572.878 104.88 573.006 106.592H572.942L571.342 106.368C571.198 104 572.814 102.304 575.214 102.304C577.518 102.304 579.038 103.696 579.038 105.824C579.038 107.248 578.254 108.544 576.446 110.032L573.502 112.544H579.038V114H571.15ZM582.617 108.096C581.017 108.096 579.913 106.864 579.913 105.2C579.913 103.536 581.017 102.304 582.617 102.304C584.201 102.304 585.305 103.52 585.305 105.2C585.305 106.88 584.201 108.096 582.617 108.096ZM589.945 114.144C588.345 114.144 587.241 112.896 587.241 111.248C587.241 109.584 588.345 108.352 589.945 108.352C591.529 108.352 592.633 109.568 592.633 111.248C592.633 112.912 591.529 114.144 589.945 114.144ZM581.753 114L589.465 102.464H590.809L583.097 114H581.753ZM582.617 106.976C583.465 106.976 584.025 106.272 584.025 105.2C584.025 104.128 583.465 103.424 582.617 103.424C581.769 103.424 581.209 104.128 581.209 105.2C581.209 106.272 581.769 106.976 582.617 106.976ZM589.945 113.024C590.793 113.024 591.337 112.32 591.337 111.248C591.337 110.176 590.793 109.472 589.945 109.472C589.081 109.472 588.537 110.176 588.537 111.248C588.537 112.32 589.081 113.024 589.945 113.024Z" fill="white"/>
<path d="M658 100C658 97.7909 659.791 96 662 96H723C725.209 96 727 97.7909 727 100V122H658V100Z" fill="#D22525"/>
<path d="M675.056 114.16C672.64 114.16 670.88 112.896 670.88 110.72C670.88 109.408 671.712 108.32 672.976 107.904C671.952 107.456 671.248 106.448 671.248 105.456C671.248 103.6 672.784 102.304 675.056 102.304C677.344 102.304 678.88 103.6 678.88 105.456C678.88 106.448 678.176 107.456 677.152 107.904C678.4 108.304 679.248 109.392 679.248 110.72C679.248 112.896 677.488 114.16 675.056 114.16ZM675.056 112.784C676.576 112.784 677.568 112 677.568 110.752C677.568 109.488 676.576 108.688 675.056 108.688C673.552 108.688 672.56 109.488 672.56 110.752C672.56 112 673.552 112.784 675.056 112.784ZM675.056 107.296C676.352 107.296 677.232 106.576 677.232 105.552C677.232 104.448 676.368 103.68 675.056 103.68C673.76 103.68 672.896 104.448 672.896 105.552C672.896 106.576 673.776 107.296 675.056 107.296ZM680.321 112.176H682.209V114H680.321V112.176ZM687.511 102.304C690.343 102.304 691.895 104.672 691.895 107.872C691.895 111.712 690.055 114.16 687.207 114.16C685.303 114.16 683.719 113.184 683.351 111.2L684.951 110.928H685.015C685.143 112.032 686.039 112.704 687.191 112.704C689.063 112.704 690.247 110.96 690.279 108.576C690.279 108.496 690.295 108.416 690.295 108.272C689.783 109.312 688.663 110.096 687.159 110.096C685.015 110.096 683.303 108.56 683.303 106.32C683.303 103.968 685.063 102.304 687.511 102.304ZM687.479 103.76C686.039 103.76 685.015 104.848 685.015 106.32C685.015 107.76 686.039 108.784 687.479 108.784C688.839 108.784 689.751 107.824 690.103 106.528C690.007 104.816 688.903 103.76 687.479 103.76ZM692.892 114V112.576L697.18 108.896C698.476 107.792 699.068 106.864 699.068 105.824C699.068 104.576 698.236 103.76 696.956 103.76C695.42 103.76 694.62 104.88 694.748 106.592H694.684L693.084 106.368C692.94 104 694.556 102.304 696.956 102.304C699.26 102.304 700.78 103.696 700.78 105.824C700.78 107.248 699.996 108.544 698.188 110.032L695.244 112.544H700.78V114H692.892ZM704.359 108.096C702.759 108.096 701.655 106.864 701.655 105.2C701.655 103.536 702.759 102.304 704.359 102.304C705.943 102.304 707.047 103.52 707.047 105.2C707.047 106.88 705.943 108.096 704.359 108.096ZM711.687 114.144C710.087 114.144 708.983 112.896 708.983 111.248C708.983 109.584 710.087 108.352 711.687 108.352C713.271 108.352 714.375 109.568 714.375 111.248C714.375 112.912 713.271 114.144 711.687 114.144ZM703.495 114L711.207 102.464H712.551L704.839 114H703.495ZM704.359 106.976C705.207 106.976 705.767 106.272 705.767 105.2C705.767 104.128 705.207 103.424 704.359 103.424C703.511 103.424 702.951 104.128 702.951 105.2C702.951 106.272 703.511 106.976 704.359 106.976ZM711.687 113.024C712.535 113.024 713.079 112.32 713.079 111.248C713.079 110.176 712.535 109.472 711.687 109.472C710.823 109.472 710.279 110.176 710.279 111.248C710.279 112.32 710.823 113.024 711.687 113.024Z" fill="white"/>
<g clip-path="url(#clip0_1248_26549)">
<path d="M631.777 117.997H754.721V203.699H631.777V117.997Z" fill="white"/>
<path d="M678.242 185.466C675.228 185.466 672.826 183.268 672.826 180.049C672.826 176.83 675.228 174.632 678.242 174.632C680.44 174.632 681.743 175.731 682.528 176.987L680.958 177.788C680.456 176.925 679.451 176.265 678.242 176.265C676.248 176.265 674.71 177.851 674.71 180.049C674.71 182.247 676.248 183.833 678.242 183.833C679.451 183.833 680.456 183.189 680.958 182.31L682.528 183.111C681.728 184.367 680.44 185.466 678.242 185.466ZM688.583 185.277V184.461C688.018 185.105 687.139 185.466 686.134 185.466C684.894 185.466 683.496 184.634 683.496 182.954C683.496 181.211 684.894 180.489 686.134 180.489C687.154 180.489 688.034 180.818 688.583 181.462V180.332C688.583 179.452 687.861 178.919 686.809 178.919C685.961 178.919 685.223 179.233 684.564 179.876L683.889 178.73C684.768 177.898 685.867 177.506 687.076 177.506C688.756 177.506 690.232 178.212 690.232 180.253V185.277H688.583ZM688.583 183.55V182.404C688.206 181.886 687.5 181.619 686.778 181.619C685.851 181.619 685.161 182.153 685.161 182.985C685.161 183.801 685.851 184.335 686.778 184.335C687.5 184.335 688.206 184.068 688.583 183.55ZM691.71 184.288L692.463 183.095C692.997 183.644 694.049 184.163 695.038 184.163C696.027 184.163 696.53 183.801 696.53 183.236C696.53 182.577 695.729 182.341 694.803 182.137C693.5 181.855 691.945 181.509 691.945 179.814C691.945 178.573 693.013 177.506 694.928 177.506C696.216 177.506 697.189 177.961 697.88 178.573L697.189 179.735C696.734 179.217 695.886 178.824 694.944 178.824C694.08 178.824 693.531 179.138 693.531 179.672C693.531 180.253 694.285 180.457 695.18 180.661C696.498 180.944 698.116 181.321 698.116 183.111C698.116 184.445 697.001 185.466 694.96 185.466C693.672 185.466 692.495 185.058 691.71 184.288ZM704.909 185.277V180.504C704.909 179.327 704.296 178.966 703.37 178.966C702.538 178.966 701.816 179.468 701.423 179.986V185.277H699.775V174.805H701.423V178.73C701.926 178.134 702.915 177.506 704.108 177.506C705.741 177.506 706.557 178.353 706.557 179.908V185.277H704.909Z" fill="#7A7A7A"/>
<path d="M695.172 140.202H684.57V141.916H691.238V143.541H684.57V145.255H691.238V145.511C691.238 146.267 690.626 146.88 689.871 146.88H685.426C685.065 146.88 684.744 147.106 684.621 147.445C684.498 147.784 684.601 148.164 684.878 148.395L691.546 153.96L692.642 152.643L687.789 148.594H689.871C691.571 148.594 692.95 147.213 692.95 145.511V145.255H695.172V143.541H692.95V141.916H695.172V140.202Z" fill="#7A7A7A"/>
<path fill-rule="evenodd" clip-rule="evenodd" d="M689.87 132.794C682.275 132.794 676.117 138.961 676.117 146.568C676.117 154.175 682.275 160.342 689.87 160.342C697.466 160.342 703.624 154.175 703.624 146.568C703.624 138.961 697.466 132.794 689.87 132.794ZM677.951 146.568C677.951 139.975 683.288 134.631 689.87 134.631C696.453 134.631 701.79 139.975 701.79 146.568C701.79 153.161 696.453 158.505 689.87 158.505C683.288 158.505 677.951 153.161 677.951 146.568Z" fill="#7A7A7A"/>
<path d="M508.832 117.997H631.776V203.699H508.832V117.997Z" fill="white"/>
<path d="M529.785 185.277V174.805H531.622V185.277H529.785ZM538.919 185.277V180.536C538.919 179.358 538.322 178.966 537.396 178.966C536.548 178.966 535.826 179.468 535.449 179.986V185.277H533.801V177.694H535.449V178.73C535.952 178.134 536.925 177.506 538.118 177.506C539.751 177.506 540.568 178.385 540.568 179.939V185.277H538.919ZM542.049 184.288L542.803 183.095C543.337 183.644 544.389 184.163 545.378 184.163C546.367 184.163 546.869 183.801 546.869 183.236C546.869 182.577 546.069 182.341 545.142 182.137C543.839 181.855 542.285 181.509 542.285 179.814C542.285 178.573 543.353 177.506 545.268 177.506C546.555 177.506 547.529 177.961 548.22 178.573L547.529 179.735C547.074 179.217 546.226 178.824 545.284 178.824C544.42 178.824 543.871 179.138 543.871 179.672C543.871 180.253 544.624 180.457 545.519 180.661C546.838 180.944 548.455 181.321 548.455 183.111C548.455 184.445 547.34 185.466 545.299 185.466C544.012 185.466 542.834 185.058 542.049 184.288ZM555.233 185.277V184.273C554.683 184.885 553.741 185.466 552.548 185.466C550.915 185.466 550.114 184.618 550.114 183.064V177.694H551.763V182.467C551.763 183.644 552.36 184.006 553.286 184.006C554.118 184.006 554.84 183.535 555.233 183.016V177.694H556.881V185.277H555.233ZM559.023 185.277V177.694H560.671V178.809C561.236 178.087 562.147 177.521 563.136 177.521V179.154C562.995 179.123 562.822 179.107 562.618 179.107C561.927 179.107 561.001 179.578 560.671 180.112V185.277H559.023ZM569.097 185.277V184.461C568.532 185.105 567.653 185.466 566.648 185.466C565.408 185.466 564.01 184.634 564.01 182.954C564.01 181.211 565.408 180.489 566.648 180.489C567.669 180.489 568.548 180.818 569.097 181.462V180.332C569.097 179.452 568.375 178.919 567.323 178.919C566.475 178.919 565.737 179.233 565.078 179.876L564.403 178.73C565.282 177.898 566.381 177.506 567.59 177.506C569.27 177.506 570.746 178.212 570.746 180.253V185.277H569.097ZM569.097 183.55V182.404C568.721 181.886 568.014 181.619 567.292 181.619C566.365 181.619 565.675 182.153 565.675 182.985C565.675 183.801 566.365 184.335 567.292 184.335C568.014 184.335 568.721 184.068 569.097 183.55ZM578.002 185.277V180.536C578.002 179.358 577.405 178.966 576.479 178.966C575.631 178.966 574.909 179.468 574.532 179.986V185.277H572.883V177.694H574.532V178.73C575.034 178.134 576.008 177.506 577.201 177.506C578.834 177.506 579.65 178.385 579.65 179.939V185.277H578.002ZM581.32 181.478C581.32 179.186 582.938 177.506 585.246 177.506C586.721 177.506 587.616 178.134 588.15 178.856L587.067 179.861C586.643 179.264 586.062 178.966 585.324 178.966C583.942 178.966 583.032 180.002 583.032 181.478C583.032 182.954 583.942 184.006 585.324 184.006C586.062 184.006 586.643 183.692 587.067 183.111L588.15 184.116C587.616 184.838 586.721 185.466 585.246 185.466C582.938 185.466 581.32 183.786 581.32 181.478ZM589.125 181.478C589.125 179.28 590.726 177.506 592.971 177.506C595.248 177.506 596.708 179.248 596.708 181.635V182.027H590.852C590.977 183.173 591.841 184.116 593.27 184.116C594.008 184.116 594.887 183.817 595.421 183.283L596.174 184.367C595.421 185.089 594.306 185.466 593.097 185.466C590.82 185.466 589.125 183.88 589.125 181.478ZM592.971 178.856C591.558 178.856 590.915 179.939 590.836 180.866H595.107C595.075 179.971 594.463 178.856 592.971 178.856Z" fill="#7A7A7A"/>
<path d="M566.318 149.705L571.245 144.77L569.948 143.472L566.318 147.107L564.521 145.308L563.224 146.607L566.318 149.705Z" fill="#7A7A7A"/>
<path fill-rule="evenodd" clip-rule="evenodd" d="M569.028 133.959C568.516 133.234 567.683 132.923 566.929 132.923C566.176 132.923 565.342 133.234 564.831 133.959C562.782 136.859 559.595 138.891 555.924 139.403C554.862 139.551 553.909 140.477 554.016 141.707C554.709 149.634 559.333 156.429 565.92 160.129C566.548 160.482 567.315 160.482 567.943 160.129C574.53 156.429 579.154 149.634 579.847 141.708C579.954 140.478 579 139.551 577.938 139.404C574.266 138.892 571.077 136.86 569.028 133.959ZM566.328 135.019C566.426 134.881 566.638 134.76 566.929 134.76C567.221 134.76 567.433 134.881 567.531 135.019C569.863 138.321 573.496 140.639 577.686 141.223C577.8 141.238 577.894 141.294 577.953 141.361C578.008 141.424 578.026 141.486 578.02 141.548C577.382 148.849 573.122 155.114 567.046 158.527C566.975 158.567 566.888 158.567 566.817 158.527C560.741 155.114 556.481 148.849 555.843 141.547C555.838 141.486 555.855 141.423 555.91 141.361C555.969 141.294 556.063 141.238 556.177 141.222C560.366 140.638 563.997 138.32 566.328 135.019Z" fill="#7A7A7A"/>
<path d="M385.891 117.997H508.835V203.699H385.891V117.997Z" fill="white"/>
<path d="M413.406 185.277V176.422H410.234V174.805H418.414V176.422H415.243V185.277H413.406ZM423.222 185.277V184.461C422.656 185.105 421.777 185.466 420.772 185.466C419.532 185.466 418.135 184.634 418.135 182.954C418.135 181.211 419.532 180.489 420.772 180.489C421.793 180.489 422.672 180.818 423.222 181.462V180.332C423.222 179.452 422.499 178.919 421.448 178.919C420.6 178.919 419.862 179.233 419.202 179.876L418.527 178.73C419.406 177.898 420.506 177.506 421.714 177.506C423.394 177.506 424.87 178.212 424.87 180.253V185.277H423.222ZM423.222 183.55V182.404C422.845 181.886 422.138 181.619 421.416 181.619C420.49 181.619 419.799 182.153 419.799 182.985C419.799 183.801 420.49 184.335 421.416 184.335C422.138 184.335 422.845 184.068 423.222 183.55ZM431.796 185.277L429.834 182.483L427.855 185.277H426.018L428.797 181.384L426.175 177.694H428.028L429.834 180.269L431.624 177.694H433.476L430.854 181.384L433.649 185.277H431.796ZM434.2 182.184V180.771H437.968V182.184H434.2ZM438.844 184.288L439.598 183.095C440.132 183.644 441.184 184.163 442.173 184.163C443.162 184.163 443.664 183.801 443.664 183.236C443.664 182.577 442.864 182.341 441.937 182.137C440.634 181.855 439.08 181.509 439.08 179.814C439.08 178.573 440.147 177.506 442.063 177.506C443.35 177.506 444.324 177.961 445.014 178.573L444.324 179.735C443.868 179.217 443.021 178.824 442.079 178.824C441.215 178.824 440.665 179.138 440.665 179.672C440.665 180.253 441.419 180.457 442.314 180.661C443.633 180.944 445.25 181.321 445.25 183.111C445.25 184.445 444.135 185.466 442.094 185.466C440.807 185.466 439.629 185.058 438.844 184.288ZM451.541 185.277V184.461C450.976 185.105 450.096 185.466 449.092 185.466C447.851 185.466 446.454 184.634 446.454 182.954C446.454 181.211 447.851 180.489 449.092 180.489C450.112 180.489 450.991 180.818 451.541 181.462V180.332C451.541 179.452 450.819 178.919 449.767 178.919C448.919 178.919 448.181 179.233 447.522 179.876L446.846 178.73C447.726 177.898 448.825 177.506 450.034 177.506C451.714 177.506 453.189 178.212 453.189 180.253V185.277H451.541ZM451.541 183.55V182.404C451.164 181.886 450.458 181.619 449.735 181.619C448.809 181.619 448.118 182.153 448.118 182.985C448.118 183.801 448.809 184.335 449.735 184.335C450.458 184.335 451.164 184.068 451.541 183.55ZM457.321 185.277L454.228 177.694H455.986L458.2 183.378L460.414 177.694H462.188L459.095 185.277H457.321ZM462.752 181.478C462.752 179.28 464.353 177.506 466.599 177.506C468.875 177.506 470.335 179.248 470.335 181.635V182.027H464.479C464.605 183.173 465.468 184.116 466.897 184.116C467.635 184.116 468.514 183.817 469.048 183.283L469.802 184.367C469.048 185.089 467.933 185.466 466.724 185.466C464.448 185.466 462.752 183.88 462.752 181.478ZM466.599 178.856C465.186 178.856 464.542 179.939 464.463 180.866H468.734C468.703 179.971 468.09 178.856 466.599 178.856ZM471.963 185.277V177.694H473.611V178.809C474.176 178.087 475.087 177.521 476.076 177.521V179.154C475.935 179.123 475.762 179.107 475.558 179.107C474.867 179.107 473.941 179.578 473.611 180.112V185.277H471.963Z" fill="#7A7A7A"/>
<path fill-rule="evenodd" clip-rule="evenodd" d="M452.668 141.502C453.026 141.861 453.026 142.442 452.668 142.801L442.888 152.595C442.53 152.954 441.949 152.954 441.591 152.595C441.233 152.237 441.233 151.655 441.591 151.297L451.371 141.502C451.729 141.144 452.31 141.144 452.668 141.502Z" fill="#7A7A7A"/>
<ellipse cx="442.783" cy="142.689" rx="1.83377" ry="1.83648" fill="#7A7A7A"/>
<path fill-rule="evenodd" clip-rule="evenodd" d="M446.838 134.677C440.281 134.677 434.965 140.001 434.965 146.568C434.965 153.135 440.281 158.459 446.838 158.459C453.396 158.459 458.712 153.135 458.712 146.568C458.712 140.001 453.396 134.677 446.838 134.677ZM433.039 146.568C433.039 138.936 439.217 132.749 446.838 132.749C454.459 132.749 460.637 138.936 460.637 146.568C460.637 154.2 454.459 160.388 446.838 160.388C439.217 160.388 433.039 154.2 433.039 146.568Z" fill="#7A7A7A"/>
<ellipse cx="451.338" cy="151.259" rx="1.83377" ry="1.83648" fill="#7A7A7A"/>
<path d="M262.941 117.997H385.886V203.699H262.941V117.997Z" fill="white"/>
<path d="M294.997 185.277V174.805H296.834V185.277H294.997ZM304.132 185.277V180.536C304.132 179.358 303.535 178.966 302.609 178.966C301.761 178.966 301.039 179.468 300.662 179.986V185.277H299.013V177.694H300.662V178.73C301.164 178.134 302.138 177.506 303.331 177.506C304.964 177.506 305.78 178.385 305.78 179.939V185.277H304.132ZM307.451 181.478C307.451 179.186 309.068 177.506 311.376 177.506C312.852 177.506 313.747 178.134 314.28 178.856L313.197 179.861C312.773 179.264 312.192 178.966 311.454 178.966C310.073 178.966 309.162 180.002 309.162 181.478C309.162 182.954 310.073 184.006 311.454 184.006C312.192 184.006 312.773 183.692 313.197 183.111L314.28 184.116C313.747 184.838 312.852 185.466 311.376 185.466C309.068 185.466 307.451 183.786 307.451 181.478ZM319.149 185.466C316.746 185.466 315.255 183.66 315.255 181.478C315.255 179.311 316.746 177.506 319.149 177.506C321.582 177.506 323.058 179.311 323.058 181.478C323.058 183.66 321.582 185.466 319.149 185.466ZM319.149 184.006C320.562 184.006 321.347 182.828 321.347 181.478C321.347 180.143 320.562 178.966 319.149 178.966C317.751 178.966 316.966 180.143 316.966 181.478C316.966 182.828 317.751 184.006 319.149 184.006ZM334.021 185.277V180.332C334.021 179.515 333.66 178.966 332.78 178.966C332.043 178.966 331.352 179.484 331.022 179.971V185.277H329.373V180.332C329.373 179.515 329.012 178.966 328.117 178.966C327.395 178.966 326.72 179.484 326.375 179.986V185.277H324.726V177.694H326.375V178.73C326.689 178.259 327.694 177.506 328.84 177.506C329.97 177.506 330.661 178.071 330.912 178.903C331.352 178.212 332.357 177.506 333.487 177.506C334.884 177.506 335.669 178.259 335.669 179.798V185.277H334.021ZM337.334 181.478C337.334 179.28 338.935 177.506 341.18 177.506C343.457 177.506 344.917 179.248 344.917 181.635V182.027H339.061C339.186 183.173 340.05 184.116 341.479 184.116C342.217 184.116 343.096 183.817 343.63 183.283L344.383 184.367C343.63 185.089 342.515 185.466 341.306 185.466C339.029 185.466 337.334 183.88 337.334 181.478ZM341.18 178.856C339.767 178.856 339.124 179.939 339.045 180.866H343.316C343.284 179.971 342.672 178.856 341.18 178.856Z" fill="#7A7A7A"/>
<path fill-rule="evenodd" clip-rule="evenodd" d="M308.303 136.229C312.134 134.291 316.931 134.923 320.133 138.13C321.379 139.378 322.236 140.869 322.704 142.45C323.279 141.596 324.011 140.828 324.894 140.19C327.82 138.077 331.585 137.984 334.535 139.638C334.771 139.77 334.937 140 334.988 140.266C335.627 143.593 334.351 147.146 331.423 149.261C328.84 151.127 325.601 151.418 322.848 150.321V159.999H321.014V149.969C317.374 151.347 313.104 150.57 310.172 147.633C307.224 144.681 306.456 140.376 307.861 136.719C307.942 136.507 308.1 136.332 308.303 136.229ZM309.451 137.714C308.467 140.643 309.141 144.004 311.468 146.334C314.005 148.875 317.765 149.448 320.853 148.048C321.837 145.12 321.163 141.759 318.836 139.428C316.299 136.888 312.539 136.315 309.451 137.714ZM333.256 141.04C330.969 139.935 328.168 140.09 325.967 141.68C323.764 143.271 322.734 145.887 323.062 148.411C325.348 149.516 328.149 149.361 330.351 147.771C332.553 146.18 333.583 143.564 333.256 141.04Z" fill="#7A7A7A"/>
<path d="M140 117.996H262.944V203.698H140V117.996Z" fill="white"/>
<path fill-rule="evenodd" clip-rule="evenodd" d="M197.856 139.104C196.777 138.267 197.252 136.54 198.608 136.375L209.145 135.094C209.958 134.995 210.704 135.555 210.837 136.364L212.645 147.351C212.87 148.722 211.301 149.661 210.203 148.811L207.394 146.639L200.477 155.37C199.921 156.073 198.884 156.148 198.233 155.534L193.505 151.078L186.359 157.155C185.084 158.239 183.247 156.779 184.01 155.289L190.962 141.726C191.44 140.795 192.689 140.608 193.418 141.358L197.871 145.948L200.772 141.367L197.856 139.104Z" fill="#00B852"/>
<path d="M166.814 180.048C166.814 176.767 169.279 174.631 172.309 174.631C174.35 174.631 175.685 175.605 176.533 176.814L175.026 177.662C174.476 176.877 173.487 176.264 172.309 176.264C170.237 176.264 168.698 177.85 168.698 180.048C168.698 182.246 170.237 183.848 172.309 183.848C173.377 183.848 174.319 183.345 174.79 182.906V181.273H171.666V179.656H176.627V183.581C175.591 184.727 174.131 185.48 172.309 185.48C169.279 185.48 166.814 183.33 166.814 180.048ZM178.021 181.477C178.021 179.279 179.623 177.505 181.868 177.505C184.144 177.505 185.605 179.247 185.605 181.634V182.026H179.748C179.874 183.172 180.737 184.115 182.166 184.115C182.904 184.115 183.783 183.816 184.317 183.282L185.071 184.366C184.317 185.088 183.202 185.465 181.993 185.465C179.717 185.465 178.021 183.879 178.021 181.477ZM181.868 178.855C180.455 178.855 179.811 179.938 179.733 180.865H184.003C183.972 179.97 183.359 178.855 181.868 178.855ZM192.35 185.276V180.535C192.35 179.357 191.753 178.965 190.827 178.965C189.979 178.965 189.257 179.467 188.88 179.985V185.276H187.232V177.693H188.88V178.729C189.383 178.133 190.356 177.505 191.549 177.505C193.182 177.505 193.999 178.384 193.999 179.938V185.276H192.35ZM196.956 176.437C196.407 176.437 195.936 175.982 195.936 175.416C195.936 174.851 196.407 174.396 196.956 174.396C197.522 174.396 197.977 174.851 197.977 175.416C197.977 175.982 197.522 176.437 196.956 176.437ZM196.14 185.276V177.693H197.788V185.276H196.14ZM205.045 185.276V184.272C204.496 184.884 203.554 185.465 202.361 185.465C200.728 185.465 199.927 184.617 199.927 183.063V177.693H201.576V182.466C201.576 183.644 202.172 184.005 203.099 184.005C203.931 184.005 204.653 183.534 205.045 183.015V177.693H206.694V185.276H205.045ZM208.176 184.287L208.929 183.094C209.463 183.644 210.515 184.162 211.504 184.162C212.493 184.162 212.996 183.801 212.996 183.235C212.996 182.576 212.195 182.34 211.269 182.136C209.966 181.854 208.411 181.508 208.411 179.813C208.411 178.572 209.479 177.505 211.394 177.505C212.682 177.505 213.655 177.96 214.346 178.572L213.655 179.734C213.2 179.216 212.352 178.823 211.41 178.823C210.547 178.823 209.997 179.137 209.997 179.671C209.997 180.252 210.751 180.456 211.646 180.66C212.965 180.943 214.582 181.32 214.582 183.11C214.582 184.444 213.467 185.465 211.426 185.465C210.138 185.465 208.961 185.057 208.176 184.287Z" fill="#00B852"/>
<path d="M140 118.714H754.721" stroke="#DDDDDD" stroke-width="1.42732"/>
<path d="M140 117.998H262.944C262.944 120.363 261.027 122.283 258.662 122.283H144.282C141.917 122.283 140 120.363 140 117.998Z" fill="#00B852"/>
</g>
<path d="M95.919 231.29C96.1835 231.109 96.3838 230.672 96.1783 230.097L96.131 229.981C95.7225 229.125 95.3981 228.272 95.0831 227.363L95.0818 227.36C93.9101 223.802 93.5833 219.97 93.718 216.399L93.7175 216.398C93.823 213.239 94.2731 210.186 95.0598 207.301C96.6405 201.474 99.3829 196.445 102.877 192.376L102.877 192.375C106.451 188.14 110.82 184.951 115.613 182.882L115.613 182.883C121.146 180.433 127.199 179.373 133.349 179.14L133.351 179.141C139.637 178.93 145.995 179.565 152.371 180.63C152.616 180.671 152.758 180.586 152.842 180.467C152.936 180.335 152.986 180.122 152.966 179.87C152.926 179.359 152.618 178.841 152.123 178.759C151.721 178.692 151.311 178.631 150.9 178.569C150.49 178.508 150.079 178.446 149.675 178.38C143.569 177.477 137.481 177.009 131.513 177.362L130.321 177.443C124.055 177.94 117.968 179.38 112.451 182.276C107.734 184.752 103.51 188.398 100.12 192.933C96.7314 197.467 94.2188 202.973 92.9755 209.191C91.6934 215.885 91.6669 224.007 94.9462 230.852L94.9471 230.854C95.0884 231.157 95.2683 231.308 95.4348 231.364C95.6017 231.421 95.7742 231.389 95.919 231.29Z" fill="#CDB285" stroke="#CCB185" stroke-width="0.400844"/>
<path d="M139.394 192.544C140.392 191.801 141.388 191.073 142.383 190.346C143.38 189.617 144.376 188.889 145.374 188.146L145.376 188.145C147.035 186.936 148.757 185.856 150.248 184.481L150.25 184.479C151.643 183.23 152.589 181.571 152.488 179.242L152.488 179.241C152.383 176.809 151.388 174.749 149.998 172.966C148.607 171.182 146.831 169.688 145.18 168.385L145.179 168.384C144.935 168.187 144.738 168.169 144.598 168.216C144.453 168.265 144.325 168.4 144.245 168.601C144.084 169.006 144.149 169.608 144.619 169.976L144.62 169.975C146.368 171.346 148.335 172.849 149.633 175.029C150.487 176.462 151.109 178.258 150.898 179.926L150.898 179.93L150.869 180.107C150.534 181.905 149.173 182.909 148.047 183.759L148.045 183.761L138.427 190.786L138.425 190.787C138.239 190.92 138.152 191.116 138.138 191.343C138.124 191.577 138.19 191.842 138.318 192.076C138.445 192.309 138.625 192.494 138.816 192.584C139 192.671 139.197 192.672 139.394 192.544Z" fill="#CDB285" stroke="#CCB185" stroke-width="0.400844"/>
<defs>
<clipPath id="clip0_1248_26549">
<path d="M140 118H754.721V192.284C754.721 198.59 749.608 203.702 743.302 203.702H151.419C145.112 203.702 140 198.59 140 192.284V118Z" fill="white"/>
</clipPath>
</defs>
</svg>
