<svg preserveAspectRatio="none" width="100%" height="100%" overflow="visible" style="display: block;" viewBox="0 0 77.3076 32.4545" fill="none" xmlns="http://www.w3.org/2000/svg">
<path id="Vector" d="M0.874023 0.200195C1.19947 0.204274 1.58884 0.458782 1.67676 1.05566L1.68945 1.17969C1.72715 2.12496 1.83995 3.02138 1.98828 3.95996V3.96289C2.62296 7.60085 4.15282 10.997 5.97559 13.916V13.917C7.57567 16.507 9.43746 18.8161 11.5234 20.7959C15.7293 24.7994 20.6058 27.4845 25.7061 28.9453V28.9463C30.9562 30.5013 36.4292 30.7359 41.751 29.7939L41.75 29.793C47.9238 28.7573 53.9054 26.2655 59.5811 23.0264L59.582 23.0254C65.3697 19.6919 70.8207 15.6088 76.082 11.1543C76.2842 10.9839 76.453 10.9759 76.5859 11.0283C76.7339 11.0867 76.8803 11.2376 76.9824 11.46C77.1895 11.9108 77.1577 12.5172 76.749 12.8623C76.4171 13.1423 76.075 13.4229 75.7324 13.7041C75.3911 13.9843 75.0484 14.2655 74.7148 14.5469C69.6201 18.7135 64.3347 22.5063 58.7666 25.543L57.6494 26.1406C51.7432 29.2237 45.5498 31.4149 39.1787 32.0674C33.7316 32.6263 28.1729 31.9276 22.9453 30.0176C17.7199 28.1083 12.8238 24.8941 8.7373 20.375C4.38844 15.4772 0.495789 8.6817 0.202148 1.11035V1.1084C0.185719 0.77539 0.276602 0.548367 0.400391 0.408203C0.524541 0.267751 0.695711 0.197977 0.874023 0.200195Z" fill="var(--fill-0, #CDB285)" stroke="var(--stroke-0, #CCB185)" stroke-width="0.400844"/>
</svg>
