<svg width="24" height="24" viewBox="0 0 24 24" fill="none" xmlns="http://www.w3.org/2000/svg">
<path d="M12.0009 1C13.0618 1 14.0792 1.42143 14.8293 2.17157C15.5795 2.92172 16.0009 3.93913 16.0009 5L15.9989 5.055L16.0289 5.037C16.8716 4.54815 17.8646 4.38621 18.8189 4.582L19.0559 4.638C19.561 4.77458 20.0341 5.00966 20.4481 5.32972C20.862 5.64979 21.2086 6.04852 21.4679 6.503C21.9954 7.42097 22.1385 8.51032 21.8659 9.53338C21.5933 10.5564 20.9272 11.4302 20.0129 11.964L19.9449 12L20.0159 12.039C20.8973 12.5544 21.5489 13.3865 21.8379 14.3658C22.1268 15.3451 22.0313 16.3977 21.5709 17.309L21.4699 17.495C21.2105 17.9501 20.8635 18.3494 20.4491 18.6698C20.0346 18.9902 19.5608 19.2254 19.0551 19.3619C18.5493 19.4983 18.0215 19.5334 17.5021 19.4649C16.9827 19.3964 16.482 19.2259 16.0289 18.963L15.9989 18.943L16.0009 19C16.0009 20.0262 15.6065 21.0132 14.8992 21.7568C14.1919 22.5004 13.2259 22.9437 12.2009 22.995L12.0009 23C10.94 23 9.92262 22.5786 9.17247 21.8284C8.42232 21.0783 8.0009 20.0609 8.0009 19L8.0019 18.944L7.9729 18.963C7.13035 19.4522 6.13735 19.6145 5.1829 19.419L4.9469 19.363C4.44161 19.2265 3.96829 18.9915 3.55417 18.6714C3.14005 18.3514 2.79331 17.9526 2.5339 17.498C2.00652 16.5804 1.86331 15.4914 2.13549 14.4686C2.40768 13.4458 3.07318 12.5721 3.9869 12.038L4.0569 12L3.9859 11.962C3.1045 11.4466 2.45289 10.6145 2.16394 9.63519C1.87499 8.65591 1.97046 7.6033 2.4309 6.692L2.5309 6.505C2.79033 6.04949 3.13741 5.64986 3.5521 5.32919C3.96679 5.00852 4.44088 4.77315 4.94702 4.63667C5.45315 4.50018 5.98131 4.46529 6.501 4.534C7.02069 4.60272 7.52162 4.77367 7.9749 5.037L8.0009 5.055V5C8.0009 3.97376 8.39533 2.98677 9.10262 2.24319C9.80991 1.4996 10.7759 1.05631 11.8009 1.005L12.0009 1ZM12.0009 9C11.2052 9 10.4422 9.31607 9.87958 9.87868C9.31697 10.4413 9.0009 11.2044 9.0009 12C9.0009 12.7956 9.31697 13.5587 9.87958 14.1213C10.4422 14.6839 11.2052 15 12.0009 15C12.7965 15 13.5596 14.6839 14.1222 14.1213C14.6848 13.5587 15.0009 12.7956 15.0009 12C15.0009 11.2044 14.6848 10.4413 14.1222 9.87868C13.5596 9.31607 12.7965 9 12.0009 9Z" fill="#0F0F0F"/>
</svg>
