<svg width="812" height="338" viewBox="0 0 812 338" fill="none" xmlns="http://www.w3.org/2000/svg">
<path d="M0 8.54752C0 3.82685 3.82686 0 8.54753 0H803.452C808.173 0 812 3.82686 812 8.54753V329.452C812 334.173 808.173 338 803.452 338H8.54755C3.82688 338 0 334.173 0 329.452V8.54752Z" fill="#F5F5F5"/>
<g clip-path="url(#clip0_1248_26696)">
<path d="M522.883 107.003H599.811V171.109H522.883V107.003Z" fill="white"/>
<path d="M552.761 157.745C550.504 157.745 548.706 156.099 548.706 153.69C548.706 151.28 550.504 149.635 552.761 149.635C554.406 149.635 555.382 150.458 555.969 151.398L554.794 151.997C554.418 151.351 553.666 150.857 552.761 150.857C551.268 150.857 550.117 152.044 550.117 153.69C550.117 155.335 551.268 156.522 552.761 156.522C553.666 156.522 554.418 156.04 554.794 155.382L555.969 155.982C555.37 156.922 554.406 157.745 552.761 157.745ZM560.502 157.604V156.992C560.079 157.474 559.421 157.745 558.668 157.745C557.74 157.745 556.694 157.122 556.694 155.864C556.694 154.56 557.74 154.019 558.668 154.019C559.432 154.019 560.09 154.266 560.502 154.748V153.901C560.502 153.243 559.961 152.844 559.174 152.844C558.539 152.844 557.987 153.079 557.493 153.561L556.988 152.703C557.646 152.08 558.469 151.786 559.374 151.786C560.631 151.786 561.736 152.315 561.736 153.843V157.604H560.502ZM560.502 156.311V155.453C560.22 155.065 559.691 154.865 559.15 154.865C558.457 154.865 557.94 155.265 557.94 155.888C557.94 156.499 558.457 156.898 559.15 156.898C559.691 156.898 560.22 156.699 560.502 156.311ZM562.842 156.863L563.406 155.97C563.806 156.381 564.593 156.769 565.334 156.769C566.074 156.769 566.45 156.499 566.45 156.076C566.45 155.582 565.851 155.406 565.158 155.253C564.182 155.041 563.018 154.783 563.018 153.514C563.018 152.585 563.818 151.786 565.252 151.786C566.215 151.786 566.944 152.127 567.461 152.585L566.944 153.455C566.603 153.067 565.968 152.773 565.263 152.773C564.617 152.773 564.206 153.008 564.206 153.408C564.206 153.843 564.77 153.995 565.44 154.148C566.427 154.36 567.637 154.642 567.637 155.982C567.637 156.981 566.803 157.745 565.275 157.745C564.311 157.745 563.43 157.439 562.842 156.863ZM572.723 157.604V154.031C572.723 153.149 572.264 152.879 571.571 152.879C570.948 152.879 570.407 153.255 570.113 153.643V157.604H568.879V149.764H570.113V152.703C570.49 152.256 571.23 151.786 572.123 151.786C573.345 151.786 573.957 152.421 573.957 153.584V157.604H572.723Z" fill="#7A7A7A"/>
<path d="M565.321 123.61H557.379V124.892H562.374V126.108H557.379V127.39H562.374V127.581C562.374 128.147 561.916 128.605 561.35 128.605H558.02C557.75 128.605 557.509 128.774 557.417 129.028C557.325 129.282 557.402 129.566 557.61 129.739L562.605 133.902L563.426 132.917L559.791 129.887H561.35C562.624 129.887 563.656 128.855 563.656 127.581V127.39H565.321V126.108H563.656V124.892H565.321V123.61Z" fill="#7A7A7A"/>
<path fill-rule="evenodd" clip-rule="evenodd" d="M561.35 118.069C555.66 118.069 551.047 122.682 551.047 128.372C551.047 134.062 555.66 138.675 561.35 138.675C567.04 138.675 571.653 134.062 571.653 128.372C571.653 122.682 567.04 118.069 561.35 118.069ZM552.421 128.372C552.421 123.441 556.418 119.443 561.35 119.443C566.281 119.443 570.279 123.441 570.279 128.372C570.279 133.304 566.281 137.301 561.35 137.301C556.418 137.301 552.421 133.304 552.421 128.372Z" fill="#7A7A7A"/>
<path d="M445.957 107.003H522.885V171.109H445.957V107.003Z" fill="white"/>
<path d="M459.402 157.604V149.764H460.777V157.604H459.402ZM466.239 157.604V154.054C466.239 153.173 465.793 152.879 465.099 152.879C464.465 152.879 463.924 153.255 463.642 153.643V157.604H462.408V151.927H463.642V152.703C464.018 152.256 464.747 151.786 465.64 151.786C466.862 151.786 467.473 152.444 467.473 153.608V157.604H466.239ZM468.583 156.863L469.147 155.97C469.546 156.381 470.334 156.769 471.074 156.769C471.815 156.769 472.191 156.499 472.191 156.076C472.191 155.582 471.591 155.406 470.898 155.253C469.923 155.041 468.759 154.783 468.759 153.514C468.759 152.585 469.558 151.786 470.992 151.786C471.956 151.786 472.684 152.127 473.202 152.585L472.684 153.455C472.344 153.067 471.709 152.773 471.004 152.773C470.357 152.773 469.946 153.008 469.946 153.408C469.946 153.843 470.51 153.995 471.18 154.148C472.167 154.36 473.378 154.642 473.378 155.982C473.378 156.981 472.543 157.745 471.016 157.745C470.052 157.745 469.17 157.439 468.583 156.863ZM478.451 157.604V156.851C478.04 157.31 477.335 157.745 476.442 157.745C475.219 157.745 474.62 157.11 474.62 155.946V151.927H475.854V155.5C475.854 156.381 476.301 156.652 476.994 156.652C477.617 156.652 478.158 156.299 478.451 155.911V151.927H479.685V157.604H478.451ZM481.288 157.604V151.927H482.522V152.761C482.945 152.221 483.627 151.798 484.368 151.798V153.02C484.262 152.996 484.132 152.985 483.98 152.985C483.463 152.985 482.769 153.337 482.522 153.737V157.604H481.288ZM488.83 157.604V156.992C488.407 157.474 487.749 157.745 486.996 157.745C486.068 157.745 485.022 157.122 485.022 155.864C485.022 154.56 486.068 154.019 486.996 154.019C487.76 154.019 488.418 154.266 488.83 154.748V153.901C488.83 153.243 488.289 152.844 487.502 152.844C486.867 152.844 486.315 153.079 485.821 153.561L485.316 152.703C485.974 152.08 486.797 151.786 487.702 151.786C488.959 151.786 490.064 152.315 490.064 153.843V157.604H488.83ZM488.83 156.311V155.453C488.548 155.065 488.019 154.865 487.478 154.865C486.785 154.865 486.268 155.265 486.268 155.888C486.268 156.499 486.785 156.898 487.478 156.898C488.019 156.898 488.548 156.699 488.83 156.311ZM495.495 157.604V154.054C495.495 153.173 495.049 152.879 494.355 152.879C493.721 152.879 493.18 153.255 492.898 153.643V157.604H491.664V151.927H492.898V152.703C493.274 152.256 494.003 151.786 494.896 151.786C496.118 151.786 496.729 152.444 496.729 153.608V157.604H495.495ZM497.98 154.759C497.98 153.043 499.19 151.786 500.918 151.786C502.023 151.786 502.693 152.256 503.092 152.797L502.281 153.549C501.964 153.102 501.529 152.879 500.977 152.879C499.942 152.879 499.261 153.655 499.261 154.759C499.261 155.864 499.942 156.652 500.977 156.652C501.529 156.652 501.964 156.416 502.281 155.982L503.092 156.734C502.693 157.274 502.023 157.745 500.918 157.745C499.19 157.745 497.98 156.487 497.98 154.759ZM503.822 154.759C503.822 153.114 505.02 151.786 506.701 151.786C508.405 151.786 509.498 153.09 509.498 154.877V155.171H505.114C505.208 156.029 505.855 156.734 506.924 156.734C507.477 156.734 508.135 156.511 508.535 156.111L509.099 156.922C508.535 157.462 507.7 157.745 506.795 157.745C505.091 157.745 503.822 156.558 503.822 154.759ZM506.701 152.797C505.643 152.797 505.161 153.608 505.103 154.301H508.299C508.276 153.631 507.818 152.797 506.701 152.797Z" fill="#7A7A7A"/>
<path d="M483.96 130.718L487.651 127.027L486.68 126.055L483.96 128.775L482.614 127.429L481.643 128.4L483.96 130.718Z" fill="#7A7A7A"/>
<path fill-rule="evenodd" clip-rule="evenodd" d="M485.99 118.94C485.607 118.397 484.983 118.165 484.418 118.165C483.853 118.165 483.229 118.397 482.846 118.94C481.312 121.109 478.924 122.629 476.174 123.012C475.378 123.123 474.664 123.816 474.744 124.735C475.263 130.665 478.727 135.747 483.662 138.515C484.133 138.779 484.707 138.779 485.178 138.515C490.112 135.748 493.576 130.665 494.095 124.736C494.175 123.816 493.461 123.123 492.665 123.012C489.914 122.63 487.525 121.11 485.99 118.94ZM483.967 119.733C484.041 119.629 484.2 119.539 484.418 119.539C484.637 119.539 484.796 119.629 484.869 119.733C486.615 122.202 489.337 123.937 492.476 124.373C492.561 124.385 492.632 124.427 492.676 124.477C492.717 124.524 492.73 124.57 492.726 124.616C492.248 130.078 489.057 134.764 484.506 137.317C484.452 137.347 484.387 137.347 484.334 137.317C479.782 134.764 476.591 130.078 476.113 124.616C476.109 124.57 476.122 124.523 476.163 124.476C476.207 124.426 476.278 124.384 476.363 124.372C479.501 123.935 482.221 122.202 483.967 119.733Z" fill="#7A7A7A"/>
<path d="M369.027 107.003H445.955V171.109H369.027V107.003Z" fill="white"/>
<path d="M379.842 157.604L378.102 154.677H376.739V157.604H375.364V149.764H378.807C380.359 149.764 381.369 150.775 381.369 152.221C381.369 153.619 380.453 154.371 379.512 154.524L381.428 157.604H379.842ZM379.959 152.221C379.959 151.469 379.395 150.975 378.619 150.975H376.739V153.467H378.619C379.395 153.467 379.959 152.973 379.959 152.221ZM383.32 150.987C382.908 150.987 382.556 150.646 382.556 150.223C382.556 149.8 382.908 149.459 383.32 149.459C383.743 149.459 384.084 149.8 384.084 150.223C384.084 150.646 383.743 150.987 383.32 150.987ZM382.708 157.604V151.927H383.942V157.604H382.708ZM387.248 157.745C386.296 157.745 385.79 157.227 385.79 156.287V153.008H384.85V151.927H385.79V150.376H387.024V151.927H388.176V153.008H387.024V155.982C387.024 156.369 387.212 156.652 387.565 156.652C387.8 156.652 388.023 156.558 388.117 156.452L388.411 157.38C388.188 157.592 387.823 157.745 387.248 157.745ZM393.128 157.604V156.851C392.717 157.31 392.011 157.745 391.118 157.745C389.896 157.745 389.296 157.11 389.296 155.946V151.927H390.53V155.5C390.53 156.381 390.977 156.652 391.671 156.652C392.293 156.652 392.834 156.299 393.128 155.911V151.927H394.362V157.604H393.128ZM396.388 152.726L395.836 152.268C396.212 152.044 396.599 151.563 396.682 151.163C396.646 151.175 396.552 151.198 396.482 151.198C396.082 151.198 395.777 150.893 395.777 150.458C395.777 150.011 396.141 149.647 396.576 149.647C397.058 149.647 397.493 150.035 397.493 150.716C397.493 151.527 397.034 152.268 396.388 152.726ZM397.985 156.863L398.549 155.97C398.948 156.381 399.736 156.769 400.476 156.769C401.217 156.769 401.593 156.499 401.593 156.076C401.593 155.582 400.993 155.406 400.3 155.253C399.325 155.041 398.161 154.783 398.161 153.514C398.161 152.585 398.96 151.786 400.394 151.786C401.358 151.786 402.086 152.127 402.604 152.585L402.086 153.455C401.746 153.067 401.111 152.773 400.406 152.773C399.759 152.773 399.348 153.008 399.348 153.408C399.348 153.843 399.912 153.995 400.582 154.148C401.569 154.36 402.78 154.642 402.78 155.982C402.78 156.981 401.945 157.745 400.418 157.745C399.454 157.745 398.572 157.439 397.985 156.863ZM411.988 157.604L410.672 153.443L409.356 157.604H408.063L406.3 151.927H407.581L408.78 156.052L410.131 151.927H411.213L412.564 156.052L413.763 151.927H415.044L413.281 157.604H411.988ZM415.548 154.759C415.548 153.114 416.747 151.786 418.428 151.786C420.132 151.786 421.225 153.09 421.225 154.877V155.171H416.841C416.935 156.029 417.582 156.734 418.651 156.734C419.204 156.734 419.862 156.511 420.261 156.111L420.825 156.922C420.261 157.462 419.427 157.745 418.522 157.745C416.818 157.745 415.548 156.558 415.548 154.759ZM418.428 152.797C417.37 152.797 416.888 153.608 416.83 154.301H420.026C420.003 153.631 419.544 152.797 418.428 152.797ZM425.91 157.604V156.992C425.487 157.474 424.829 157.745 424.077 157.745C423.148 157.745 422.102 157.122 422.102 155.864C422.102 154.56 423.148 154.019 424.077 154.019C424.841 154.019 425.499 154.266 425.91 154.748V153.901C425.91 153.243 425.37 152.844 424.582 152.844C423.948 152.844 423.395 153.079 422.902 153.561L422.396 152.703C423.054 152.08 423.877 151.786 424.782 151.786C426.04 151.786 427.144 152.315 427.144 153.843V157.604H425.91ZM425.91 156.311V155.453C425.628 155.065 425.099 154.865 424.559 154.865C423.865 154.865 423.348 155.265 423.348 155.888C423.348 156.499 423.865 156.898 424.559 156.898C425.099 156.898 425.628 156.699 425.91 156.311ZM428.744 157.604V149.764H429.978V157.604H428.744ZM433.283 157.745C432.331 157.745 431.826 157.227 431.826 156.287V153.008H430.886V151.927H431.826V150.376H433.06V151.927H434.212V153.008H433.06V155.982C433.06 156.369 433.248 156.652 433.601 156.652C433.836 156.652 434.059 156.558 434.153 156.452L434.447 157.38C434.224 157.592 433.859 157.745 433.283 157.745ZM439.175 157.604V154.031C439.175 153.149 438.717 152.879 438.024 152.879C437.401 152.879 436.86 153.255 436.566 153.643V157.604H435.332V149.764H436.566V152.703C436.942 152.256 437.683 151.786 438.576 151.786C439.798 151.786 440.41 152.421 440.41 153.584V157.604H439.175Z" fill="#7A7A7A"/>
<path fill-rule="evenodd" clip-rule="evenodd" d="M411.642 124.223C411.91 124.491 411.91 124.926 411.642 125.194L404.315 132.521C404.047 132.789 403.612 132.789 403.344 132.521C403.076 132.253 403.076 131.818 403.344 131.549L410.671 124.223C410.939 123.955 411.374 123.955 411.642 124.223Z" fill="#7A7A7A"/>
<circle cx="404.948" cy="125.801" r="1.37371" fill="#7A7A7A"/>
<path fill-rule="evenodd" clip-rule="evenodd" d="M407.493 119.476C402.581 119.476 398.599 123.458 398.599 128.37C398.599 133.283 402.581 137.265 407.493 137.265C412.406 137.265 416.388 133.283 416.388 128.37C416.388 123.458 412.406 119.476 407.493 119.476ZM397.156 128.37C397.156 122.661 401.784 118.033 407.493 118.033C413.202 118.033 417.831 122.661 417.831 128.37C417.831 134.079 413.202 138.708 407.493 138.708C401.784 138.708 397.156 134.079 397.156 128.37Z" fill="#7A7A7A"/>
<circle cx="410.022" cy="131.211" r="1.37371" fill="#7A7A7A"/>
<path d="M292.102 107.003H369.029V171.109H292.102V107.003Z" fill="white"/>
<path d="M313.925 156.499L314.689 155.441C315.23 156.017 316.076 156.522 317.169 156.522C318.297 156.522 318.744 155.97 318.744 155.453C318.744 154.748 317.909 154.536 316.957 154.289C315.676 153.972 314.172 153.596 314.172 151.939C314.172 150.646 315.312 149.647 317.028 149.647C318.25 149.647 319.237 150.035 319.966 150.74L319.178 151.762C318.567 151.151 317.733 150.869 316.91 150.869C316.099 150.869 315.582 151.257 315.582 151.845C315.582 152.456 316.381 152.656 317.31 152.891C318.603 153.22 320.142 153.619 320.142 155.323C320.142 156.628 319.225 157.745 317.11 157.745C315.664 157.745 314.618 157.239 313.925 156.499ZM322.905 157.745C321.953 157.745 321.448 157.227 321.448 156.287V153.008H320.508V151.927H321.448V150.376H322.682V151.927H323.834V153.008H322.682V155.982C322.682 156.369 322.87 156.652 323.223 156.652C323.458 156.652 323.681 156.558 323.775 156.452L324.069 157.38C323.846 157.592 323.481 157.745 322.905 157.745ZM327.516 157.745C325.718 157.745 324.602 156.393 324.602 154.759C324.602 153.137 325.718 151.786 327.516 151.786C329.338 151.786 330.443 153.137 330.443 154.759C330.443 156.393 329.338 157.745 327.516 157.745ZM327.516 156.652C328.574 156.652 329.162 155.77 329.162 154.759C329.162 153.76 328.574 152.879 327.516 152.879C326.47 152.879 325.883 153.76 325.883 154.759C325.883 155.77 326.47 156.652 327.516 156.652ZM331.339 154.759C331.339 153.043 332.549 151.786 334.277 151.786C335.382 151.786 336.052 152.256 336.451 152.797L335.64 153.549C335.323 153.102 334.888 152.879 334.336 152.879C333.302 152.879 332.62 153.655 332.62 154.759C332.62 155.864 333.302 156.652 334.336 156.652C334.888 156.652 335.323 156.416 335.64 155.982L336.451 156.734C336.052 157.274 335.382 157.745 334.277 157.745C332.549 157.745 331.339 156.487 331.339 154.759ZM341.294 157.604L339.555 155.265L338.768 156.076V157.604H337.534V149.764H338.768V154.665L341.271 151.927H342.799L340.436 154.501L342.846 157.604H341.294ZM343.111 156.863L343.676 155.97C344.075 156.381 344.863 156.769 345.603 156.769C346.343 156.769 346.72 156.499 346.72 156.076C346.72 155.582 346.12 155.406 345.427 155.253C344.451 155.041 343.288 154.783 343.288 153.514C343.288 152.585 344.087 151.786 345.521 151.786C346.484 151.786 347.213 152.127 347.73 152.585L347.213 153.455C346.872 153.067 346.238 152.773 345.533 152.773C344.886 152.773 344.475 153.008 344.475 153.408C344.475 153.843 345.039 153.995 345.709 154.148C346.696 154.36 347.907 154.642 347.907 155.982C347.907 156.981 347.072 157.745 345.544 157.745C344.581 157.745 343.699 157.439 343.111 156.863Z" fill="#7A7A7A"/>
<path fill-rule="evenodd" clip-rule="evenodd" d="M321.025 120.637C323.895 119.187 327.488 119.66 329.887 122.059C330.821 122.993 331.463 124.107 331.813 125.29C332.244 124.652 332.792 124.077 333.454 123.6C335.645 122.019 338.466 121.95 340.676 123.187C340.853 123.286 340.977 123.458 341.015 123.656C341.494 126.145 340.538 128.803 338.345 130.385C336.41 131.781 333.984 131.998 331.921 131.178V138.417H330.547V130.914C327.82 131.945 324.622 131.364 322.425 129.167C320.217 126.959 319.641 123.739 320.694 121.004C320.755 120.845 320.873 120.714 321.025 120.637ZM321.885 121.748C321.148 123.938 321.653 126.453 323.396 128.196C325.297 130.096 328.113 130.525 330.427 129.478C331.164 127.288 330.659 124.773 328.916 123.03C327.015 121.13 324.198 120.701 321.885 121.748ZM339.718 124.236C338.005 123.409 335.906 123.525 334.257 124.714C332.607 125.905 331.835 127.861 332.081 129.749C333.794 130.576 335.892 130.46 337.541 129.271C339.191 128.08 339.963 126.124 339.718 124.236Z" fill="#7A7A7A"/>
<path d="M215.172 107.004H292.1V171.11H215.172V107.004Z" fill="white"/>
<path fill-rule="evenodd" clip-rule="evenodd" d="M253.461 122.791C252.652 122.164 253.008 120.873 254.024 120.749L261.917 119.791C262.526 119.717 263.085 120.136 263.185 120.741L264.539 128.96C264.708 129.985 263.532 130.687 262.71 130.052L260.605 128.427L255.424 134.958C255.007 135.483 254.231 135.54 253.743 135.08L250.201 131.748L244.848 136.293C243.893 137.104 242.516 136.012 243.088 134.897L248.296 124.752C248.654 124.055 249.59 123.915 250.135 124.477L253.472 127.91L255.645 124.483L253.461 122.791Z" fill="#00B852"/>
<path d="M238.714 157.604V149.765H240.089V157.604H238.714ZM245.552 157.604V154.055C245.552 153.174 245.105 152.88 244.412 152.88C243.777 152.88 243.236 153.256 242.954 153.644V157.604H241.72V151.928H242.954V152.704C243.33 152.257 244.059 151.787 244.952 151.787C246.175 151.787 246.786 152.445 246.786 153.609V157.604H245.552ZM249.881 157.604L247.566 151.928H248.882L250.539 156.182L252.197 151.928H253.525L251.209 157.604H249.881ZM253.947 154.76C253.947 153.115 255.146 151.787 256.826 151.787C258.531 151.787 259.624 153.091 259.624 154.878V155.172H255.24C255.334 156.03 255.98 156.735 257.05 156.735C257.602 156.735 258.26 156.511 258.66 156.112L259.224 156.923C258.66 157.463 257.825 157.746 256.92 157.746C255.216 157.746 253.947 156.558 253.947 154.76ZM256.826 152.798C255.769 152.798 255.287 153.609 255.228 154.302H258.425C258.401 153.632 257.943 152.798 256.826 152.798ZM260.348 156.864L260.912 155.971C261.312 156.382 262.099 156.77 262.84 156.77C263.58 156.77 263.956 156.5 263.956 156.077C263.956 155.583 263.357 155.407 262.663 155.254C261.688 155.042 260.524 154.784 260.524 153.514C260.524 152.586 261.324 151.787 262.757 151.787C263.721 151.787 264.45 152.128 264.967 152.586L264.45 153.456C264.109 153.068 263.474 152.774 262.769 152.774C262.123 152.774 261.711 153.009 261.711 153.409C261.711 153.844 262.275 153.996 262.945 154.149C263.933 154.361 265.143 154.643 265.143 155.983C265.143 156.982 264.309 157.746 262.781 157.746C261.817 157.746 260.936 157.44 260.348 156.864ZM268.089 157.746C267.137 157.746 266.632 157.228 266.632 156.288V153.009H265.692V151.928H266.632V150.376H267.866V151.928H269.018V153.009H267.866V155.983C267.866 156.37 268.054 156.653 268.407 156.653C268.642 156.653 268.865 156.558 268.959 156.453L269.253 157.381C269.03 157.593 268.665 157.746 268.089 157.746Z" fill="#00B852"/>
<path d="M215.176 107.536H599.815" stroke="#DDDDDD" stroke-width="1.06844"/>
<path d="M215.176 107.002H292.104C292.104 108.772 290.668 110.207 288.898 110.207H218.381C216.611 110.207 215.176 108.772 215.176 107.002Z" fill="#00B852"/>
</g>
<path d="M150.619 217.695V217.644L150.927 216.875L154.325 208.451H155.235L158.62 216.875L158.953 217.644V217.695H157.927L157.902 217.644L157.594 216.875L156.927 215.182H152.594L151.927 216.875L151.619 217.644L151.594 217.695H150.619ZM152.927 214.336H156.594L154.773 209.695L152.927 214.336ZM160.7 216.875V217.644V217.695H159.841V208.323H160.7V216.875ZM163.231 216.875V217.644V217.695H162.372V208.323H163.231V216.875ZM168.429 211.041V217.695H167.57V211.041H168.429ZM167.993 209.785C167.634 209.785 167.365 209.503 167.365 209.144C167.365 208.797 167.634 208.515 167.993 208.515C168.352 208.515 168.634 208.797 168.634 209.144C168.634 209.503 168.352 209.785 167.993 209.785ZM170.101 217.695V211.041H170.96V212.169C171.383 211.528 172.178 210.913 173.191 210.913C174.665 210.913 175.652 211.798 175.652 213.234V217.695H174.78V213.413C174.78 212.349 174.127 211.708 173.075 211.708C172.05 211.708 171.229 212.541 170.96 213.541V217.695H170.101ZM178.82 217.695L176.679 211.887L176.384 211.092V211.041H177.256L177.281 211.092L177.563 211.887L179.294 216.721L181 211.887L181.269 211.092L181.294 211.041H182.192V211.092L181.897 211.887L179.782 217.695H178.82ZM183.424 214.4C183.45 216.041 184.373 217.041 185.732 217.041C186.809 217.041 187.45 216.58 187.732 215.567L188.617 215.875C188.245 217.067 187.219 217.824 185.719 217.824C183.86 217.824 182.54 216.4 182.54 214.362C182.54 212.336 183.822 210.913 185.681 210.913C188.22 210.913 188.758 213.144 188.604 214.4H183.424ZM185.681 211.656C184.463 211.656 183.681 212.477 183.476 213.695H187.707C187.63 212.464 186.873 211.656 185.681 211.656ZM192.117 217.824C190.451 217.824 189.592 216.913 189.412 215.862L190.207 215.464H190.258C190.399 216.4 191.015 217.041 192.117 217.041C192.989 217.041 193.579 216.58 193.579 215.849C193.579 215.221 193.143 214.9 192.502 214.746L191.22 214.439C190.412 214.234 189.63 213.849 189.63 212.733C189.63 211.708 190.566 210.913 191.899 210.913C193.246 210.913 194.079 211.567 194.336 212.631L193.515 212.951H193.464C193.323 212.131 192.733 211.669 191.899 211.669C191.079 211.669 190.553 212.157 190.553 212.708C190.553 213.246 190.964 213.528 191.502 213.657L192.746 213.964C193.669 214.208 194.502 214.58 194.502 215.849C194.502 217.029 193.528 217.824 192.117 217.824ZM197.93 217.824C196.904 217.824 196.174 217.221 196.174 215.939V211.798H194.917V211.041C196.174 211.041 196.199 210.99 196.199 209.503H197.033V211.041H198.905V211.798H197.033V215.939C197.033 216.708 197.481 217.029 197.981 217.029C198.251 217.029 198.507 217.003 198.789 216.811V217.606C198.61 217.734 198.251 217.824 197.93 217.824ZM199.956 217.695V211.041H200.815V212.169C201.238 211.541 202.033 210.913 203.046 210.913C204.187 210.913 204.867 211.464 205.136 212.323C205.662 211.464 206.469 210.913 207.457 210.913C208.944 210.913 209.713 211.862 209.713 213.182V217.695H208.841V213.375C208.841 212.105 208.149 211.708 207.354 211.708C206.328 211.708 205.521 212.528 205.264 213.541V217.695H204.392V213.375C204.392 212.105 203.713 211.708 202.944 211.708C201.892 211.708 201.072 212.541 200.815 213.541V217.695H199.956ZM211.801 214.4C211.827 216.041 212.75 217.041 214.109 217.041C215.186 217.041 215.827 216.58 216.109 215.567L216.994 215.875C216.622 217.067 215.596 217.824 214.096 217.824C212.237 217.824 210.917 216.4 210.917 214.362C210.917 212.336 212.199 210.913 214.058 210.913C216.596 210.913 217.135 213.144 216.981 214.4H211.801ZM214.058 211.656C212.84 211.656 212.058 212.477 211.853 213.695H216.084C216.007 212.464 215.25 211.656 214.058 211.656ZM218.289 217.695V211.041H219.148V212.169C219.571 211.528 220.366 210.913 221.379 210.913C222.853 210.913 223.841 211.798 223.841 213.234V217.695H222.969V213.413C222.969 212.349 222.315 211.708 221.264 211.708C220.238 211.708 219.417 212.541 219.148 213.541V217.695H218.289ZM227.597 217.824C226.571 217.824 225.84 217.221 225.84 215.939V211.798H224.584V211.041C225.84 211.041 225.866 210.99 225.866 209.503H226.699V211.041H228.571V211.798H226.699V215.939C226.699 216.708 227.148 217.029 227.648 217.029C227.917 217.029 228.174 217.003 228.456 216.811V217.606C228.276 217.734 227.917 217.824 227.597 217.824ZM232.291 220.093V211.041H233.15V212.169C233.56 211.413 234.509 210.913 235.496 210.913C237.24 210.913 238.573 212.374 238.573 214.375C238.573 216.375 237.24 217.824 235.445 217.824C234.509 217.824 233.56 217.311 233.15 216.567V220.093H232.291ZM235.368 217.029C236.714 217.029 237.663 215.977 237.663 214.375C237.663 212.759 236.714 211.708 235.419 211.708C234.137 211.708 233.24 212.644 233.15 213.913V214.823C233.24 216.118 234.137 217.029 235.368 217.029ZM239.855 217.695V211.041H240.714V212.221C241.086 211.49 241.752 210.913 242.663 210.913C242.791 210.913 242.919 210.913 243.034 210.938V211.785C241.624 211.541 240.906 212.772 240.714 213.618V217.695H239.855ZM246.383 217.824C244.511 217.824 243.152 216.362 243.152 214.362C243.152 212.374 244.511 210.913 246.383 210.913C248.242 210.913 249.614 212.374 249.614 214.362C249.614 216.362 248.242 217.824 246.383 217.824ZM246.383 217.029C247.729 217.029 248.704 215.9 248.704 214.362C248.704 212.823 247.729 211.708 246.383 211.708C245.037 211.708 244.075 212.823 244.075 214.362C244.075 215.9 245.037 217.029 246.383 217.029ZM253.644 217.824C251.849 217.824 250.516 216.362 250.516 214.362C250.516 212.362 251.849 210.913 253.644 210.913C254.58 210.913 255.529 211.413 255.939 212.157V208.323H256.798V217.695H255.939V216.554C255.529 217.311 254.58 217.824 253.644 217.824ZM253.721 217.029C254.952 217.029 255.849 216.093 255.939 214.811V213.913C255.849 212.618 254.952 211.708 253.721 211.708C252.375 211.708 251.426 212.759 251.426 214.362C251.426 215.964 252.375 217.029 253.721 217.029ZM260.862 217.824C259.387 217.824 258.4 216.926 258.4 215.503V211.041H259.259V215.323C259.259 216.426 259.951 217.029 260.977 217.029C262.003 217.029 262.823 216.195 263.093 215.195V211.041H263.952V217.695H263.093V216.567C262.67 217.208 261.875 217.824 260.862 217.824ZM268.448 217.824C266.525 217.824 265.23 216.439 265.23 214.362C265.23 212.298 266.525 210.913 268.448 210.913C269.859 210.913 270.961 211.759 271.205 213.028L270.384 213.246H270.333C270.154 212.336 269.41 211.708 268.435 211.708C267.064 211.708 266.153 212.772 266.153 214.362C266.153 215.964 267.051 217.029 268.435 217.029C269.436 217.029 270.179 216.464 270.371 215.375L271.231 215.58C270.936 216.99 269.859 217.824 268.448 217.824ZM274.634 217.824C273.609 217.824 272.878 217.221 272.878 215.939V211.798H271.621V211.041C272.878 211.041 272.903 210.99 272.903 209.503H273.737V211.041H275.609V211.798H273.737V215.939C273.737 216.708 274.186 217.029 274.686 217.029C274.955 217.029 275.211 217.003 275.493 216.811V217.606C275.314 217.734 274.955 217.824 274.634 217.824ZM278.866 217.824C277.199 217.824 276.34 216.913 276.161 215.862L276.955 215.464H277.007C277.148 216.4 277.763 217.041 278.866 217.041C279.738 217.041 280.327 216.58 280.327 215.849C280.327 215.221 279.891 214.9 279.25 214.746L277.968 214.439C277.161 214.234 276.378 213.849 276.378 212.733C276.378 211.708 277.314 210.913 278.648 210.913C279.994 210.913 280.827 211.567 281.084 212.631L280.263 212.951H280.212C280.071 212.131 279.481 211.669 278.648 211.669C277.827 211.669 277.302 212.157 277.302 212.708C277.302 213.246 277.712 213.528 278.25 213.657L279.494 213.964C280.417 214.208 281.251 214.58 281.251 215.849C281.251 217.029 280.276 217.824 278.866 217.824ZM285.999 211.041V217.695H285.14V211.041H285.999ZM285.563 209.785C285.204 209.785 284.934 209.503 284.934 209.144C284.934 208.797 285.204 208.515 285.563 208.515C285.922 208.515 286.204 208.797 286.204 209.144C286.204 209.503 285.922 209.785 285.563 209.785ZM287.67 217.695V211.041H288.529V212.169C288.952 211.528 289.747 210.913 290.76 210.913C292.234 210.913 293.222 211.798 293.222 213.234V217.695H292.35V213.413C292.35 212.349 291.696 211.708 290.644 211.708C289.619 211.708 288.798 212.541 288.529 213.541V217.695H287.67ZM297.654 217.824C295.731 217.824 294.436 216.439 294.436 214.362C294.436 212.298 295.731 210.913 297.654 210.913C299.064 210.913 300.167 211.759 300.411 213.028L299.59 213.246H299.539C299.359 212.336 298.616 211.708 297.641 211.708C296.269 211.708 295.359 212.772 295.359 214.362C295.359 215.964 296.256 217.029 297.641 217.029C298.641 217.029 299.385 216.464 299.577 215.375L300.436 215.58C300.141 216.99 299.064 217.824 297.654 217.824ZM302.492 216.875V217.644V217.695H301.633V208.323H302.492V216.875ZM306.561 217.824C305.087 217.824 304.099 216.926 304.099 215.503V211.041H304.958V215.323C304.958 216.426 305.651 217.029 306.676 217.029C307.702 217.029 308.523 216.195 308.792 215.195V211.041H309.651V217.695H308.792V216.567C308.369 217.208 307.574 217.824 306.561 217.824ZM314.058 217.824C312.263 217.824 310.929 216.362 310.929 214.362C310.929 212.362 312.263 210.913 314.058 210.913C314.994 210.913 315.942 211.413 316.353 212.157V208.323H317.212V217.695H316.353V216.554C315.942 217.311 314.994 217.824 314.058 217.824ZM314.135 217.029C315.366 217.029 316.263 216.093 316.353 214.811V213.913C316.263 212.618 315.366 211.708 314.135 211.708C312.788 211.708 311.84 212.759 311.84 214.362C311.84 215.964 312.788 217.029 314.135 217.029ZM319.737 211.041V217.695H318.878V211.041H319.737ZM319.301 209.785C318.942 209.785 318.673 209.503 318.673 209.144C318.673 208.797 318.942 208.515 319.301 208.515C319.66 208.515 319.942 208.797 319.942 209.144C319.942 209.503 319.66 209.785 319.301 209.785ZM321.408 217.695V211.041H322.267V212.169C322.69 211.528 323.485 210.913 324.498 210.913C325.973 210.913 326.96 211.798 326.96 213.234V217.695H326.088V213.413C326.088 212.349 325.434 211.708 324.383 211.708C323.357 211.708 322.536 212.541 322.267 213.541V217.695H321.408ZM331.046 220.221C329.328 220.221 328.072 219.631 328.072 218.247C328.072 217.695 328.379 217.144 328.79 216.823C328.456 216.631 328.264 216.323 328.264 215.875C328.264 215.285 328.751 214.823 329.187 214.554C328.828 214.182 328.623 213.682 328.623 213.092C328.623 211.798 329.584 210.913 331.02 210.913C331.456 210.913 331.841 210.99 332.174 211.131L334.085 211.015V211.798H333.033C333.303 212.144 333.444 212.592 333.444 213.092C333.444 214.375 332.469 215.259 331.02 215.259C330.533 215.259 330.11 215.157 329.751 214.977C329.392 215.182 329.148 215.464 329.148 215.798C329.148 216.221 329.482 216.362 330.136 216.362H332.11C333.315 216.362 334.239 216.939 334.239 218.067C334.239 219.401 333.072 220.221 331.046 220.221ZM329.623 217.08C329.11 217.349 328.969 217.836 328.969 218.208C328.969 219.106 329.892 219.452 331.046 219.452C332.559 219.452 333.341 218.926 333.341 218.093C333.341 217.388 332.892 217.106 332.059 217.106H330.161C329.969 217.106 329.79 217.093 329.623 217.08ZM331.02 214.503C331.969 214.503 332.559 213.926 332.559 213.092C332.559 212.246 331.969 211.669 331.02 211.669C330.084 211.669 329.507 212.246 329.507 213.092C329.507 213.926 330.084 214.503 331.02 214.503ZM337.941 217.695V208.451H339.146L341.941 215.221C342.3 216.054 342.454 216.682 342.454 216.682C342.454 216.682 342.608 216.054 342.954 215.208L345.71 208.451H346.903V217.695H345.954V211.451C345.954 210.541 346.005 209.887 346.005 209.887C346.005 209.887 345.8 210.503 345.454 211.349L342.838 217.695H342.044L339.415 211.349C339.056 210.503 338.838 209.887 338.838 209.887C338.838 209.887 338.889 210.541 338.889 211.451V217.695H337.941ZM348.697 217.695V208.451H354.557V209.285H349.646V212.362H353.582V213.195H349.646V217.695H348.697ZM354.174 216.49H355.405V217.695L354.546 219.362H354.123L354.764 217.695H354.174V216.49ZM194.503 236.824C192.246 236.824 190.092 235.259 190.092 232.067C190.092 228.887 192.246 227.323 194.503 227.323C196.464 227.323 197.99 228.413 198.362 229.913L197.477 230.259H197.439C197.17 229.028 196.041 228.156 194.503 228.156C192.515 228.156 191.079 229.554 191.079 232.067C191.079 234.311 192.323 235.99 194.503 235.99C196.028 235.99 196.939 235.426 197.426 234.721V232.849H194.759V232.016H198.375V235.029C197.349 236.452 195.9 236.824 194.503 236.824ZM200.28 233.4C200.306 235.041 201.229 236.041 202.588 236.041C203.665 236.041 204.306 235.58 204.588 234.567L205.473 234.875C205.101 236.067 204.075 236.824 202.575 236.824C200.716 236.824 199.396 235.4 199.396 233.362C199.396 231.336 200.678 229.913 202.537 229.913C205.076 229.913 205.614 232.144 205.46 233.4H200.28ZM202.537 230.656C201.319 230.656 200.537 231.477 200.332 232.695H204.563C204.486 231.464 203.729 230.656 202.537 230.656ZM206.768 236.695V230.041H207.627V231.169C208.05 230.528 208.845 229.913 209.858 229.913C211.333 229.913 212.32 230.798 212.32 232.234V236.695H211.448V232.413C211.448 231.349 210.794 230.708 209.743 230.708C208.717 230.708 207.896 231.541 207.627 232.541V236.695H206.768ZM214.778 230.041V236.695H213.919V230.041H214.778ZM214.342 228.785C213.983 228.785 213.714 228.503 213.714 228.144C213.714 227.797 213.983 227.515 214.342 227.515C214.701 227.515 214.983 227.797 214.983 228.144C214.983 228.503 214.701 228.785 214.342 228.785ZM218.847 236.824C217.372 236.824 216.385 235.926 216.385 234.503V230.041H217.244V234.323C217.244 235.426 217.936 236.029 218.962 236.029C219.988 236.029 220.808 235.195 221.078 234.195V230.041H221.937V236.695H221.078V235.567C220.655 236.208 219.86 236.824 218.847 236.824ZM225.805 236.824C224.138 236.824 223.279 235.913 223.1 234.862L223.895 234.464H223.946C224.087 235.4 224.702 236.041 225.805 236.041C226.677 236.041 227.267 235.58 227.267 234.849C227.267 234.221 226.831 233.9 226.19 233.746L224.907 233.439C224.1 233.234 223.318 232.849 223.318 231.733C223.318 230.708 224.254 229.913 225.587 229.913C226.933 229.913 227.767 230.567 228.023 231.631L227.202 231.951H227.151C227.01 231.131 226.42 230.669 225.587 230.669C224.766 230.669 224.241 231.157 224.241 231.708C224.241 232.246 224.651 232.528 225.19 232.657L226.433 232.964C227.356 233.208 228.19 233.58 228.19 234.849C228.19 236.029 227.215 236.824 225.805 236.824ZM234.348 236.824C232.861 236.824 231.707 235.926 231.707 234.323C231.707 232.977 232.643 232.169 233.617 231.695L233.874 231.567C233.053 230.618 232.758 230.144 232.758 229.387C232.758 228.208 233.669 227.323 234.989 227.323C236.297 227.323 237.194 228.208 237.194 229.426C237.194 230.554 236.464 231.182 235.605 231.605L235.233 231.798L236.989 233.823C237.707 232.734 238.387 232.003 239.336 231.977V232.913C238.669 232.913 238.207 233.477 237.553 234.464L239.451 236.644V236.695H238.348L237.053 235.221C236.617 235.785 235.848 236.824 234.348 236.824ZM236.489 234.58L234.425 232.208L234.002 232.426C233.284 232.785 232.668 233.452 232.668 234.323C232.668 235.298 233.476 236.003 234.348 236.003C235.566 236.003 236.143 235.054 236.489 234.58ZM234.681 231.169L235.246 230.9C235.861 230.58 236.297 230.118 236.297 229.438C236.297 228.695 235.733 228.131 234.989 228.131C234.233 228.131 233.669 228.708 233.669 229.387C233.669 229.913 233.989 230.362 234.681 231.169ZM243.326 236.695V227.451H249.186V228.285H244.275V231.362H248.211V232.195H244.275V236.695H243.326ZM250.984 230.041V236.695H250.125V230.041H250.984ZM250.548 228.785C250.189 228.785 249.92 228.503 249.92 228.144C249.92 227.797 250.189 227.515 250.548 227.515C250.907 227.515 251.189 227.797 251.189 228.144C251.189 228.503 250.907 228.785 250.548 228.785ZM256.502 236.695L256.463 236.644L255.95 235.875L254.668 233.99L253.373 235.875L252.86 236.644L252.822 236.695H251.847V236.644L252.373 235.875L254.155 233.234L252.565 230.887L252.04 230.092V230.041H253.001L253.04 230.092L253.565 230.887L254.655 232.503L255.758 230.887L256.284 230.092L256.322 230.041H257.284V230.092L256.758 230.887L255.181 233.246L256.963 235.875L257.489 236.644V236.695H256.502ZM258.528 233.4C258.553 235.041 259.477 236.041 260.836 236.041C261.913 236.041 262.554 235.58 262.836 234.567L263.72 234.875C263.349 236.067 262.323 236.824 260.823 236.824C258.964 236.824 257.643 235.4 257.643 233.362C257.643 231.336 258.925 229.913 260.784 229.913C263.323 229.913 263.861 232.144 263.708 233.4H258.528ZM260.784 230.656C259.566 230.656 258.784 231.477 258.579 232.695H262.81C262.733 231.464 261.977 230.656 260.784 230.656ZM267.759 236.824C265.964 236.824 264.631 235.362 264.631 233.362C264.631 231.362 265.964 229.913 267.759 229.913C268.695 229.913 269.644 230.413 270.054 231.157V227.323H270.913V236.695H270.054V235.554C269.644 236.311 268.695 236.824 267.759 236.824ZM267.836 236.029C269.067 236.029 269.965 235.093 270.054 233.811V232.913C269.965 231.618 269.067 230.708 267.836 230.708C266.49 230.708 265.541 231.759 265.541 233.362C265.541 234.964 266.49 236.029 267.836 236.029ZM276.107 230.041V236.695H275.247V230.041H276.107ZM275.671 228.785C275.312 228.785 275.042 228.503 275.042 228.144C275.042 227.797 275.312 227.515 275.671 227.515C276.03 227.515 276.312 227.797 276.312 228.144C276.312 228.503 276.03 228.785 275.671 228.785ZM277.778 236.695V230.041H278.637V231.169C279.06 230.528 279.855 229.913 280.868 229.913C282.342 229.913 283.33 230.798 283.33 232.234V236.695H282.458V232.413C282.458 231.349 281.804 230.708 280.752 230.708C279.727 230.708 278.906 231.541 278.637 232.541V236.695H277.778ZM287.762 236.824C285.839 236.824 284.544 235.439 284.544 233.362C284.544 231.298 285.839 229.913 287.762 229.913C289.172 229.913 290.275 230.759 290.519 232.028L289.698 232.246H289.647C289.467 231.336 288.724 230.708 287.749 230.708C286.377 230.708 285.467 231.772 285.467 233.362C285.467 234.964 286.364 236.029 287.749 236.029C288.749 236.029 289.493 235.464 289.685 234.375L290.544 234.58C290.249 235.99 289.172 236.824 287.762 236.824ZM294.574 236.824C292.703 236.824 291.344 235.362 291.344 233.362C291.344 231.374 292.703 229.913 294.574 229.913C296.434 229.913 297.805 231.374 297.805 233.362C297.805 235.362 296.434 236.824 294.574 236.824ZM294.574 236.029C295.921 236.029 296.895 234.9 296.895 233.362C296.895 231.823 295.921 230.708 294.574 230.708C293.228 230.708 292.267 231.823 292.267 233.362C292.267 234.9 293.228 236.029 294.574 236.029ZM299.092 236.695V230.041H299.951V231.169C300.374 230.541 301.169 229.913 302.182 229.913C303.323 229.913 304.002 230.464 304.272 231.323C304.797 230.464 305.605 229.913 306.592 229.913C308.08 229.913 308.849 230.862 308.849 232.182V236.695H307.977V232.375C307.977 231.105 307.285 230.708 306.49 230.708C305.464 230.708 304.656 231.528 304.4 232.541V236.695H303.528V232.375C303.528 231.105 302.849 230.708 302.079 230.708C301.028 230.708 300.207 231.541 299.951 232.541V236.695H299.092ZM310.937 233.4C310.963 235.041 311.886 236.041 313.245 236.041C314.322 236.041 314.963 235.58 315.245 234.567L316.13 234.875C315.758 236.067 314.732 236.824 313.232 236.824C311.373 236.824 310.052 235.4 310.052 233.362C310.052 231.336 311.334 229.913 313.194 229.913C315.732 229.913 316.271 232.144 316.117 233.4H310.937ZM313.194 230.656C311.975 230.656 311.193 231.477 310.988 232.695H315.219C315.142 231.464 314.386 230.656 313.194 230.656Z" fill="black"/>
<path d="M407.227 165.23C407.227 164.788 406.868 164.429 406.426 164.429C405.983 164.429 405.624 164.788 405.624 165.23L406.426 165.23L407.227 165.23ZM405.859 198.919C406.172 199.232 406.679 199.232 406.992 198.919L412.092 193.819C412.405 193.506 412.405 192.999 412.092 192.686C411.779 192.373 411.272 192.373 410.959 192.686L406.426 197.219L401.893 192.686C401.58 192.373 401.072 192.373 400.76 192.686C400.447 192.999 400.447 193.506 400.76 193.819L405.859 198.919ZM406.426 165.23L405.624 165.23L405.624 198.352L406.426 198.352L407.227 198.352L407.227 165.23L406.426 165.23Z" fill="#CCB185"/>
<path d="M362.713 223V222.949L363.02 222.179L366.418 213.756H367.328L370.713 222.179L371.046 222.949V223H370.021L369.995 222.949L369.687 222.179L369.021 220.487H364.687L364.02 222.179L363.713 222.949L363.687 223H362.713ZM365.02 219.641H368.687L366.867 215L365.02 219.641ZM372.794 222.179V222.949V223H371.935V213.628H372.794V222.179ZM375.324 222.179V222.949V223H374.465V213.628H375.324V222.179ZM380.522 216.346V223H379.663V216.346H380.522ZM380.087 215.089C379.728 215.089 379.458 214.807 379.458 214.448C379.458 214.102 379.728 213.82 380.087 213.82C380.446 213.82 380.728 214.102 380.728 214.448C380.728 214.807 380.446 215.089 380.087 215.089ZM382.194 223V216.346H383.053V217.474C383.476 216.833 384.271 216.218 385.284 216.218C386.758 216.218 387.745 217.102 387.745 218.538V223H386.874V218.718C386.874 217.654 386.22 217.012 385.168 217.012C384.143 217.012 383.322 217.846 383.053 218.846V223H382.194ZM390.913 223L388.772 217.192L388.477 216.397V216.346H389.349L389.375 216.397L389.657 217.192L391.388 222.026L393.093 217.192L393.362 216.397L393.388 216.346H394.285V216.397L393.99 217.192L391.875 223H390.913ZM395.518 219.705C395.543 221.346 396.466 222.346 397.825 222.346C398.902 222.346 399.543 221.885 399.826 220.872L400.71 221.179C400.338 222.372 399.313 223.128 397.813 223.128C395.954 223.128 394.633 221.705 394.633 219.666C394.633 217.641 395.915 216.218 397.774 216.218C400.313 216.218 400.851 218.448 400.697 219.705H395.518ZM397.774 216.961C396.556 216.961 395.774 217.782 395.569 219H399.8C399.723 217.769 398.967 216.961 397.774 216.961ZM404.211 223.128C402.544 223.128 401.685 222.218 401.505 221.167L402.3 220.769H402.352C402.493 221.705 403.108 222.346 404.211 222.346C405.082 222.346 405.672 221.885 405.672 221.154C405.672 220.525 405.236 220.205 404.595 220.051L403.313 219.743C402.505 219.538 401.723 219.154 401.723 218.038C401.723 217.012 402.659 216.218 403.993 216.218C405.339 216.218 406.172 216.871 406.429 217.936L405.608 218.256H405.557C405.416 217.436 404.826 216.974 403.993 216.974C403.172 216.974 402.646 217.461 402.646 218.013C402.646 218.551 403.057 218.833 403.595 218.961L404.839 219.269C405.762 219.513 406.595 219.884 406.595 221.154C406.595 222.333 405.621 223.128 404.211 223.128ZM410.023 223.128C408.998 223.128 408.267 222.526 408.267 221.243V217.102H407.01V216.346C408.267 216.346 408.292 216.294 408.292 214.807H409.126V216.346H410.998V217.102H409.126V221.243C409.126 222.013 409.575 222.333 410.075 222.333C410.344 222.333 410.6 222.308 410.882 222.115V222.91C410.703 223.038 410.344 223.128 410.023 223.128ZM412.049 223V216.346H412.908V217.474C413.332 216.846 414.126 216.218 415.139 216.218C416.28 216.218 416.96 216.769 417.229 217.628C417.755 216.769 418.563 216.218 419.55 216.218C421.037 216.218 421.806 217.166 421.806 218.487V223H420.935V218.679C420.935 217.41 420.242 217.012 419.447 217.012C418.422 217.012 417.614 217.833 417.357 218.846V223H416.486V218.679C416.486 217.41 415.806 217.012 415.037 217.012C413.985 217.012 413.165 217.846 412.908 218.846V223H412.049ZM423.895 219.705C423.92 221.346 424.843 222.346 426.202 222.346C427.279 222.346 427.92 221.885 428.202 220.872L429.087 221.179C428.715 222.372 427.69 223.128 426.19 223.128C424.33 223.128 423.01 221.705 423.01 219.666C423.01 217.641 424.292 216.218 426.151 216.218C428.69 216.218 429.228 218.448 429.074 219.705H423.895ZM426.151 216.961C424.933 216.961 424.151 217.782 423.946 219H428.177C428.1 217.769 427.343 216.961 426.151 216.961ZM430.382 223V216.346H431.241V217.474C431.664 216.833 432.459 216.218 433.472 216.218C434.947 216.218 435.934 217.102 435.934 218.538V223H435.062V218.718C435.062 217.654 434.408 217.012 433.357 217.012C432.331 217.012 431.511 217.846 431.241 218.846V223H430.382ZM439.69 223.128C438.664 223.128 437.933 222.526 437.933 221.243V217.102H436.677V216.346C437.933 216.346 437.959 216.294 437.959 214.807H438.792V216.346H440.664V217.102H438.792V221.243C438.792 222.013 439.241 222.333 439.741 222.333C440.01 222.333 440.267 222.308 440.549 222.115V222.91C440.369 223.038 440.01 223.128 439.69 223.128ZM443.921 223.128C442.255 223.128 441.395 222.218 441.216 221.167L442.011 220.769H442.062C442.203 221.705 442.819 222.346 443.921 222.346C444.793 222.346 445.383 221.885 445.383 221.154C445.383 220.525 444.947 220.205 444.306 220.051L443.024 219.743C442.216 219.538 441.434 219.154 441.434 218.038C441.434 217.012 442.37 216.218 443.703 216.218C445.05 216.218 445.883 216.871 446.139 217.936L445.319 218.256H445.268C445.126 217.436 444.537 216.974 443.703 216.974C442.883 216.974 442.357 217.461 442.357 218.013C442.357 218.551 442.767 218.833 443.306 218.961L444.55 219.269C445.473 219.513 446.306 219.884 446.306 221.154C446.306 222.333 445.332 223.128 443.921 223.128ZM452.028 223.128C450.721 223.128 449.785 222.385 449.785 221.231C449.785 220.102 450.631 219.423 452.003 219.205L454.323 218.846V218.615C454.323 217.487 453.605 216.974 452.657 216.974C451.554 216.974 450.977 217.551 450.772 218.384L449.913 218.102C450.221 217.102 451.092 216.218 452.657 216.218C454.105 216.218 455.182 217.025 455.182 218.551V223H454.323V221.756C453.862 222.628 452.99 223.128 452.028 223.128ZM454.323 220.59V219.577L452.118 219.936C451.234 220.077 450.695 220.461 450.695 221.205C450.695 221.923 451.285 222.385 452.118 222.385C453.362 222.385 454.093 221.474 454.323 220.59ZM458.952 223.128C457.926 223.128 457.195 222.526 457.195 221.243V217.102H455.939V216.346C457.195 216.346 457.221 216.294 457.221 214.807H458.054V216.346H459.926V217.102H458.054V221.243C458.054 222.013 458.503 222.333 459.003 222.333C459.272 222.333 459.529 222.308 459.811 222.115V222.91C459.631 223.038 459.272 223.128 458.952 223.128ZM387.769 242.128C385.898 242.128 384.538 240.667 384.538 238.666C384.538 236.679 385.898 235.218 387.769 235.218C389.629 235.218 391 236.679 391 238.666C391 240.667 389.629 242.128 387.769 242.128ZM387.769 241.333C389.116 241.333 390.09 240.205 390.09 238.666C390.09 237.128 389.116 236.012 387.769 236.012C386.423 236.012 385.462 237.128 385.462 238.666C385.462 240.205 386.423 241.333 387.769 241.333ZM392.287 242V235.346H393.146V236.474C393.569 235.833 394.364 235.218 395.377 235.218C396.851 235.218 397.838 236.102 397.838 237.538V242H396.967V237.718C396.967 236.654 396.313 236.012 395.261 236.012C394.236 236.012 393.415 236.846 393.146 237.846V242H392.287ZM399.937 238.705C399.963 240.346 400.886 241.346 402.245 241.346C403.322 241.346 403.963 240.885 404.245 239.872L405.13 240.179C404.758 241.372 403.733 242.128 402.232 242.128C400.373 242.128 399.053 240.705 399.053 238.666C399.053 236.641 400.335 235.218 402.194 235.218C404.733 235.218 405.271 237.448 405.117 238.705H399.937ZM402.194 235.961C400.976 235.961 400.194 236.782 399.989 238H404.22C404.143 236.769 403.386 235.961 402.194 235.961ZM409.093 244.398V235.346H409.952V236.474C410.363 235.718 411.311 235.218 412.299 235.218C414.042 235.218 415.376 236.679 415.376 238.679C415.376 240.679 414.042 242.128 412.247 242.128C411.311 242.128 410.363 241.615 409.952 240.872V244.398H409.093ZM412.17 241.333C413.517 241.333 414.465 240.282 414.465 238.679C414.465 237.064 413.517 236.012 412.222 236.012C410.94 236.012 410.042 236.948 409.952 238.218V239.128C410.042 240.423 410.94 241.333 412.17 241.333ZM417.516 241.179V241.949V242H416.657V232.628H417.516V241.179ZM421.021 242.128C419.713 242.128 418.777 241.385 418.777 240.231C418.777 239.102 419.623 238.423 420.995 238.205L423.316 237.846V237.615C423.316 236.487 422.598 235.974 421.649 235.974C420.547 235.974 419.97 236.551 419.764 237.384L418.905 237.102C419.213 236.102 420.085 235.218 421.649 235.218C423.098 235.218 424.175 236.025 424.175 237.551V242H423.316V240.756C422.854 241.628 421.983 242.128 421.021 242.128ZM423.316 239.59V238.577L421.111 238.936C420.226 239.077 419.688 239.461 419.688 240.205C419.688 240.923 420.277 241.385 421.111 241.385C422.354 241.385 423.085 240.474 423.316 239.59ZM428.608 242.128C426.685 242.128 425.39 240.744 425.39 238.666C425.39 236.602 426.685 235.218 428.608 235.218C430.018 235.218 431.121 236.064 431.365 237.333L430.544 237.551H430.493C430.313 236.641 429.57 236.012 428.595 236.012C427.223 236.012 426.313 237.077 426.313 238.666C426.313 240.269 427.211 241.333 428.595 241.333C429.595 241.333 430.339 240.769 430.531 239.679L431.39 239.884C431.095 241.295 430.018 242.128 428.608 242.128ZM433.087 238.705C433.113 240.346 434.036 241.346 435.395 241.346C436.472 241.346 437.113 240.885 437.395 239.872L438.28 240.179C437.908 241.372 436.882 242.128 435.382 242.128C433.523 242.128 432.203 240.705 432.203 238.666C432.203 236.641 433.485 235.218 435.344 235.218C437.882 235.218 438.421 237.448 438.267 238.705H433.087ZM435.344 235.961C434.126 235.961 433.344 236.782 433.138 238H437.369C437.293 236.769 436.536 235.961 435.344 235.961Z" fill="black"/>
<path d="M224.752 157.753C224.664 157.947 224.35 158.148 223.818 158.014C223.125 157.82 222.447 157.682 221.728 157.555L221.726 157.555C218.928 157.103 216.068 157.25 213.475 157.684C211.18 158.059 209.018 158.658 207.035 159.468C203.028 161.1 199.797 163.445 197.394 166.209L197.395 166.209C194.885 169.042 193.273 172.314 192.555 175.767L192.556 175.766C191.681 179.758 191.914 183.967 192.767 188.16L192.767 188.161C193.659 192.445 195.183 196.696 197.026 200.918C197.063 201.002 197.067 201.066 197.059 201.115C197.05 201.161 197.028 201.202 196.991 201.237C196.913 201.31 196.763 201.366 196.569 201.378C196.178 201.4 195.733 201.235 195.588 200.901C195.472 200.635 195.36 200.363 195.246 200.09C195.133 199.818 195.019 199.545 194.903 199.278C193.113 194.953 191.688 190.595 190.993 186.242C190.314 181.946 190.356 177.681 191.559 173.665C192.586 170.232 194.553 167.02 197.31 164.287C199.894 161.726 203.233 159.604 207.225 158.16L208.032 157.88C212.725 156.367 218.68 155.566 224.253 157.135L224.253 157.135L224.424 157.194C224.575 157.26 224.671 157.343 224.725 157.426C224.795 157.536 224.797 157.653 224.752 157.753Z" fill="#CDB285" stroke="#CCB185" stroke-width="0.275113"/>
<path d="M201.256 193.182C200.903 193.927 200.55 194.673 200.186 195.421L200.186 195.423C199.599 196.666 199.115 197.934 198.387 199.075L198.386 199.078C197.733 200.136 196.721 200.936 195.065 201.086C193.335 201.244 191.726 200.759 190.251 199.981C188.775 199.203 187.441 198.135 186.264 197.136L186.264 197.135C186.083 196.984 186.041 196.852 186.052 196.758C186.063 196.663 186.131 196.566 186.259 196.493C186.485 196.364 186.852 196.337 187.169 196.528L187.302 196.624C188.543 197.683 189.909 198.877 191.641 199.552C192.781 199.996 194.135 200.249 195.269 199.95L195.271 199.949L195.506 199.873C196.483 199.507 196.969 198.718 197.346 197.981L197.513 197.647L197.513 197.645L200.921 190.448L200.921 190.447C200.982 190.316 201.101 190.237 201.263 190.205C201.427 190.173 201.627 190.194 201.815 190.26C202.003 190.326 202.165 190.433 202.26 190.557C202.352 190.676 202.381 190.807 202.324 190.946C201.961 191.693 201.609 192.438 201.256 193.182Z" fill="#CDB285" stroke="#CCB185" stroke-width="0.275113"/>
<defs>
<clipPath id="clip0_1248_26696">
<path d="M215.176 107H599.815V162.559C599.815 167.28 595.988 171.106 591.267 171.106H223.723C219.003 171.106 215.176 167.28 215.176 162.559V107Z" fill="white"/>
</clipPath>
</defs>
</svg>
