<svg width="60" height="60" viewBox="0 0 60 60" fill="none" xmlns="http://www.w3.org/2000/svg">
<path d="M30.3437 24.3491C31.7551 24.3491 33.1347 24.7676 34.3082 25.5517C35.4816 26.3358 36.3962 27.4502 36.9363 28.7541C37.4764 30.058 37.6177 31.4928 37.3424 32.877C37.067 34.2612 36.3874 35.5326 35.3895 36.5306C34.3915 37.5285 33.1201 38.2082 31.7359 38.4835C30.3517 38.7588 28.9169 38.6175 27.613 38.0774C26.3091 37.5373 25.1947 36.6227 24.4106 35.4493C23.6265 34.2758 23.208 32.8962 23.208 31.4849C23.208 29.5923 23.9598 27.7773 25.298 26.4391C26.6362 25.1009 28.4512 24.3491 30.3437 24.3491Z" fill="white" fill-opacity="0.2"/>
<path d="M42.2664 26.9558C42.1271 22.948 39.5987 20.3342 35.4947 19.963C32.3488 19.6781 30.0766 21.0497 29.256 23.7282C29.072 24.3438 28.9654 24.98 28.9387 25.622C28.8758 26.8938 28.8165 28.917 28.785 30.3947C28.5369 30.2302 28.3356 30.0963 28.1433 29.9525C28.0098 29.8042 27.8467 29.6854 27.6646 29.6039C27.4825 29.5224 27.2853 29.4799 27.0858 29.4791C26.8863 29.4783 26.6888 29.5194 26.506 29.5995C26.3233 29.6796 26.1593 29.7971 26.0247 29.9444C25.8845 30.0924 25.7784 30.2694 25.7138 30.4628C25.6492 30.6562 25.6278 30.8614 25.651 31.064C25.6742 31.2666 25.7415 31.4617 25.8482 31.6355C25.9548 31.8093 26.0982 31.9576 26.2683 32.0701C27.3783 33.0732 28.3014 33.8965 29.1742 34.6587C30.1422 35.5072 30.8424 35.172 31.1741 34.8906C32.5277 33.7545 33.6701 32.7164 34.6705 31.716C34.8266 31.476 34.9157 31.1986 34.9287 30.9126C34.9416 30.6266 34.8779 30.3423 34.7442 30.0891C34.6676 29.9425 34.5614 29.8134 34.4324 29.7099C34.3033 29.6065 34.1543 29.5308 33.9946 29.4878C33.8074 29.4446 33.6133 29.4406 33.4245 29.4758C33.2356 29.5111 33.0561 29.5849 32.8971 29.6927L32.8755 29.7071L31.7817 30.5026L31.7736 30.2329C31.6941 28.7175 31.7073 27.1987 31.8131 25.6849C31.8482 25.3424 31.903 24.9937 31.965 24.6503C32.0009 24.4619 32.0585 24.2782 32.1367 24.103C32.3006 23.7499 32.5594 23.4494 32.8844 23.2351C33.2093 23.0207 33.5875 22.9011 33.9766 22.8895C34.7404 22.8158 35.5109 22.8573 36.2623 23.0127C37.1003 23.1148 37.8747 23.5114 38.4474 24.1315C39.0202 24.7517 39.354 25.5551 39.3893 26.3986C39.5205 30.49 39.5196 34.1284 39.3893 37.5287C39.3981 37.999 39.3092 38.4661 39.1284 38.9004C38.9475 39.3347 38.6786 39.7267 38.3385 40.0518C37.9985 40.3769 37.5947 40.628 37.1527 40.7892C36.7108 40.9504 36.2402 41.0181 35.7707 40.9882C32.3075 41.0907 28.67 41.0907 24.9542 40.9945C24.4852 41.0285 24.0143 40.9648 23.5711 40.8075C23.128 40.6501 22.7223 40.4026 22.3797 40.0805C22.0371 39.7585 21.765 39.3688 21.5806 38.9362C21.3963 38.5036 21.3037 38.0375 21.3086 37.5673C21.1567 33.9208 21.1549 30.1242 21.3086 26.2817C21.3841 24.3448 22.6856 23.1116 24.8787 22.8959C25.0513 22.8797 25.2248 22.8725 25.4081 22.8653C25.669 22.8592 25.9294 22.8397 26.1883 22.8069C26.2377 22.7997 26.2908 22.7916 26.3384 22.7808C26.3778 22.7795 26.4169 22.7726 26.4544 22.7601L26.5227 22.7368C26.6549 22.7003 26.7827 22.6494 26.9038 22.5849C27.7607 22.2103 28.4703 21.5636 28.9225 20.745C29.333 19.9466 29.4946 19.0434 29.3865 18.1522C29.2783 17.261 28.9054 16.4227 28.3158 15.7457C28.2466 15.6625 28.1474 15.61 28.0397 15.5996C27.9319 15.5891 27.8245 15.6216 27.7406 15.69L25.6634 17.404C25.5825 17.4716 25.5306 17.5677 25.5186 17.6724C25.5065 17.7772 25.5352 17.8825 25.5987 17.9667C25.7292 18.1346 25.8198 18.3299 25.8635 18.538C25.9073 18.7461 25.9031 18.9613 25.8513 19.1675C25.768 19.3699 25.6326 19.5467 25.459 19.6799C25.2854 19.8131 25.0796 19.8981 24.8625 19.9261C24.7547 19.9327 24.6477 19.9417 24.5417 19.9531C24.5242 19.9542 24.5068 19.9563 24.4896 19.9594C22.8915 20.0831 21.3953 20.792 20.2874 21.9503C19.1796 23.1086 18.5379 24.6348 18.4854 26.2368C18.3056 29.8545 18.3056 33.6745 18.4854 37.5916C18.4726 38.4064 18.6222 39.2157 18.9255 39.9722C19.2287 40.7287 19.6795 41.4172 20.2516 41.9976C20.8237 42.5781 21.5056 43.0388 22.2576 43.353C23.0096 43.6672 23.8166 43.8285 24.6316 43.8276C26.5748 43.9301 28.4965 43.9822 30.3768 43.9822C32.2913 43.9822 34.1734 43.9292 35.998 43.8231C39.8081 43.6011 42.0867 41.2354 42.2466 37.3318C42.3761 33.8794 42.3869 30.3866 42.2664 26.9558Z" fill="#151515"/>
</svg>
