<svg width="60" height="60" viewBox="0 0 60 60" fill="none" xmlns="http://www.w3.org/2000/svg">
<path fill-rule="evenodd" clip-rule="evenodd" d="M43.953 19.1468C46.751 19.7267 49.1141 22.0608 49.7955 24.9458C50.042 26.0331 50.071 27.9323 49.8535 29.0196C49.578 30.3534 48.7517 31.8756 47.7804 32.8469C45.0113 35.6014 40.1837 35.8334 37.3712 33.3398L36.6753 32.7309V41.1685H33.4859V19.2773H36.6753V21.3359L37.4002 20.6836C38.676 19.5238 40.0967 19.0164 42.0684 19.0019C42.6773 18.9874 43.5326 19.0598 43.953 19.1468ZM20.2352 20.1472C19.8148 23.8295 17.6981 26.816 14.3927 28.3527C13.1604 28.9326 11.8122 29.2806 10.7684 29.2806H10V26.3086L11.1308 26.1201C14.1608 25.6417 16.5384 23.2931 17.0023 20.3066L17.1617 19.2773H20.3367L20.2352 20.1472ZM31.6012 19.2773V34.7896H28.4118V32.8469L27.8029 33.4413C25.4253 35.7464 20.5976 35.529 18.481 33.0209C18.2491 32.7599 17.8721 32.1221 17.6402 31.6146C17.2632 30.8173 17.1907 30.4693 17.1327 29.1791L17.0603 27.6713L18.0751 26.7C18.6405 26.1636 19.3654 25.3083 19.6988 24.8008L20.2932 23.873V26.4246C20.2932 29.324 20.4817 30.1649 21.337 30.9768C22.1779 31.7596 22.6998 31.9481 24.0625 31.9481C25.5703 31.9481 26.5416 31.5711 27.3824 30.6578C28.3393 29.614 28.4118 29.1791 28.4118 23.8875V19.2773H31.6012ZM40.0968 22.1768C38.6325 22.7422 37.5597 23.873 37.0378 25.3662C36.7334 26.236 36.7333 27.7728 37.0233 28.7296C38.0381 31.9335 42.0829 33.2238 44.8374 31.2232C48.0849 28.8601 47.099 23.0901 43.2717 22.0463C42.3729 21.7998 40.9086 21.8578 40.0968 22.1768Z" fill="#F1EFED"/>
</svg>
